<svg width="18" height="17" viewBox="0 0 18 17" fill="none" xmlns="http://www.w3.org/2000/svg">
<path d="M16.2596 11.6738C15.1431 11.6738 14.063 11.4923 13.0554 11.1655C12.7377 11.0566 12.3837 11.1383 12.1386 11.3834L10.7135 13.1716C8.14463 11.9462 5.73917 9.63147 4.45929 6.97186L6.22934 5.46504C6.47443 5.21088 6.54704 4.85687 6.44719 4.53917C6.11134 3.5316 5.93887 2.45142 5.93887 1.33492C5.93887 0.844753 5.5304 0.436279 5.04023 0.436279H1.89952C1.40935 0.436279 0.819336 0.654132 0.819336 1.33492C0.819336 9.76763 7.83601 16.7752 16.2596 16.7752C16.9041 16.7752 17.1583 16.2034 17.1583 15.7041V12.5725C17.1583 12.0823 16.7498 11.6738 16.2596 11.6738Z" fill="white"/>
</svg>
