<svg width="899" height="635" viewBox="0 0 899 635" fill="none" xmlns="http://www.w3.org/2000/svg">
<g opacity="0.68" filter="url(#filter0_f_0_2440)">
<g opacity="0.7" filter="url(#filter1_d_0_2440)">
<rect x="187.272" y="187.021" width="524.702" height="261.171" rx="12.0413" fill="url(#paint0_linear_0_2440)" shape-rendering="crispEdges"/>
<rect x="183.832" y="183.581" width="531.583" height="268.051" rx="15.4817" stroke="url(#paint1_linear_0_2440)" stroke-width="6.88077" shape-rendering="crispEdges"/>
</g>
<path opacity="0.7" d="M397.511 293.67C395.802 293.67 394.232 293.269 392.802 292.467C391.372 291.665 390.239 290.557 389.401 289.145C388.564 287.715 388.146 286.101 388.146 284.305C388.146 282.526 388.564 280.931 389.401 279.518C390.239 278.088 391.372 276.972 392.802 276.17C394.232 275.367 395.802 274.966 397.511 274.966C399.237 274.966 400.807 275.367 402.22 276.17C403.65 276.972 404.775 278.088 405.594 279.518C406.431 280.931 406.85 282.526 406.85 284.305C406.85 286.101 406.431 287.715 405.594 289.145C404.775 290.557 403.65 291.665 402.22 292.467C400.79 293.269 399.22 293.67 397.511 293.67ZM397.511 290.4C398.61 290.4 399.578 290.156 400.415 289.668C401.252 289.162 401.906 288.447 402.377 287.523C402.848 286.598 403.083 285.526 403.083 284.305C403.083 283.084 402.848 282.021 402.377 281.114C401.906 280.189 401.252 279.483 400.415 278.995C399.578 278.506 398.61 278.262 397.511 278.262C396.412 278.262 395.436 278.506 394.581 278.995C393.744 279.483 393.09 280.189 392.619 281.114C392.148 282.021 391.913 283.084 391.913 284.305C391.913 285.526 392.148 286.598 392.619 287.523C393.09 288.447 393.744 289.162 394.581 289.668C395.436 290.156 396.412 290.4 397.511 290.4ZM416.821 278.785C418.547 278.785 419.943 279.335 421.006 280.434C422.07 281.515 422.602 283.032 422.602 284.985V293.487H418.94V285.482C418.94 284.331 418.652 283.451 418.076 282.84C417.501 282.212 416.716 281.898 415.722 281.898C414.711 281.898 413.908 282.212 413.315 282.84C412.74 283.451 412.452 284.331 412.452 285.482V293.487H408.79V278.995H412.452V280.8C412.94 280.172 413.56 279.684 414.309 279.335C415.077 278.969 415.914 278.785 416.821 278.785ZM438.772 285.927C438.772 286.45 438.737 286.921 438.668 287.34H428.073C428.16 288.386 428.526 289.206 429.172 289.799C429.817 290.392 430.61 290.688 431.552 290.688C432.912 290.688 433.88 290.104 434.456 288.935H438.406C437.987 290.331 437.185 291.482 435.999 292.388C434.813 293.278 433.357 293.723 431.631 293.723C430.235 293.723 428.98 293.417 427.864 292.807C426.765 292.179 425.902 291.298 425.274 290.165C424.663 289.031 424.358 287.723 424.358 286.241C424.358 284.741 424.663 283.424 425.274 282.291C425.884 281.157 426.739 280.285 427.837 279.675C428.936 279.065 430.201 278.759 431.631 278.759C433.008 278.759 434.238 279.056 435.319 279.649C436.418 280.242 437.264 281.088 437.857 282.186C438.467 283.268 438.772 284.514 438.772 285.927ZM434.979 284.881C434.962 283.939 434.622 283.189 433.959 282.631C433.296 282.055 432.485 281.768 431.526 281.768C430.619 281.768 429.852 282.047 429.224 282.605C428.614 283.145 428.239 283.904 428.099 284.881H434.979ZM445.167 286.241C445.167 284.741 445.473 283.433 446.083 282.317C446.693 281.183 447.539 280.311 448.62 279.701C449.702 279.073 450.94 278.759 452.335 278.759C454.131 278.759 455.614 279.213 456.782 280.12C457.968 281.009 458.762 282.265 459.163 283.887H455.213C455.003 283.259 454.646 282.77 454.14 282.422C453.652 282.055 453.041 281.872 452.309 281.872C451.263 281.872 450.434 282.256 449.824 283.023C449.213 283.773 448.908 284.846 448.908 286.241C448.908 287.619 449.213 288.691 449.824 289.459C450.434 290.209 451.263 290.583 452.309 290.583C453.791 290.583 454.759 289.921 455.213 288.595H459.163C458.762 290.165 457.968 291.412 456.782 292.336C455.596 293.26 454.114 293.723 452.335 293.723C450.94 293.723 449.702 293.417 448.62 292.807C447.539 292.179 446.693 291.307 446.083 290.191C445.473 289.057 445.167 287.741 445.167 286.241ZM464.723 274.129V293.487H461.061V274.129H464.723ZM469.414 277.268C468.769 277.268 468.228 277.068 467.792 276.667C467.374 276.248 467.165 275.734 467.165 275.123C467.165 274.513 467.374 274.007 467.792 273.606C468.228 273.187 468.769 272.978 469.414 272.978C470.06 272.978 470.591 273.187 471.01 273.606C471.446 274.007 471.664 274.513 471.664 275.123C471.664 275.734 471.446 276.248 471.01 276.667C470.591 277.068 470.06 277.268 469.414 277.268ZM471.219 278.995V293.487H467.557V278.995H471.219ZM473.111 286.241C473.111 284.741 473.416 283.433 474.027 282.317C474.637 281.183 475.483 280.311 476.564 279.701C477.645 279.073 478.884 278.759 480.279 278.759C482.075 278.759 483.558 279.213 484.726 280.12C485.912 281.009 486.705 282.265 487.107 283.887H483.156C482.947 283.259 482.59 282.77 482.084 282.422C481.596 282.055 480.985 281.872 480.253 281.872C479.206 281.872 478.378 282.256 477.768 283.023C477.157 283.773 476.852 284.846 476.852 286.241C476.852 287.619 477.157 288.691 477.768 289.459C478.378 290.209 479.206 290.583 480.253 290.583C481.735 290.583 482.703 289.921 483.156 288.595H487.107C486.705 290.165 485.912 291.412 484.726 292.336C483.54 293.26 482.058 293.723 480.279 293.723C478.884 293.723 477.645 293.417 476.564 292.807C475.483 292.179 474.637 291.307 474.027 290.191C473.416 289.057 473.111 287.741 473.111 286.241ZM497.585 293.487L492.667 287.314V293.487H489.005V274.129H492.667V285.142L497.533 278.995H502.294L495.911 286.267L502.346 293.487H497.585ZM526.943 278.785C528.722 278.785 530.152 279.335 531.233 280.434C532.332 281.515 532.881 283.032 532.881 284.985V293.487H529.219V285.482C529.219 284.349 528.931 283.485 528.356 282.893C527.78 282.282 526.995 281.977 526.001 281.977C525.007 281.977 524.214 282.282 523.621 282.893C523.045 283.485 522.758 284.349 522.758 285.482V293.487H519.095V285.482C519.095 284.349 518.807 283.485 518.232 282.893C517.656 282.282 516.872 281.977 515.878 281.977C514.866 281.977 514.064 282.282 513.471 282.893C512.895 283.485 512.608 284.349 512.608 285.482V293.487H508.945V278.995H512.608V280.747C513.079 280.137 513.68 279.657 514.413 279.309C515.163 278.96 515.982 278.785 516.872 278.785C518.005 278.785 519.017 279.03 519.906 279.518C520.796 279.989 521.484 280.669 521.973 281.558C522.444 280.721 523.124 280.05 524.013 279.544C524.92 279.038 525.897 278.785 526.943 278.785ZM549.044 285.927C549.044 286.45 549.009 286.921 548.939 287.34H538.345C538.432 288.386 538.798 289.206 539.444 289.799C540.089 290.392 540.882 290.688 541.824 290.688C543.184 290.688 544.152 290.104 544.728 288.935H548.678C548.259 290.331 547.457 291.482 546.271 292.388C545.085 293.278 543.629 293.723 541.903 293.723C540.507 293.723 539.252 293.417 538.136 292.807C537.037 292.179 536.174 291.298 535.546 290.165C534.935 289.031 534.63 287.723 534.63 286.241C534.63 284.741 534.935 283.424 535.546 282.291C536.156 281.157 537.011 280.285 538.109 279.675C539.208 279.065 540.472 278.759 541.903 278.759C543.28 278.759 544.51 279.056 545.591 279.649C546.69 280.242 547.536 281.088 548.128 282.186C548.739 283.268 549.044 284.514 549.044 285.927ZM545.251 284.881C545.233 283.939 544.893 283.189 544.231 282.631C543.568 282.055 542.757 281.768 541.798 281.768C540.891 281.768 540.124 282.047 539.496 282.605C538.885 283.145 538.51 283.904 538.371 284.881H545.251ZM556.478 293.723C555.292 293.723 554.229 293.513 553.287 293.095C552.345 292.659 551.595 292.075 551.037 291.342C550.496 290.61 550.2 289.799 550.148 288.909H553.836C553.906 289.467 554.176 289.929 554.647 290.296C555.135 290.662 555.737 290.845 556.452 290.845C557.15 290.845 557.69 290.706 558.074 290.427C558.475 290.147 558.676 289.79 558.676 289.354C558.676 288.883 558.432 288.534 557.943 288.308C557.472 288.063 556.714 287.802 555.667 287.523C554.586 287.261 553.697 286.991 552.999 286.712C552.319 286.433 551.726 286.006 551.22 285.43C550.732 284.855 550.488 284.078 550.488 283.102C550.488 282.3 550.714 281.567 551.168 280.904C551.639 280.242 552.302 279.719 553.156 279.335C554.028 278.951 555.048 278.759 556.217 278.759C557.943 278.759 559.321 279.195 560.35 280.067C561.379 280.922 561.946 282.082 562.05 283.547H558.545C558.493 282.971 558.248 282.518 557.812 282.186C557.394 281.837 556.827 281.663 556.112 281.663C555.449 281.663 554.935 281.785 554.569 282.029C554.22 282.273 554.045 282.614 554.045 283.05C554.045 283.538 554.29 283.913 554.778 284.174C555.266 284.419 556.025 284.671 557.054 284.933C558.1 285.195 558.963 285.465 559.644 285.744C560.324 286.023 560.908 286.459 561.396 287.052C561.902 287.627 562.164 288.395 562.181 289.354C562.181 290.191 561.946 290.941 561.475 291.604C561.021 292.266 560.359 292.79 559.487 293.173C558.632 293.54 557.629 293.723 556.478 293.723ZM569.948 293.723C568.763 293.723 567.699 293.513 566.757 293.095C565.815 292.659 565.065 292.075 564.507 291.342C563.967 290.61 563.67 289.799 563.618 288.909H567.306C567.376 289.467 567.646 289.929 568.117 290.296C568.606 290.662 569.207 290.845 569.922 290.845C570.62 290.845 571.161 290.706 571.544 290.427C571.945 290.147 572.146 289.79 572.146 289.354C572.146 288.883 571.902 288.534 571.413 288.308C570.943 288.063 570.184 287.802 569.138 287.523C568.056 287.261 567.167 286.991 566.469 286.712C565.789 286.433 565.196 286.006 564.69 285.43C564.202 284.855 563.958 284.078 563.958 283.102C563.958 282.3 564.185 281.567 564.638 280.904C565.109 280.242 565.772 279.719 566.626 279.335C567.498 278.951 568.518 278.759 569.687 278.759C571.413 278.759 572.791 279.195 573.82 280.067C574.849 280.922 575.416 282.082 575.52 283.547H572.015C571.963 282.971 571.719 282.518 571.283 282.186C570.864 281.837 570.297 281.663 569.582 281.663C568.92 281.663 568.405 281.785 568.039 282.029C567.69 282.273 567.516 282.614 567.516 283.05C567.516 283.538 567.76 283.913 568.248 284.174C568.736 284.419 569.495 284.671 570.524 284.933C571.57 285.195 572.434 285.465 573.114 285.744C573.794 286.023 574.378 286.459 574.866 287.052C575.372 287.627 575.634 288.395 575.651 289.354C575.651 290.191 575.416 290.941 574.945 291.604C574.492 292.266 573.829 292.79 572.957 293.173C572.102 293.54 571.099 293.723 569.948 293.723ZM576.931 286.189C576.931 284.724 577.219 283.424 577.794 282.291C578.387 281.157 579.181 280.285 580.175 279.675C581.186 279.065 582.311 278.759 583.549 278.759C584.631 278.759 585.572 278.977 586.375 279.413C587.194 279.849 587.848 280.399 588.337 281.061V278.995H592.025V293.487H588.337V291.368C587.866 292.048 587.212 292.615 586.375 293.069C585.555 293.505 584.605 293.723 583.523 293.723C582.302 293.723 581.186 293.409 580.175 292.781C579.181 292.153 578.387 291.272 577.794 290.139C577.219 288.988 576.931 287.671 576.931 286.189ZM588.337 286.241C588.337 285.352 588.162 284.593 587.813 283.965C587.465 283.32 586.994 282.832 586.401 282.5C585.808 282.151 585.171 281.977 584.491 281.977C583.811 281.977 583.183 282.143 582.608 282.474C582.032 282.805 581.561 283.294 581.195 283.939C580.846 284.567 580.672 285.317 580.672 286.189C580.672 287.061 580.846 287.828 581.195 288.491C581.561 289.136 582.032 289.633 582.608 289.982C583.201 290.331 583.828 290.505 584.491 290.505C585.171 290.505 585.808 290.339 586.401 290.008C586.994 289.659 587.465 289.171 587.813 288.543C588.162 287.898 588.337 287.13 588.337 286.241ZM600.494 278.759C601.575 278.759 602.526 278.977 603.345 279.413C604.165 279.832 604.81 280.381 605.281 281.061V278.995H608.97V293.592C608.97 294.935 608.699 296.129 608.159 297.176C607.618 298.24 606.807 299.077 605.726 299.687C604.645 300.315 603.337 300.629 601.802 300.629C599.744 300.629 598.052 300.149 596.727 299.19C595.419 298.231 594.678 296.923 594.503 295.266H598.14C598.331 295.929 598.741 296.452 599.369 296.836C600.014 297.237 600.79 297.437 601.697 297.437C602.761 297.437 603.624 297.115 604.287 296.469C604.95 295.842 605.281 294.882 605.281 293.592V291.342C604.81 292.022 604.156 292.589 603.319 293.042C602.499 293.496 601.558 293.723 600.494 293.723C599.273 293.723 598.157 293.409 597.145 292.781C596.134 292.153 595.332 291.272 594.739 290.139C594.163 288.988 593.876 287.671 593.876 286.189C593.876 284.724 594.163 283.424 594.739 282.291C595.332 281.157 596.125 280.285 597.119 279.675C598.131 279.065 599.256 278.759 600.494 278.759ZM605.281 286.241C605.281 285.352 605.107 284.593 604.758 283.965C604.409 283.32 603.938 282.832 603.345 282.5C602.752 282.151 602.116 281.977 601.436 281.977C600.755 281.977 600.128 282.143 599.552 282.474C598.977 282.805 598.506 283.294 598.14 283.939C597.791 284.567 597.616 285.317 597.616 286.189C597.616 287.061 597.791 287.828 598.14 288.491C598.506 289.136 598.977 289.633 599.552 289.982C600.145 290.331 600.773 290.505 601.436 290.505C602.116 290.505 602.752 290.339 603.345 290.008C603.938 289.659 604.409 289.171 604.758 288.543C605.107 287.898 605.281 287.13 605.281 286.241ZM625.234 285.927C625.234 286.45 625.199 286.921 625.129 287.34H614.535C614.622 288.386 614.988 289.206 615.633 289.799C616.279 290.392 617.072 290.688 618.014 290.688C619.374 290.688 620.342 290.104 620.918 288.935H624.868C624.449 290.331 623.647 291.482 622.461 292.388C621.275 293.278 619.819 293.723 618.092 293.723C616.697 293.723 615.441 293.417 614.325 292.807C613.227 292.179 612.363 291.298 611.736 290.165C611.125 289.031 610.82 287.723 610.82 286.241C610.82 284.741 611.125 283.424 611.736 282.291C612.346 281.157 613.2 280.285 614.299 279.675C615.398 279.065 616.662 278.759 618.092 278.759C619.47 278.759 620.7 279.056 621.781 279.649C622.88 280.242 623.725 281.088 624.318 282.186C624.929 283.268 625.234 284.514 625.234 285.927ZM621.441 284.881C621.423 283.939 621.083 283.189 620.421 282.631C619.758 282.055 618.947 281.768 617.988 281.768C617.081 281.768 616.313 282.047 615.686 282.605C615.075 283.145 614.7 283.904 614.561 284.881H621.441ZM636.835 282.003V289.014C636.835 289.502 636.948 289.86 637.175 290.086C637.419 290.296 637.82 290.4 638.378 290.4H640.079V293.487H637.777C634.69 293.487 633.146 291.987 633.146 288.988V282.003H631.42V278.995H633.146V275.411H636.835V278.995H640.079V282.003H636.835ZM648.363 293.723C646.968 293.723 645.712 293.417 644.596 292.807C643.48 292.179 642.599 291.298 641.954 290.165C641.326 289.031 641.012 287.723 641.012 286.241C641.012 284.759 641.335 283.451 641.98 282.317C642.643 281.183 643.541 280.311 644.675 279.701C645.808 279.073 647.073 278.759 648.468 278.759C649.863 278.759 651.127 279.073 652.261 279.701C653.395 280.311 654.284 281.183 654.929 282.317C655.592 283.451 655.923 284.759 655.923 286.241C655.923 287.723 655.583 289.031 654.903 290.165C654.24 291.298 653.334 292.179 652.183 292.807C651.049 293.417 649.776 293.723 648.363 293.723ZM648.363 290.531C649.026 290.531 649.645 290.374 650.221 290.06C650.814 289.729 651.284 289.241 651.633 288.595C651.982 287.95 652.156 287.165 652.156 286.241C652.156 284.863 651.79 283.808 651.058 283.076C650.343 282.326 649.462 281.951 648.416 281.951C647.369 281.951 646.489 282.326 645.773 283.076C645.076 283.808 644.727 284.863 644.727 286.241C644.727 287.619 645.067 288.683 645.747 289.432C646.445 290.165 647.317 290.531 648.363 290.531ZM388.093 318.241C388.093 316.741 388.399 315.433 389.009 314.317C389.619 313.183 390.465 312.311 391.547 311.701C392.628 311.073 393.866 310.759 395.261 310.759C397.058 310.759 398.54 311.213 399.708 312.12C400.894 313.009 401.688 314.265 402.089 315.887H398.139C397.929 315.259 397.572 314.77 397.066 314.422C396.578 314.055 395.968 313.872 395.235 313.872C394.189 313.872 393.36 314.256 392.75 315.023C392.14 315.773 391.834 316.846 391.834 318.241C391.834 319.619 392.14 320.691 392.75 321.459C393.36 322.209 394.189 322.583 395.235 322.583C396.717 322.583 397.685 321.921 398.139 320.595H402.089C401.688 322.165 400.894 323.412 399.708 324.336C398.522 325.26 397.04 325.723 395.261 325.723C393.866 325.723 392.628 325.417 391.547 324.807C390.465 324.179 389.619 323.307 389.009 322.191C388.399 321.057 388.093 319.741 388.093 318.241ZM410.422 325.723C409.027 325.723 407.772 325.417 406.655 324.807C405.539 324.179 404.659 323.298 404.013 322.165C403.385 321.031 403.071 319.723 403.071 318.241C403.071 316.759 403.394 315.451 404.039 314.317C404.702 313.183 405.6 312.311 406.734 311.701C407.867 311.073 409.132 310.759 410.527 310.759C411.922 310.759 413.187 311.073 414.32 311.701C415.454 312.311 416.343 313.183 416.988 314.317C417.651 315.451 417.982 316.759 417.982 318.241C417.982 319.723 417.642 321.031 416.962 322.165C416.3 323.298 415.393 324.179 414.242 324.807C413.108 325.417 411.835 325.723 410.422 325.723ZM410.422 322.531C411.085 322.531 411.704 322.374 412.28 322.06C412.873 321.729 413.343 321.241 413.692 320.595C414.041 319.95 414.215 319.165 414.215 318.241C414.215 316.863 413.849 315.808 413.117 315.076C412.402 314.326 411.521 313.951 410.475 313.951C409.428 313.951 408.548 314.326 407.833 315.076C407.135 315.808 406.786 316.863 406.786 318.241C406.786 319.619 407.126 320.683 407.806 321.432C408.504 322.165 409.376 322.531 410.422 322.531ZM437.882 310.785C439.661 310.785 441.091 311.335 442.172 312.434C443.271 313.515 443.82 315.032 443.82 316.985V325.487H440.158V317.482C440.158 316.349 439.87 315.485 439.295 314.893C438.719 314.282 437.934 313.977 436.94 313.977C435.946 313.977 435.153 314.282 434.56 314.893C433.984 315.485 433.696 316.349 433.696 317.482V325.487H430.034V317.482C430.034 316.349 429.746 315.485 429.171 314.893C428.595 314.282 427.811 313.977 426.816 313.977C425.805 313.977 425.003 314.282 424.41 314.893C423.834 315.485 423.546 316.349 423.546 317.482V325.487H419.884V310.995H423.546V312.747C424.017 312.137 424.619 311.657 425.352 311.309C426.101 310.96 426.921 310.785 427.811 310.785C428.944 310.785 429.956 311.03 430.845 311.518C431.734 311.989 432.423 312.669 432.912 313.558C433.382 312.721 434.063 312.05 434.952 311.544C435.859 311.038 436.836 310.785 437.882 310.785ZM464.509 310.785C466.287 310.785 467.717 311.335 468.799 312.434C469.897 313.515 470.447 315.032 470.447 316.985V325.487H466.784V317.482C466.784 316.349 466.497 315.485 465.921 314.893C465.346 314.282 464.561 313.977 463.567 313.977C462.573 313.977 461.779 314.282 461.186 314.893C460.611 315.485 460.323 316.349 460.323 317.482V325.487H456.661V317.482C456.661 316.349 456.373 315.485 455.797 314.893C455.222 314.282 454.437 313.977 453.443 313.977C452.432 313.977 451.629 314.282 451.036 314.893C450.461 315.485 450.173 316.349 450.173 317.482V325.487H446.511V310.995H450.173V312.747C450.644 312.137 451.246 311.657 451.978 311.309C452.728 310.96 453.548 310.785 454.437 310.785C455.571 310.785 456.582 311.03 457.472 311.518C458.361 311.989 459.05 312.669 459.538 313.558C460.009 312.721 460.689 312.05 461.579 311.544C462.486 311.038 463.462 310.785 464.509 310.785ZM486.819 310.995V325.487H483.13V323.656C482.659 324.284 482.04 324.781 481.273 325.147C480.523 325.496 479.703 325.67 478.814 325.67C477.68 325.67 476.678 325.435 475.806 324.964C474.934 324.476 474.245 323.769 473.739 322.845C473.251 321.903 473.007 320.787 473.007 319.497V310.995H476.669V318.973C476.669 320.124 476.957 321.014 477.532 321.642C478.108 322.252 478.892 322.557 479.886 322.557C480.898 322.557 481.692 322.252 482.267 321.642C482.843 321.014 483.13 320.124 483.13 318.973V310.995H486.819ZM497.678 310.785C499.405 310.785 500.8 311.335 501.864 312.434C502.928 313.515 503.46 315.032 503.46 316.985V325.487H499.797V317.482C499.797 316.331 499.51 315.451 498.934 314.84C498.359 314.212 497.574 313.898 496.58 313.898C495.568 313.898 494.766 314.212 494.173 314.84C493.598 315.451 493.31 316.331 493.31 317.482V325.487H489.647V310.995H493.31V312.8C493.798 312.172 494.417 311.684 495.167 311.335C495.935 310.969 496.772 310.785 497.678 310.785ZM508.015 309.268C507.37 309.268 506.829 309.068 506.393 308.667C505.975 308.248 505.765 307.734 505.765 307.123C505.765 306.513 505.975 306.007 506.393 305.606C506.829 305.187 507.37 304.978 508.015 304.978C508.66 304.978 509.192 305.187 509.611 305.606C510.047 306.007 510.265 306.513 510.265 307.123C510.265 307.734 510.047 308.248 509.611 308.667C509.192 309.068 508.66 309.268 508.015 309.268ZM509.82 310.995V325.487H506.158V310.995H509.82ZM516.918 314.003V321.014C516.918 321.502 517.031 321.86 517.258 322.086C517.502 322.296 517.903 322.4 518.461 322.4H520.161V325.487H517.859C514.773 325.487 513.229 323.987 513.229 320.988V314.003H511.503V310.995H513.229V307.411H516.918V310.995H520.161V314.003H516.918ZM535.875 310.995L526.903 332.341H523.005L526.144 325.121L520.337 310.995H524.444L528.184 321.119L531.978 310.995H535.875ZM541.572 318.189C541.572 316.724 541.859 315.424 542.435 314.291C543.028 313.157 543.821 312.285 544.815 311.675C545.827 311.065 546.952 310.759 548.19 310.759C549.271 310.759 550.213 310.977 551.015 311.413C551.835 311.849 552.489 312.399 552.977 313.061V310.995H556.666V325.487H552.977V323.368C552.506 324.048 551.852 324.615 551.015 325.069C550.196 325.505 549.245 325.723 548.164 325.723C546.943 325.723 545.827 325.409 544.815 324.781C543.821 324.153 543.028 323.272 542.435 322.139C541.859 320.988 541.572 319.671 541.572 318.189ZM552.977 318.241C552.977 317.352 552.803 316.593 552.454 315.965C552.105 315.32 551.634 314.832 551.041 314.5C550.448 314.151 549.812 313.977 549.132 313.977C548.452 313.977 547.824 314.143 547.248 314.474C546.673 314.805 546.202 315.294 545.836 315.939C545.487 316.567 545.312 317.317 545.312 318.189C545.312 319.061 545.487 319.828 545.836 320.491C546.202 321.136 546.673 321.633 547.248 321.982C547.841 322.331 548.469 322.505 549.132 322.505C549.812 322.505 550.448 322.339 551.041 322.008C551.634 321.659 552.105 321.171 552.454 320.543C552.803 319.898 552.977 319.13 552.977 318.241ZM563.12 313.244C563.591 312.477 564.201 311.875 564.951 311.439C565.719 311.003 566.591 310.785 567.567 310.785V314.631H566.599C565.448 314.631 564.576 314.901 563.983 315.442C563.408 315.983 563.12 316.924 563.12 318.267V325.487H559.458V310.995H563.12V313.244ZM575.685 325.723C574.289 325.723 573.034 325.417 571.918 324.807C570.801 324.179 569.921 323.298 569.275 322.165C568.648 321.031 568.334 319.723 568.334 318.241C568.334 316.759 568.656 315.451 569.302 314.317C569.964 313.183 570.862 312.311 571.996 311.701C573.13 311.073 574.394 310.759 575.789 310.759C577.184 310.759 578.449 311.073 579.582 311.701C580.716 312.311 581.605 313.183 582.251 314.317C582.913 315.451 583.245 316.759 583.245 318.241C583.245 319.723 582.905 321.031 582.224 322.165C581.562 323.298 580.655 324.179 579.504 324.807C578.37 325.417 577.097 325.723 575.685 325.723ZM575.685 322.531C576.347 322.531 576.966 322.374 577.542 322.06C578.135 321.729 578.606 321.241 578.955 320.595C579.303 319.95 579.478 319.165 579.478 318.241C579.478 316.863 579.111 315.808 578.379 315.076C577.664 314.326 576.783 313.951 575.737 313.951C574.69 313.951 573.81 314.326 573.095 315.076C572.397 315.808 572.048 316.863 572.048 318.241C572.048 319.619 572.388 320.683 573.069 321.432C573.766 322.165 574.638 322.531 575.685 322.531ZM598.828 310.995V325.487H595.139V323.656C594.668 324.284 594.049 324.781 593.282 325.147C592.532 325.496 591.712 325.67 590.823 325.67C589.689 325.67 588.687 325.435 587.815 324.964C586.943 324.476 586.254 323.769 585.748 322.845C585.26 321.903 585.016 320.787 585.016 319.497V310.995H588.678V318.973C588.678 320.124 588.966 321.014 589.541 321.642C590.117 322.252 590.901 322.557 591.896 322.557C592.907 322.557 593.701 322.252 594.276 321.642C594.852 321.014 595.139 320.124 595.139 318.973V310.995H598.828ZM609.688 310.785C611.414 310.785 612.809 311.335 613.873 312.434C614.937 313.515 615.469 315.032 615.469 316.985V325.487H611.806V317.482C611.806 316.331 611.519 315.451 610.943 314.84C610.368 314.212 609.583 313.898 608.589 313.898C607.577 313.898 606.775 314.212 606.182 314.84C605.607 315.451 605.319 316.331 605.319 317.482V325.487H601.657V310.995H605.319V312.8C605.807 312.172 606.426 311.684 607.176 311.335C607.944 310.969 608.781 310.785 609.688 310.785ZM617.225 318.189C617.225 316.724 617.513 315.424 618.088 314.291C618.681 313.157 619.483 312.285 620.495 311.675C621.506 311.065 622.631 310.759 623.87 310.759C624.811 310.759 625.709 310.969 626.564 311.387C627.419 311.788 628.099 312.329 628.604 313.009V306.129H632.319V325.487H628.604V323.342C628.151 324.057 627.514 324.633 626.695 325.069C625.875 325.505 624.925 325.723 623.843 325.723C622.623 325.723 621.506 325.409 620.495 324.781C619.483 324.153 618.681 323.272 618.088 322.139C617.513 320.988 617.225 319.671 617.225 318.189ZM628.631 318.241C628.631 317.352 628.456 316.593 628.107 315.965C627.759 315.32 627.288 314.832 626.695 314.5C626.102 314.151 625.465 313.977 624.785 313.977C624.105 313.977 623.477 314.143 622.902 314.474C622.326 314.805 621.855 315.294 621.489 315.939C621.14 316.567 620.966 317.317 620.966 318.189C620.966 319.061 621.14 319.828 621.489 320.491C621.855 321.136 622.326 321.633 622.902 321.982C623.495 322.331 624.122 322.505 624.785 322.505C625.465 322.505 626.102 322.339 626.695 322.008C627.288 321.659 627.759 321.171 628.107 320.543C628.456 319.898 628.631 319.13 628.631 318.241ZM644.824 314.003V321.014C644.824 321.502 644.937 321.86 645.164 322.086C645.408 322.296 645.809 322.4 646.367 322.4H648.068V325.487H645.766C642.679 325.487 641.135 323.987 641.135 320.988V314.003H639.409V310.995H641.135V307.411H644.824V310.995H648.068V314.003H644.824ZM658.079 310.785C659.177 310.785 660.154 311.03 661.009 311.518C661.863 311.989 662.526 312.695 662.997 313.637C663.485 314.561 663.729 315.677 663.729 316.985V325.487H660.067V317.482C660.067 316.331 659.779 315.451 659.204 314.84C658.628 314.212 657.843 313.898 656.849 313.898C655.838 313.898 655.035 314.212 654.443 314.84C653.867 315.451 653.579 316.331 653.579 317.482V325.487H649.917V306.129H653.579V312.8C654.05 312.172 654.678 311.684 655.463 311.335C656.248 310.969 657.12 310.785 658.079 310.785ZM679.899 317.927C679.899 318.45 679.864 318.921 679.795 319.34H669.2C669.287 320.386 669.653 321.206 670.299 321.799C670.944 322.392 671.737 322.688 672.679 322.688C674.04 322.688 675.007 322.104 675.583 320.935H679.533C679.114 322.331 678.312 323.482 677.126 324.388C675.94 325.278 674.484 325.723 672.758 325.723C671.363 325.723 670.107 325.417 668.991 324.807C667.892 324.179 667.029 323.298 666.401 322.165C665.791 321.031 665.485 319.723 665.485 318.241C665.485 316.741 665.791 315.424 666.401 314.291C667.011 313.157 667.866 312.285 668.965 311.675C670.063 311.065 671.328 310.759 672.758 310.759C674.135 310.759 675.365 311.056 676.446 311.649C677.545 312.242 678.391 313.088 678.984 314.186C679.594 315.268 679.899 316.514 679.899 317.927ZM676.106 316.881C676.089 315.939 675.749 315.189 675.086 314.631C674.423 314.055 673.612 313.768 672.653 313.768C671.746 313.768 670.979 314.047 670.351 314.605C669.741 315.145 669.366 315.904 669.226 316.881H676.106ZM409.126 342.995L404.888 357.487H400.938L398.296 347.363L395.654 357.487H391.677L387.413 342.995H391.128L393.692 354.034L396.465 342.995H400.336L403.057 354.008L405.62 342.995H409.126ZM416.758 357.723C415.363 357.723 414.107 357.417 412.991 356.807C411.875 356.179 410.994 355.298 410.349 354.165C409.721 353.031 409.407 351.723 409.407 350.241C409.407 348.759 409.73 347.451 410.375 346.317C411.038 345.183 411.936 344.311 413.069 343.701C414.203 343.073 415.467 342.759 416.863 342.759C418.258 342.759 419.522 343.073 420.656 343.701C421.789 344.311 422.679 345.183 423.324 346.317C423.987 347.451 424.318 348.759 424.318 350.241C424.318 351.723 423.978 353.031 423.298 354.165C422.635 355.298 421.728 356.179 420.577 356.807C419.444 357.417 418.17 357.723 416.758 357.723ZM416.758 354.531C417.421 354.531 418.04 354.374 418.615 354.06C419.208 353.729 419.679 353.241 420.028 352.595C420.377 351.95 420.551 351.165 420.551 350.241C420.551 348.863 420.185 347.808 419.452 347.076C418.737 346.326 417.857 345.951 416.81 345.951C415.764 345.951 414.883 346.326 414.168 347.076C413.47 347.808 413.122 348.863 413.122 350.241C413.122 351.619 413.462 352.683 414.142 353.432C414.839 354.165 415.711 354.531 416.758 354.531ZM429.882 345.244C430.353 344.477 430.963 343.875 431.713 343.439C432.481 343.003 433.353 342.785 434.329 342.785V346.631H433.361C432.21 346.631 431.338 346.901 430.745 347.442C430.17 347.983 429.882 348.924 429.882 350.267V357.487H426.22V342.995H429.882V345.244ZM439.673 338.129V357.487H436.011V338.129H439.673ZM441.565 350.189C441.565 348.724 441.853 347.424 442.429 346.291C443.022 345.157 443.824 344.285 444.835 343.675C445.847 343.065 446.972 342.759 448.21 342.759C449.152 342.759 450.05 342.969 450.904 343.387C451.759 343.788 452.439 344.329 452.945 345.009V338.129H456.659V357.487H452.945V355.342C452.491 356.057 451.855 356.633 451.035 357.069C450.215 357.505 449.265 357.723 448.184 357.723C446.963 357.723 445.847 357.409 444.835 356.781C443.824 356.153 443.022 355.272 442.429 354.139C441.853 352.988 441.565 351.671 441.565 350.189ZM452.971 350.241C452.971 349.352 452.797 348.593 452.448 347.965C452.099 347.32 451.628 346.832 451.035 346.5C450.442 346.151 449.806 345.977 449.125 345.977C448.445 345.977 447.817 346.143 447.242 346.474C446.666 346.805 446.196 347.294 445.829 347.939C445.481 348.567 445.306 349.317 445.306 350.189C445.306 351.061 445.481 351.828 445.829 352.491C446.196 353.136 446.666 353.633 447.242 353.982C447.835 354.331 448.463 354.505 449.125 354.505C449.806 354.505 450.442 354.339 451.035 354.008C451.628 353.659 452.099 353.171 452.448 352.543C452.797 351.898 452.971 351.13 452.971 350.241Z" fill="white"/>
<path opacity="0.7" d="M388.734 425.43H486.458" stroke="white" stroke-width="7.32743"/>
<g opacity="0.7">
<path d="M340.947 265.785H232.769C231.555 265.785 230.57 266.958 230.57 268.406V376.374C230.57 377.821 231.555 378.995 232.769 378.995H252.265C253.479 378.995 254.464 377.821 254.464 376.374C254.464 374.927 253.479 373.753 252.265 373.753H234.968V291.991H338.748V373.753H332.812C332.726 373.753 332.642 373.761 332.557 373.772L320.979 359.972L326.238 353.704C326.788 353.048 327.007 352.095 326.812 351.197C326.618 350.298 326.039 349.59 325.291 349.333L320.555 347.707C324.44 344.339 326.875 338.899 326.875 332.872C326.875 322.757 319.971 314.528 311.484 314.528H262.232C253.746 314.528 246.841 322.757 246.841 332.872C246.841 342.987 253.746 351.216 262.232 351.216H285.537L290.982 373.753H272.053C270.839 373.753 269.855 374.927 269.855 376.374C269.855 377.821 270.839 378.995 272.053 378.995H292.249L294.073 386.542C294.288 387.433 294.883 388.123 295.637 388.354C296.39 388.586 297.19 388.325 297.74 387.67L302.999 381.401L317.926 399.192C318.338 399.683 318.897 399.959 319.48 399.959C320.063 399.959 320.623 399.683 321.036 399.192L335.905 381.469C336.468 380.798 336.659 379.853 336.484 378.995H340.947C342.162 378.995 343.146 377.821 343.146 376.374V268.406C343.146 266.958 342.162 265.785 340.947 265.785ZM262.232 345.975C256.17 345.975 251.238 340.097 251.238 332.872C251.238 325.647 256.17 319.769 262.232 319.769H311.484C317.546 319.769 322.478 325.647 322.478 332.872C322.478 338.864 319.11 344.046 314.268 345.549L285.267 335.595C284.499 335.331 283.67 335.586 283.105 336.261C282.539 336.935 282.325 337.922 282.546 338.839L284.271 345.975H262.232ZM319.481 393.632L304.554 375.842C304.142 375.35 303.583 375.074 303 375.074C302.417 375.074 301.857 375.35 301.444 375.842L297.267 380.822L287.873 341.943L320.493 353.14L316.315 358.119C315.456 359.143 315.456 360.802 316.315 361.826L331.242 379.616L319.481 393.632ZM234.968 286.75V271.026H338.748V286.75H234.968Z" fill="white"/>
<path d="M262.342 276.267C261.764 276.267 261.197 276.547 260.788 277.034C260.379 277.522 260.144 278.198 260.144 278.887C260.144 279.576 260.379 280.253 260.788 280.74C261.197 281.227 261.764 281.508 262.342 281.508C262.92 281.508 263.488 281.227 263.897 280.74C264.306 280.253 264.541 279.576 264.541 278.887C264.541 278.198 264.306 277.522 263.897 277.034C263.488 276.547 262.92 276.267 262.342 276.267Z" fill="white"/>
<path d="M253.547 276.267C252.969 276.267 252.402 276.547 251.993 277.034C251.584 277.522 251.349 278.198 251.349 278.887C251.349 279.576 251.584 280.253 251.993 280.74C252.402 281.227 252.969 281.508 253.547 281.508C254.125 281.508 254.693 281.227 255.102 280.74C255.511 280.253 255.746 279.576 255.746 278.887C255.746 278.198 255.511 277.522 255.102 277.034C254.693 276.547 254.125 276.267 253.547 276.267Z" fill="white"/>
<path d="M244.751 276.267C244.173 276.267 243.606 276.547 243.197 277.034C242.788 277.522 242.553 278.198 242.553 278.887C242.553 279.576 242.788 280.253 243.197 280.74C243.606 281.227 244.173 281.508 244.751 281.508C245.33 281.508 245.897 281.227 246.306 280.74C246.715 280.253 246.95 279.576 246.95 278.887C246.95 278.198 246.715 277.522 246.306 277.034C245.897 276.547 245.33 276.267 244.751 276.267Z" fill="white"/>
<path d="M329.074 276.267H274.545C273.331 276.267 272.347 277.44 272.347 278.887C272.347 280.335 273.331 281.508 274.545 281.508H329.074C330.289 281.508 331.273 280.335 331.273 278.887C331.273 277.44 330.289 276.267 329.074 276.267Z" fill="white"/>
<path d="M262.16 373.752C261.579 373.752 261.014 374.032 260.603 374.52C260.194 375.007 259.961 375.681 259.961 376.373C259.961 377.061 260.194 377.738 260.603 378.225C261.014 378.713 261.579 378.993 262.16 378.993C262.738 378.993 263.305 378.713 263.714 378.225C264.123 377.738 264.358 377.061 264.358 376.373C264.358 375.684 264.123 375.007 263.714 374.52C263.303 374.032 262.738 373.752 262.16 373.752Z" fill="white"/>
</g>
</g>
<defs>
<filter id="filter0_f_0_2440" x="0.687225" y="0.436249" width="897.873" height="634.341" filterUnits="userSpaceOnUse" color-interpolation-filters="sRGB">
<feFlood flood-opacity="0" result="BackgroundImageFix"/>
<feBlend mode="normal" in="SourceGraphic" in2="BackgroundImageFix" result="shape"/>
<feGaussianBlur stdDeviation="89.8522" result="effect1_foregroundBlur_0_2440"/>
</filter>
<filter id="filter1_d_0_2440" x="165.737" y="171.348" width="567.774" height="304.242" filterUnits="userSpaceOnUse" color-interpolation-filters="sRGB">
<feFlood flood-opacity="0" result="BackgroundImageFix"/>
<feColorMatrix in="SourceAlpha" type="matrix" values="0 0 0 0 0 0 0 0 0 0 0 0 0 0 0 0 0 0 127 0" result="hardAlpha"/>
<feOffset dy="5.86194"/>
<feGaussianBlur stdDeviation="7.32743"/>
<feComposite in2="hardAlpha" operator="out"/>
<feColorMatrix type="matrix" values="0 0 0 0 0.704167 0 0 0 0 0.704167 0 0 0 0 0.704167 0 0 0 0.4 0"/>
<feBlend mode="normal" in2="BackgroundImageFix" result="effect1_dropShadow_0_2440"/>
<feBlend mode="normal" in="SourceGraphic" in2="effect1_dropShadow_0_2440" result="shape"/>
</filter>
<linearGradient id="paint0_linear_0_2440" x1="193.569" y1="175.998" x2="894.385" y2="489.686" gradientUnits="userSpaceOnUse">
<stop stop-color="#00B9AE"/>
<stop offset="0.0001" stop-color="#0076B9"/>
<stop offset="1" stop-color="#00AE3B" stop-opacity="0.62"/>
</linearGradient>
<linearGradient id="paint1_linear_0_2440" x1="114.514" y1="95.2161" x2="740.385" y2="479.367" gradientUnits="userSpaceOnUse">
<stop stop-color="#E4FFE3" stop-opacity="0.68"/>
<stop offset="1" stop-color="#C8C8C8" stop-opacity="0"/>
</linearGradient>
</defs>
</svg>
