<svg width="297" height="221" viewBox="0 0 297 221" fill="none" xmlns="http://www.w3.org/2000/svg">
<path d="M296.225 193.78H0.289062V193.928H296.225V193.78Z" fill="#EBEBEB"/>
<path d="M266.573 203.303H246.97V203.451H266.573V203.303Z" fill="#EBEBEB"/>
<path d="M160.011 201.498H142.125V201.646H160.011V201.498Z" fill="#EBEBEB"/>
<path d="M246.378 197.811H205.012V197.959H246.378V197.811Z" fill="#EBEBEB"/>
<path d="M130.263 198.804H31.3378V198.952H130.263V198.804Z" fill="#EBEBEB"/>
<path d="M139.279 198.805H135.532V198.953H139.279V198.805Z" fill="#EBEBEB"/>
<path d="M140.563 167.382H26.2782C25.3829 167.38 24.5248 167.023 23.8923 166.39C23.2598 165.756 22.9045 164.897 22.9045 164.002V3.35C22.9123 2.45984 23.271 1.6087 23.9027 0.981454C24.5344 0.354211 25.388 0.00152489 26.2782 0H140.563C141.459 0 142.319 0.356063 142.953 0.98986C143.586 1.62366 143.943 2.48327 143.943 3.37959V164.002C143.943 164.898 143.586 165.758 142.953 166.392C142.319 167.026 141.459 167.382 140.563 167.382ZM26.2782 0.118375C25.4222 0.119943 24.6017 0.461107 23.9969 1.06698C23.3922 1.67286 23.0525 2.49394 23.0525 3.35V164.002C23.0525 164.858 23.3922 165.679 23.9969 166.285C24.6017 166.891 25.4222 167.232 26.2782 167.234H140.563C141.42 167.232 142.241 166.891 142.846 166.285C143.452 165.68 143.793 164.859 143.795 164.002V3.35C143.793 2.4934 143.452 1.67233 142.846 1.06662C142.241 0.460915 141.42 0.11994 140.563 0.118375H26.2782Z" fill="#EBEBEB"/>
<path d="M268.59 167.382H154.3C153.404 167.38 152.545 167.023 151.912 166.39C151.278 165.757 150.922 164.898 150.92 164.002V3.35C150.929 2.4593 151.289 1.60816 151.922 0.981084C152.555 0.354004 153.409 0.00150826 154.3 0H268.59C269.479 0.0030804 270.331 0.356455 270.962 0.983531C271.592 1.61061 271.95 2.46086 271.958 3.35V164.002C271.958 164.896 271.603 165.754 270.972 166.388C270.341 167.021 269.484 167.378 268.59 167.382ZM154.3 0.118375C153.443 0.11994 152.622 0.460915 152.016 1.06662C151.41 1.67233 151.07 2.4934 151.068 3.35V164.002C151.07 164.859 151.41 165.68 152.016 166.285C152.622 166.891 153.443 167.232 154.3 167.234H268.59C269.447 167.232 270.268 166.891 270.874 166.285C271.479 165.68 271.82 164.859 271.822 164.002V3.35C271.82 2.4934 271.479 1.67233 270.874 1.06662C270.268 0.460915 269.447 0.11994 268.59 0.118375H154.3Z" fill="#EBEBEB"/>
<path d="M249.042 191.062H262.998V133.574H249.042V191.062Z" fill="#F0F0F0"/>
<path d="M162.486 193.78H260.317V191.069H162.486V193.78Z" fill="#F0F0F0"/>
<path d="M249.042 133.58H159.806V191.069H249.042V133.58Z" fill="#F5F5F5"/>
<path d="M243.548 155.302H165.291V169.341H243.548V155.302Z" fill="#F0F0F0"/>
<path d="M243.548 171.904H165.291V185.944H243.548V171.904Z" fill="#F0F0F0"/>
<path d="M183.995 156.847H224.834C225.09 156.845 225.334 156.743 225.515 156.562C225.695 156.382 225.798 156.137 225.799 155.882C225.798 155.627 225.695 155.383 225.515 155.203C225.334 155.024 225.089 154.923 224.834 154.923H183.995C183.74 154.923 183.496 155.024 183.315 155.203C183.134 155.383 183.032 155.627 183.03 155.882C183.03 156.138 183.132 156.383 183.313 156.564C183.494 156.745 183.739 156.847 183.995 156.847Z" fill="#F5F5F5"/>
<path d="M243.548 138.7H165.291V152.739H243.548V138.7Z" fill="#F0F0F0"/>
<path d="M183.995 140.238H224.834C225.09 140.237 225.334 140.134 225.515 139.954C225.695 139.773 225.798 139.529 225.799 139.273C225.798 139.019 225.695 138.775 225.515 138.595C225.334 138.415 225.089 138.315 224.834 138.315H183.995C183.74 138.315 183.496 138.415 183.315 138.595C183.134 138.775 183.032 139.019 183.03 139.273C183.03 139.529 183.132 139.775 183.313 139.956C183.494 140.136 183.739 140.238 183.995 140.238Z" fill="#F5F5F5"/>
<path d="M183.995 173.419H224.834C225.09 173.417 225.334 173.315 225.515 173.135C225.695 172.954 225.798 172.71 225.799 172.454C225.798 172.199 225.695 171.955 225.515 171.776C225.334 171.596 225.089 171.495 224.834 171.495H183.995C183.74 171.495 183.496 171.596 183.315 171.776C183.134 171.955 183.032 172.199 183.03 172.454C183.03 172.71 183.132 172.955 183.313 173.136C183.494 173.317 183.739 173.419 183.995 173.419Z" fill="#F5F5F5"/>
<path d="M157.946 133.58H249.041V128.857H157.946V133.58Z" fill="#F0F0F0"/>
<path d="M264.951 128.857H249.041V133.58H264.951V128.857Z" fill="#E6E6E6"/>
<path d="M235.043 116.966C235.043 123.536 229.267 128.857 222.164 128.857C215.062 128.857 209.285 123.53 209.285 116.966C209.285 113.09 211.286 108.414 214.417 105.224H229.936C233.037 108.414 235.043 113.09 235.043 116.966Z" fill="#E6E6E6"/>
<path d="M252.877 118.967C252.877 124.43 248.077 128.851 242.17 128.851C236.263 128.851 231.469 124.43 231.469 118.967C231.469 115.747 233.132 111.864 235.73 109.207H248.609C251.208 111.864 252.877 115.753 252.877 118.967Z" fill="#F0F0F0"/>
<path d="M192.872 128.78H203.005L201.75 89.533H192.872V128.78Z" fill="#F0F0F0"/>
<path d="M175.294 128.78H199.957L203.005 83.6791H178.342L175.294 128.78Z" fill="#E6E6E6"/>
<path d="M174.719 128.78H199.382L202.43 83.6791H177.767L174.719 128.78Z" fill="#F0F0F0"/>
<path d="M196.122 123.34L198.258 89.3727C198.274 89.1205 198.239 88.8675 198.153 88.6297C198.068 88.3918 197.934 88.174 197.761 87.9897C197.588 87.8055 197.379 87.6588 197.147 87.5587C196.915 87.4586 196.664 87.4072 196.412 87.4077H182.875C182.405 87.4083 181.952 87.5878 181.609 87.9098C181.266 88.2319 181.059 88.6724 181.029 89.1419L178.886 123.109C178.871 123.362 178.907 123.614 178.993 123.852C179.079 124.089 179.212 124.307 179.385 124.491C179.558 124.675 179.767 124.821 179.999 124.922C180.231 125.022 180.48 125.074 180.733 125.075H194.275C194.745 125.073 195.197 124.893 195.539 124.571C195.882 124.249 196.09 123.809 196.122 123.34Z" fill="white"/>
<path d="M130.258 31.3398H42.1816V143.429H130.258V31.3398Z" fill="#E6E6E6"/>
<path d="M129.169 31.3397H41.0927V143.429H129.169V31.3397Z" fill="#FAFAFA"/>
<path d="M126.708 140.967V33.8081L43.5617 33.8081V140.967H126.708Z" fill="white"/>
<path d="M96.2283 121.633C97.2229 115.506 93.062 109.732 86.9347 108.738C80.8074 107.743 75.034 111.904 74.0394 118.031C73.0448 124.159 77.2057 129.932 83.333 130.927C89.4603 131.921 95.2337 127.76 96.2283 121.633Z" fill="#FAFAFA"/>
<path d="M89.427 97.7692C95.162 95.3937 97.8854 88.8189 95.5098 83.0839C93.1343 77.3489 86.5595 74.6255 80.8245 77.001C75.0895 79.3765 72.3662 85.9514 74.7417 91.6863C77.1172 97.4213 83.692 100.145 89.427 97.7692Z" fill="#EBEBEB"/>
<path d="M96.2272 56.7557C97.2218 50.6284 93.0609 44.855 86.9336 43.8604C80.8063 42.8658 75.0329 47.0266 74.0383 53.1539C73.0437 59.2812 77.2046 65.0547 83.3319 66.0493C89.4592 67.0439 95.2326 62.883 96.2272 56.7557Z" fill="#E0E0E0"/>
<path d="M215.6 65.3963C230.277 65.3963 242.176 53.4982 242.176 38.8212C242.176 24.1442 230.277 12.2461 215.6 12.2461C200.923 12.2461 189.025 24.1442 189.025 38.8212C189.025 53.4982 200.923 65.3963 215.6 65.3963Z" fill="#E0E0E0"/>
<path d="M214.748 65.3962C229.425 65.3962 241.323 53.4981 241.323 38.8211C241.323 24.1441 229.425 12.246 214.748 12.246C200.071 12.246 188.173 24.1441 188.173 38.8211C188.173 53.4981 200.071 65.3962 214.748 65.3962Z" fill="#F0F0F0"/>
<path d="M237.99 38.8208C237.996 44.3181 236.055 49.6398 232.511 53.8421C228.967 58.0444 224.049 60.8557 218.629 61.7774C213.21 62.6991 207.639 61.6716 202.905 58.8772C198.171 56.0827 194.58 51.7019 192.768 46.5118C190.957 41.3216 191.042 35.6576 193.008 30.5242C194.975 25.3908 198.696 21.1199 203.512 18.4689C208.328 15.8179 213.927 14.9582 219.316 16.0423C224.706 17.1263 229.537 20.0841 232.953 24.391L233.018 24.4679C236.247 28.5543 237.999 33.6127 237.99 38.8208Z" fill="#FAFAFA"/>
<path d="M216.914 37.9633C217.058 38.2456 217.117 38.5632 217.084 38.8782C217.052 39.1931 216.929 39.492 216.731 39.7389L208.036 50.6531C207.906 50.8345 207.74 50.9875 207.549 51.103C207.358 51.2185 207.145 51.294 206.924 51.325C206.703 51.3559 206.478 51.3417 206.262 51.2831C206.047 51.2246 205.845 51.1229 205.67 50.9842C205.495 50.8456 205.35 50.6729 205.243 50.4765C205.137 50.2802 205.072 50.0643 205.051 49.8419C205.03 49.6195 205.055 49.3952 205.124 49.1826C205.192 48.9701 205.303 48.7736 205.45 48.6052L213.144 38.8985L207.012 33.4947C206.84 33.3542 206.698 33.1804 206.594 32.9836C206.491 32.7869 206.428 32.5713 206.41 32.3497C206.392 32.1282 206.419 31.9052 206.489 31.6942C206.559 31.4833 206.671 31.2886 206.818 31.122C206.965 30.9553 207.144 30.8201 207.345 30.7244C207.546 30.6286 207.764 30.5744 207.986 30.565C208.208 30.5555 208.429 30.591 208.638 30.6693C208.846 30.7476 209.036 30.8671 209.196 31.0207L216.5 37.4602C216.67 37.5987 216.811 37.7698 216.914 37.9633Z" fill="#E0E0E0"/>
<path d="M148.258 220.507C211.637 220.507 263.016 217.508 263.016 213.807C263.016 210.107 211.637 207.107 148.258 207.107C84.879 207.107 33.5 210.107 33.5 213.807C33.5 217.508 84.879 220.507 148.258 220.507Z" fill="#F5F5F5"/>
<path d="M210.417 216.003H86.0996L90.296 210.901H206.22L210.417 216.003Z" fill="#04DC5C"/>
<path opacity="0.6" d="M210.417 216.003H86.0996L90.296 210.901H206.22L210.417 216.003Z" fill="white"/>
<path d="M106.858 170.703C124.492 170.257 135.933 183.691 135.933 183.691C134.204 189.195 133.096 193.315 133.096 193.315C123.452 191.491 112.484 190.755 103.454 188.405C95.3018 186.284 94.4509 175.269 95.3491 170.642C96.2474 166.016 100.874 164.935 105.426 163.429C110.619 161.707 120.521 161.572 127.619 161.545C135.102 161.545 144.936 162.22 150.028 163.368C150.028 163.368 160.834 162.889 168.864 163.024C173.552 162.234 170.728 169.872 163.286 176.383C159.61 179.638 155.258 182.039 150.544 183.411C145.829 184.783 140.869 185.093 136.021 184.319H135.96" fill="#263238"/>
<path d="M191.672 170.703C174.038 170.257 158.39 183.691 158.39 183.691C160.119 189.195 161.226 193.315 161.226 193.315C170.871 191.491 186.047 190.755 195.076 188.405C203.235 186.284 204.079 175.269 203.181 170.642C202.283 166.016 197.656 164.935 193.104 163.429C187.911 161.707 178.009 161.572 170.911 161.545C163.428 161.545 153.594 162.22 148.502 163.368C148.502 163.368 137.696 162.889 129.672 163.024C124.978 162.234 127.802 169.872 135.244 176.383C138.916 179.634 143.262 182.031 147.971 183.403C152.679 184.775 157.632 185.088 162.476 184.319H162.536" fill="#263238"/>
<path d="M136.014 122.86C134.488 128.065 132.878 133.243 131.185 138.394C130.341 140.973 129.483 143.547 128.592 146.113C127.7 148.68 126.836 151.226 125.849 153.819L125.728 154.143L125.566 154.535C125.458 154.792 125.336 155.035 125.215 155.278C124.97 155.73 124.699 156.167 124.404 156.588C123.865 157.343 123.252 158.042 122.574 158.675C121.384 159.778 120.083 160.754 118.69 161.586C116.167 163.077 113.508 164.323 110.748 165.307C105.481 167.206 100.041 168.584 94.505 169.421L93.4717 165.044C95.9301 164.166 98.4628 163.234 100.901 162.221C103.339 161.208 105.757 160.195 108.06 159.02C110.308 157.939 112.461 156.672 114.496 155.231C116.401 153.88 117.92 152.185 118.076 151.178L122.587 135.692C124.114 130.512 125.681 125.332 127.315 120.158L136.014 122.86Z" fill="#CE7A63"/>
<path d="M95.2365 165.26L86.9901 163.166L90.9208 171.095C90.9208 171.095 96.513 171.339 98.35 168.225L95.2365 165.26Z" fill="#CE7A63"/>
<path d="M153.615 66.5526C150.657 64.4116 145.794 62.6151 143.835 65.8772C141.877 69.1393 140.188 76.0079 136.926 77.6693C133.664 79.3308 129.781 85.9968 131.915 91.8524C134.049 97.7079 125.614 96.1275 125.161 105.022C124.709 113.917 137.372 118.415 145.369 114.025C153.365 109.635 158.991 86.7262 158.484 77.6693C157.978 68.6125 153.615 66.5526 153.615 66.5526Z" fill="#263238"/>
<path d="M149.899 66.1613C149.899 66.1613 154.235 59.5763 162.218 62.9735C171.539 66.938 168.614 71.2131 170.323 80.2498C172.032 89.2864 182.446 90.9005 181.973 103.476C181.169 124.892 162.218 120.921 156.984 115.235C151.75 109.548 157.545 88.6718 157.545 88.6718L149.899 66.1613Z" fill="#263238"/>
<path d="M80.3026 166.28L83.9564 172.743L90.9129 171.197L86.9754 163.268L80.3026 166.28Z" fill="#CE7A63"/>
<path d="M130.281 110.608C126.695 111.526 124.203 126.29 124.203 126.29L134.091 133.044C134.091 133.044 143.546 118.145 140.844 114.201C137.92 110.06 135.522 109.277 130.281 110.608Z" fill="#04DC5C"/>
<path opacity="0.2" d="M129.955 115.977L137.64 117.76L138.377 125.27C137.071 127.914 135.633 130.49 134.068 132.989L128.07 128.937C128.327 125.486 128.982 118.313 129.955 115.977Z" fill="black"/>
<path d="M130.281 110.608C130.281 110.608 126.161 112.053 134.441 163.166H169.811C169.217 148.774 169.196 139.899 176.078 110.358C171.126 109.334 166.106 108.673 161.058 108.379C155.108 108.089 150.252 107.9 145.004 108.379C138.102 109.007 130.281 110.608 130.281 110.608Z" fill="#04DC5C"/>
<path opacity="0.2" d="M167.756 124.074L172.322 127.958C171.343 133.124 170.694 137.413 170.296 141.256C169.418 137.42 167.25 127.005 167.756 124.074Z" fill="black"/>
<path d="M159.473 90.2988C158.46 95.4655 157.446 104.928 161.06 108.379C161.06 108.379 157.683 116.119 148.734 116.119C139.785 116.119 145.006 108.379 145.006 108.379C150.767 107.028 150.618 102.726 149.612 98.7141L159.473 90.2988Z" fill="#CE7A63"/>
<path d="M161.059 108.379C155.109 108.089 150.253 107.9 144.998 108.379C142.513 108.602 139.913 108.953 137.603 109.311C136.077 112.074 130.018 124.494 144.884 124.494C160.471 124.494 166.969 110.838 167.779 108.96C165.692 108.717 163.382 108.494 161.059 108.379Z" fill="#CE7A63"/>
<path opacity="0.2" d="M155.453 93.7305L149.618 98.7081C149.862 99.6425 150.027 100.596 150.111 101.558C152.313 101.241 155.338 98.8229 155.568 96.5198C155.699 95.5908 155.66 94.6457 155.453 93.7305Z" fill="black"/>
<path d="M166.278 80.5329C164.658 89.0224 164.137 92.6492 159.254 96.4786C151.906 102.246 141.836 98.39 140.898 89.583C140.053 81.6608 142.863 69.1122 151.704 66.7889C153.642 66.2736 155.681 66.2619 157.625 66.7546C159.57 67.2474 161.357 68.2283 162.816 69.6046C164.276 70.981 165.36 72.707 165.966 74.6194C166.571 76.5318 166.679 78.5672 166.278 80.5329Z" fill="#CE7A63"/>
<path d="M151.152 65.878C148.106 67.5867 150.125 70.6057 155.623 72.7466C161.12 74.8876 161.451 75.2793 160.553 79.7233C159.655 84.1673 167.665 88.2804 167.766 83.6878C167.867 79.0952 169.502 70.3828 165.227 67.9582C160.951 65.5335 154.373 64.1017 151.152 65.878Z" fill="#263238"/>
<path d="M150.691 68.0181C147.99 68.8893 141.85 75.5553 142.303 73.3604C142.755 71.1654 143.904 68.1261 147.145 67.005C148.677 66.3976 150.287 66.0088 151.927 65.8501L150.691 68.0181Z" fill="#263238"/>
<path d="M167.887 87.6648C167.091 89.1291 165.768 90.2352 164.186 90.7581C162.085 91.4335 161.025 89.6167 161.599 87.6311C162.119 85.8413 163.828 83.3356 165.942 83.5248C168.055 83.7139 168.839 85.8683 167.887 87.6648Z" fill="#CE7A63"/>
<path d="M134.057 192.309L137.292 183.076C137.413 182.739 138.811 183.623 139.156 183.691C139.156 183.691 144.228 183.015 146.247 183.583C148.267 184.15 148.179 185.447 147.807 186.825C146.95 190.026 145.565 190.634 144.674 194.875C144.127 197.462 143.681 199.846 140.851 202.304C138.15 204.648 135.556 204.506 136.623 201.629C139.19 194.767 137.974 195.787 136.353 193.234C136.056 192.802 133.881 192.795 134.057 192.309Z" fill="#CE7A63"/>
<path d="M159.478 192.309L156.236 183.077C156.114 182.739 154.716 183.624 154.372 183.691C154.372 183.691 149.3 183.016 147.28 183.583C145.261 184.15 145.349 185.447 145.72 186.825C146.578 190.026 147.963 190.634 148.854 194.875C149.401 197.462 149.847 199.846 152.677 202.305C155.378 204.648 157.972 204.506 156.905 201.629C154.338 194.767 155.554 195.787 157.175 193.234C157.472 192.802 159.647 192.795 159.478 192.309Z" fill="#CE7A63"/>
<path d="M135.162 194.511L138.424 182.266L134.128 180.49L128.07 193.64L135.162 194.511Z" fill="#04DC5C"/>
<path d="M158.612 194.766L153.486 182.387L157.45 180.759L165.481 192.801L158.612 194.766Z" fill="#04DC5C"/>
<path d="M146.895 81.229C146.895 81.229 145.328 84.0724 143.836 85.3488C144.646 86.3281 146.26 86.139 146.26 86.139L146.895 81.229Z" fill="#BA4D3C"/>
<path d="M148.388 89.7649H148.442C149.974 89.8927 151.496 89.4286 152.697 88.4682C152.722 88.4429 152.735 88.409 152.735 88.3736C152.735 88.3383 152.722 88.3043 152.697 88.2791C152.672 88.2543 152.638 88.2405 152.602 88.2405C152.567 88.2405 152.533 88.2543 152.508 88.2791C151.359 89.1824 149.913 89.6233 148.455 89.515C148.426 89.5135 148.398 89.5214 148.374 89.5374C148.35 89.5534 148.331 89.5768 148.321 89.6041C148.311 89.6313 148.311 89.661 148.319 89.6888C148.327 89.7165 148.344 89.7408 148.368 89.7582L148.388 89.7649Z" fill="#263238"/>
<path d="M156.107 77.8848C156.145 77.9061 156.188 77.9172 156.232 77.9172C156.275 77.9172 156.318 77.9061 156.357 77.8848C156.386 77.8662 156.411 77.842 156.431 77.8136C156.451 77.7852 156.465 77.7532 156.473 77.7193C156.481 77.6854 156.481 77.6503 156.475 77.6161C156.469 77.5819 156.456 77.5493 156.438 77.5201C156.118 76.9771 155.671 76.5196 155.136 76.1868C154.601 75.8539 153.993 75.6556 153.365 75.6087C153.327 75.6026 153.289 75.6048 153.252 75.6151C153.215 75.6253 153.181 75.6435 153.152 75.6682C153.123 75.6929 153.1 75.7237 153.084 75.7583C153.068 75.7929 153.059 75.8306 153.059 75.8687C153.059 75.9069 153.068 75.9446 153.084 75.9792C153.1 76.0138 153.123 76.0446 153.152 76.0693C153.181 76.094 153.215 76.1122 153.252 76.1224C153.289 76.1327 153.327 76.1349 153.365 76.1288C153.905 76.1798 154.425 76.3582 154.883 76.6494C155.341 76.9405 155.723 77.3361 155.999 77.8037C156.028 77.8387 156.065 77.8664 156.107 77.8848Z" fill="#263238"/>
<path d="M150.212 80.2561C150.157 80.2451 150.099 80.2522 150.048 80.2765C149.997 80.3008 149.955 80.341 149.928 80.391C149.902 80.4411 149.892 80.4983 149.9 80.5543C149.909 80.6103 149.935 80.662 149.976 80.7018C150.413 81.1558 150.953 81.4986 151.55 81.7019C152.146 81.9051 152.783 81.9628 153.407 81.8702C153.475 81.8541 153.535 81.8119 153.572 81.7526C153.61 81.6934 153.624 81.6217 153.609 81.5528C153.595 81.4849 153.554 81.4255 153.496 81.3876C153.438 81.3496 153.367 81.3362 153.299 81.3502C152.761 81.4275 152.213 81.3753 151.699 81.1979C151.186 81.0205 150.722 80.7231 150.347 80.3304C150.31 80.293 150.263 80.2672 150.212 80.2561Z" fill="#263238"/>
<path d="M140.924 79.2966C140.882 79.2865 140.838 79.2874 140.797 79.2993C140.755 79.3111 140.718 79.3334 140.688 79.3641C140.638 79.4146 140.61 79.4825 140.61 79.5532C140.61 79.6239 140.638 79.6918 140.688 79.7423C141.125 80.196 141.665 80.5382 142.262 80.7403C142.859 80.9424 143.495 80.9985 144.119 80.904C144.186 80.8894 144.246 80.8485 144.284 80.7904C144.322 80.7322 144.335 80.6613 144.321 80.5933C144.305 80.5249 144.263 80.4654 144.204 80.4276C144.144 80.3897 144.073 80.3765 144.004 80.3907C143.466 80.4689 142.918 80.4164 142.406 80.2377C141.893 80.059 141.431 79.7593 141.059 79.3641C141.021 79.3298 140.974 79.3065 140.924 79.2966Z" fill="#263238"/>
<path d="M141.694 75.2985C141.735 75.3229 141.782 75.3357 141.829 75.3357C141.877 75.3357 141.924 75.3229 141.964 75.2985C142.381 74.9482 142.876 74.7038 143.408 74.5862C143.939 74.4686 144.492 74.4813 145.017 74.6231C145.083 74.645 145.156 74.6403 145.219 74.6101C145.282 74.5798 145.33 74.5264 145.355 74.461C145.367 74.4282 145.372 74.3934 145.37 74.3586C145.368 74.3238 145.359 74.2897 145.344 74.2583C145.329 74.2269 145.308 74.1988 145.282 74.1756C145.256 74.1524 145.226 74.1347 145.193 74.1233C144.585 73.9524 143.946 73.9294 143.328 74.0563C142.71 74.1832 142.131 74.4563 141.64 74.8527C141.613 74.8739 141.589 74.9003 141.572 74.9305C141.555 74.9607 141.543 74.994 141.539 75.0286C141.535 75.0631 141.537 75.0982 141.546 75.1318C141.556 75.1653 141.571 75.1968 141.593 75.2242C141.619 75.2581 141.654 75.2839 141.694 75.2985Z" fill="#263238"/>
<path d="M170.337 161.093L170.621 164.254C170.743 164.504 170.452 164.754 170.047 164.754H134.265C133.948 164.754 133.684 164.598 133.664 164.396L133.347 161.228C133.347 161.012 133.603 160.823 133.948 160.823H169.743C169.857 160.81 169.973 160.828 170.078 160.876C170.182 160.923 170.272 160.998 170.337 161.093Z" fill="#04DC5C"/>
<path opacity="0.3" d="M170.337 161.093L170.621 164.254C170.743 164.504 170.452 164.754 170.047 164.754H134.265C133.948 164.754 133.684 164.598 133.664 164.396L133.347 161.228C133.347 161.012 133.603 160.823 133.948 160.823H169.743C169.857 160.81 169.973 160.828 170.078 160.876C170.182 160.923 170.272 160.998 170.337 161.093Z" fill="black"/>
<path d="M165.529 165.097H166.488C166.677 165.097 166.825 164.996 166.812 164.875L166.359 160.762C166.359 160.64 166.184 160.545 165.988 160.545H165.029C164.84 160.545 164.691 160.64 164.705 160.762L165.157 164.875C165.171 164.996 165.333 165.097 165.529 165.097Z" fill="#263238"/>
<path d="M136.967 165.097H137.926C138.115 165.097 138.257 164.996 138.244 164.875L137.798 160.762C137.798 160.64 137.616 160.545 137.427 160.545H136.467C136.278 160.545 136.13 160.64 136.143 160.762L136.596 164.875C136.609 164.996 136.771 165.097 136.967 165.097Z" fill="#263238"/>
<path d="M151.244 165.097H152.203C152.398 165.097 152.54 164.996 152.527 164.875L152.081 160.762C152.081 160.64 151.899 160.545 151.71 160.545H150.751C150.555 160.545 150.413 160.64 150.426 160.762L150.872 164.875C150.886 164.996 151.054 165.097 151.244 165.097Z" fill="#263238"/>
<path d="M179.219 120.833L182.117 136.448C182.61 139.042 183.11 141.628 183.636 144.188C183.893 145.465 184.19 146.728 184.467 147.977L184.913 149.821L185.345 151.401C185.62 152.109 186.046 152.747 186.595 153.272C187.359 154.052 188.193 154.759 189.087 155.386C191.116 156.788 193.252 158.027 195.476 159.094C197.759 160.228 200.143 161.262 202.554 162.248C204.965 163.234 207.457 164.159 209.875 165.03L208.842 169.407C203.379 168.577 198.009 167.22 192.808 165.355C190.09 164.393 187.466 163.186 184.967 161.748C183.602 160.948 182.317 160.019 181.131 158.972C179.674 157.717 178.52 156.15 177.754 154.386L177.599 154.001L177.497 153.711L177.315 153.198L176.957 152.158L176.329 150.132C175.933 148.781 175.566 147.452 175.228 146.147C174.53 143.508 173.897 140.87 173.33 138.231C172.155 132.95 171.149 127.689 170.284 122.346L179.219 120.833Z" fill="#CE7A63"/>
<path d="M176.716 109.958C180.262 111.031 184.652 122.432 184.652 122.432L170.901 132.265C170.901 132.265 165.754 122.878 167.247 118.299C168.794 113.53 172.67 108.728 176.716 109.958Z" fill="#04DC5C"/>
<path d="M208.118 165.26L216.378 163.167L212.441 171.096C212.441 171.096 206.855 171.339 205.012 168.225L208.118 165.26Z" fill="#CE7A63"/>
<path d="M223.052 166.28L219.398 172.743L212.441 171.197L216.379 163.268L223.052 166.28Z" fill="#CE7A63"/>
</svg>
