<svg width="252" height="202" viewBox="0 0 252 202" fill="none" xmlns="http://www.w3.org/2000/svg">
<path d="M146.679 140.412C146.726 140.455 146.771 140.499 146.813 140.546L147.196 140.943L148.673 142.507L154.247 148.477L173.995 169.77H173.767L196.167 144.112L196.322 143.937L196.449 144.132L198.081 146.59L215.03 172.106L214.795 172.066L231.085 159.053L231.179 158.979L231.259 159.066L243.695 173.167L247.053 177.015L247.926 178.022C248.12 178.25 248.214 178.371 248.214 178.371C248.214 178.371 248.1 178.264 247.899 178.049L247.013 177.015L243.588 173.214L231.071 159.214H231.246L214.996 172.315L214.862 172.422L214.761 172.274L197.792 146.798L196.154 144.334H196.429C188.277 153.667 180.609 162.43 174.002 169.991L173.888 170.119L173.773 169.991C165.662 161.168 158.873 153.795 154.112 148.611L148.606 142.568L147.162 140.969C147.008 140.788 146.887 140.654 146.793 140.553C146.699 140.452 146.672 140.419 146.679 140.412Z" fill="#212121"/>
<path d="M171.678 169.944C171.674 170.411 171.809 170.868 172.066 171.258C172.322 171.647 172.689 171.952 173.119 172.132C173.55 172.312 174.024 172.361 174.482 172.271C174.939 172.18 175.36 171.956 175.69 171.626C176.02 171.296 176.244 170.876 176.334 170.418C176.424 169.96 176.376 169.486 176.196 169.056C176.015 168.626 175.711 168.259 175.321 168.002C174.932 167.745 174.475 167.61 174.008 167.614C173.391 167.618 172.8 167.865 172.364 168.301C171.928 168.737 171.681 169.328 171.678 169.944Z" fill="#00B349"/>
<path d="M212.819 172.744C212.821 173.21 212.962 173.663 213.223 174.049C213.483 174.434 213.853 174.733 214.283 174.908C214.714 175.083 215.187 175.127 215.643 175.033C216.099 174.939 216.516 174.712 216.843 174.381C217.169 174.05 217.39 173.629 217.477 173.172C217.565 172.715 217.514 172.243 217.333 171.815C217.152 171.386 216.847 171.021 216.458 170.766C216.07 170.511 215.614 170.377 215.149 170.381C214.527 170.386 213.932 170.638 213.495 171.081C213.058 171.524 212.815 172.122 212.819 172.744Z" fill="#00B349"/>
<path d="M228.822 159.805C228.826 160.269 228.968 160.721 229.229 161.104C229.489 161.487 229.858 161.784 230.288 161.958C230.717 162.131 231.189 162.174 231.643 162.079C232.097 161.985 232.512 161.758 232.837 161.428C233.162 161.097 233.382 160.678 233.468 160.222C233.555 159.767 233.504 159.296 233.323 158.87C233.142 158.443 232.839 158.079 232.451 157.825C232.063 157.571 231.609 157.438 231.146 157.442C230.525 157.449 229.932 157.701 229.497 158.144C229.061 158.587 228.819 159.184 228.822 159.805Z" fill="#00B349"/>
<path d="M193.951 144.428C193.954 144.893 194.095 145.347 194.355 145.732C194.616 146.117 194.985 146.416 195.416 146.591C195.847 146.766 196.32 146.81 196.776 146.716C197.231 146.622 197.649 146.395 197.975 146.064C198.302 145.733 198.523 145.312 198.61 144.855C198.697 144.399 198.647 143.926 198.466 143.498C198.284 143.069 197.98 142.705 197.591 142.449C197.202 142.194 196.746 142.06 196.281 142.064C195.659 142.069 195.065 142.321 194.628 142.764C194.191 143.207 193.948 143.806 193.951 144.428Z" fill="#00B349"/>
<path d="M246.361 178.439C246.363 178.904 246.504 179.358 246.765 179.743C247.025 180.128 247.394 180.427 247.825 180.602C248.256 180.778 248.729 180.821 249.185 180.727C249.64 180.633 250.058 180.407 250.384 180.075C250.711 179.744 250.932 179.323 251.019 178.867C251.106 178.41 251.056 177.937 250.875 177.509C250.693 177.081 250.389 176.716 250 176.461C249.611 176.205 249.156 176.071 248.691 176.075C248.068 176.081 247.474 176.332 247.037 176.776C246.6 177.219 246.357 177.817 246.361 178.439Z" fill="#00B349"/>
<path d="M40.523 0.615265H25.4347V60.6261H40.523V0.615265Z" fill="#212121"/>
<path d="M62.7172 13.703H47.6289V60.6199H62.7172V13.703Z" fill="#212121"/>
<path d="M85.2507 24.4199H70.1624V60.6198H85.2507V24.4199Z" fill="#212121"/>
<path d="M106.115 39.1257H91.0264V60.6267H106.115V39.1257Z" fill="#212121"/>
<path d="M87.7956 153.923C93.0157 148.445 100.177 145.236 107.74 144.985C115.302 144.734 122.661 147.461 128.233 152.58C130.97 155.103 133.179 158.144 134.732 161.526C136.285 164.909 137.152 168.566 137.281 172.287C137.41 176.007 136.8 179.715 135.485 183.198C134.171 186.68 132.178 189.867 129.623 192.574C124.403 198.051 117.241 201.261 109.679 201.512C102.116 201.763 94.7576 199.036 89.1856 193.917C86.4485 191.394 84.2393 188.353 82.6861 184.97C81.1329 181.588 80.2665 177.93 80.1372 174.21C80.0079 170.49 80.6183 166.781 81.9329 163.299C83.2475 159.816 85.2403 156.63 87.7956 153.923ZM118.684 182.488C119.909 181.195 120.865 179.67 121.495 178.004C122.125 176.338 122.417 174.562 122.355 172.782C122.292 171.002 121.876 169.251 121.131 167.633C120.385 166.015 119.325 164.562 118.013 163.357C115.346 160.913 111.825 159.613 108.209 159.739C104.593 159.864 101.171 161.405 98.6804 164.029C97.4554 165.322 96.4999 166.847 95.8697 168.513C95.2395 170.179 94.9471 171.954 95.0096 173.735C95.0721 175.515 95.4882 177.265 96.2337 178.884C96.9792 180.502 98.0392 181.955 99.3519 183.16C102.019 185.61 105.543 186.913 109.162 186.788C112.782 186.662 116.207 185.118 118.697 182.488H118.684Z" fill="#F5F5F5"/>
<path d="M87.7954 153.923C93.0155 148.445 100.177 145.236 107.739 144.985C115.302 144.734 122.66 147.461 128.232 152.58L118.039 163.378C115.372 160.933 111.852 159.633 108.236 159.759C104.62 159.884 101.198 161.425 98.7071 164.049C97.4821 165.343 96.5266 166.867 95.8964 168.533C95.2662 170.199 94.9738 171.975 95.0363 173.755C95.0988 175.535 95.5149 177.286 96.2604 178.904C97.0059 180.522 98.0659 181.975 99.3786 183.18L89.172 193.937C86.4328 191.413 84.2221 188.37 82.6683 184.985C81.1144 181.6 80.2483 177.94 80.1203 174.218C79.9922 170.495 80.6047 166.784 81.9223 163.301C83.2398 159.817 85.2362 156.629 87.7954 153.923Z" fill="#00B349"/>
<path d="M127.065 147.939C141.167 160.986 142.879 182.185 129.684 196.179L115.361 183.83C121.667 177.149 123.037 168.225 116.288 161.987L127.065 147.939Z" fill="#EBEBEB"/>
<path d="M113.87 184.717L122.378 201.544C125.896 200.255 129.066 198.165 131.638 195.441L116.355 183.099L113.87 184.717Z" fill="#00B349"/>
<path d="M69.504 163.095L193.931 162.202V163.948L69.504 165.063V163.095Z" fill="#263238"/>
<path d="M66.7902 36.5937L69.6238 164.136L193.93 163.169V34.4517L66.7902 36.5937Z" fill="#FAFAFA"/>
<path d="M66.7918 36.5935L193.931 34.3037H194.086V34.4582C194.086 71.3027 194.086 114.781 194.086 161.168V163.35H193.911L69.6053 164.297H69.4576V164.149C67.8527 87.7071 66.8052 37.9096 66.7716 36.6002C66.7716 37.8895 67.9669 87.7071 69.753 164.136L69.6053 163.988L193.911 163.001L193.736 163.176V161.161C193.736 114.775 193.736 71.296 193.736 34.4515L193.891 34.6059L66.7918 36.5935Z" fill="#263238"/>
<path d="M66.2941 37.4465L194.474 36.7146L194.635 31.336L66.2941 32.135V37.4465Z" fill="#263238"/>
<path d="M127.654 167.614C127.439 167.614 127.211 166.614 127.15 165.365C127.09 164.116 127.224 163.095 127.439 163.082C127.654 163.068 127.882 164.076 127.943 165.325C128.003 166.574 127.876 167.614 127.654 167.614Z" fill="#263238"/>
<path d="M127.607 166.694C127.607 166.647 127.822 166.634 128.158 166.768C128.36 166.854 128.55 166.967 128.722 167.104C128.953 167.29 129.147 167.518 129.293 167.775C129.492 168.132 129.592 168.536 129.582 168.944C129.573 169.353 129.454 169.752 129.239 170.099C129.11 170.308 128.946 170.494 128.755 170.649C128.556 170.81 128.328 170.93 128.084 171.005C127.565 171.149 127.012 171.108 126.519 170.891C126.27 170.78 126.043 170.626 125.848 170.435C125.654 170.243 125.501 170.015 125.398 169.763C125.212 169.305 125.172 168.801 125.284 168.319C125.366 167.918 125.56 167.548 125.842 167.251C126.125 166.954 126.485 166.743 126.882 166.641C127.39 166.502 127.931 166.549 128.406 166.775C128.729 166.936 128.849 167.104 128.823 167.144C128.796 167.185 128.614 167.144 128.306 167.064C127.885 166.985 127.451 167.022 127.05 167.171C126.792 167.272 126.561 167.433 126.378 167.641C126.169 167.887 126.032 168.186 125.983 168.505C125.935 168.824 125.976 169.151 126.103 169.447C126.249 169.766 126.511 170.018 126.835 170.153C127.158 170.297 127.52 170.328 127.862 170.24C128.177 170.158 128.45 169.962 128.628 169.689C128.803 169.432 128.907 169.133 128.93 168.823C128.95 168.683 128.95 168.54 128.93 168.4C128.908 168.268 128.87 168.14 128.816 168.017C128.644 167.622 128.373 167.278 128.03 167.017C127.782 166.842 127.607 166.748 127.607 166.694Z" fill="#263238"/>
<path d="M146.1 106.388C146.1 106.388 146.1 106.388 146.019 106.388H145.791L144.905 106.428L141.487 106.576L128.917 107.046C118.3 107.435 103.628 107.952 87.432 108.51L81.8587 108.698H81.7311V108.57C80.603 93.7504 79.5823 80.4684 78.8773 70.9198C78.5281 66.1522 78.2528 62.3181 78.0581 59.6791C77.9708 58.3361 77.8969 57.3356 77.8499 56.644C77.8499 56.2948 77.8096 56.0329 77.8029 55.8516C77.7962 55.6703 77.8029 55.6972 77.8029 55.6502C77.8029 55.6032 77.8029 55.583 77.8029 55.583C77.806 55.6053 77.806 55.6279 77.8029 55.6502C77.8029 55.6972 77.8029 55.7643 77.8029 55.8516C77.8029 55.9389 77.8432 56.2948 77.8768 56.6373C77.9305 57.3088 78.0178 58.3496 78.1319 59.6724C78.3401 62.3113 78.649 66.1455 79.0317 70.8997C79.7838 80.4214 80.8179 93.6698 81.9594 108.55L81.8251 108.429L87.3985 108.234C103.595 107.684 118.287 107.194 128.883 106.858L141.46 106.468L144.878 106.374H145.764H146.073L146.1 106.388Z" fill="#455A64"/>
<path d="M101.091 51.4536V53.1659L118.805 52.3198V50.8828L101.091 51.4536Z" fill="#263238"/>
<path d="M87.6803 104.924H93.8378L92.8709 88.2111H86.8342L87.6803 104.924Z" fill="#FAFAFA"/>
<path d="M98.8414 104.931H104.992L104.032 81.5703H97.9954L98.8414 104.931Z" fill="#FAFAFA"/>
<path d="M109.289 104.186H115.446L114.479 73.5996H108.449L109.289 104.186Z" fill="#FAFAFA"/>
<path d="M133.262 102.997H139.413L138.453 61.3111H132.416L133.262 102.997Z" fill="#FAFAFA"/>
<path d="M121.598 103.138H127.749L126.782 67.2676H120.752L121.598 103.138Z" fill="#FAFAFA"/>
<path d="M83.8131 83.8799C83.652 83.6314 94.651 76.2988 108.369 67.5023C122.088 58.7058 133.355 51.7761 133.517 52.0581C133.678 52.3401 122.679 59.6392 108.954 68.4357C95.2284 77.2322 83.9609 84.1283 83.8131 83.8799Z" fill="#FAFAFA"/>
<path d="M127.425 52.0313C127.372 51.7358 131.354 50.742 136.336 49.8019L137.598 49.5669L136.88 50.6346L136.84 50.695C133.993 54.9254 131.468 58.2224 131.233 58.0814C130.998 57.9404 133.1 54.3546 135.933 50.1175L135.973 50.0571L136.524 50.8898C131.548 51.7963 127.479 52.32 127.425 52.0313Z" fill="#FAFAFA"/>
<path d="M86.8342 110.572H93.2671L93.4685 111.713H86.8342V110.572Z" fill="#263238"/>
<path d="M98.2238 110.102H104.657L104.858 111.243H98.2238V110.102Z" fill="#263238"/>
<path d="M109.947 109.766H116.38L116.582 110.907H109.947V109.766Z" fill="#263238"/>
<path d="M120.932 109.49H127.365L127.566 110.638H120.932V109.49Z" fill="#263238"/>
<path d="M134.544 109.087H140.977L141.178 110.236H134.544V109.087Z" fill="#263238"/>
<path d="M163.398 154.6C174.739 154.6 183.933 145.407 183.933 134.066C183.933 122.726 174.739 113.532 163.398 113.532C152.058 113.532 142.864 122.726 142.864 134.066C142.864 145.407 152.058 154.6 163.398 154.6Z" fill="#FAFAFA"/>
<path opacity="0.3" d="M163.398 154.6C174.739 154.6 183.933 145.407 183.933 134.066C183.933 122.726 174.739 113.532 163.398 113.532C152.058 113.532 142.864 122.726 142.864 134.066C142.864 145.407 152.058 154.6 163.398 154.6Z" fill="black"/>
<path d="M163.397 134.04L143.367 138.546C140.144 123.773 152.056 113.506 163.397 113.506" fill="#FAFAFA"/>
<path d="M163.423 134.04L163.289 113.506C178.411 113.506 185.905 127.332 183.488 138.411L163.423 134.04Z" fill="#FAFAFA"/>
<path d="M163.423 134.04L163.289 113.506C178.411 113.506 185.905 127.332 183.488 138.411L163.423 134.04Z" fill="#FAFAFA"/>
<path opacity="0.1" d="M163.423 134.04L163.289 113.506C178.411 113.506 185.905 127.332 183.488 138.411L163.423 134.04Z" fill="black"/>
<path d="M184.462 85.4442C184.063 85.1775 183.638 84.9525 183.193 84.7727C181.953 84.3934 180.622 84.4311 179.406 84.8801C177.834 85.3703 176.276 86.6193 174.766 88.1839C173.255 89.7484 171.636 91.642 169.273 92.75C168.132 93.3167 166.849 93.5295 165.586 93.361C164.448 93.1247 163.347 92.7315 162.316 92.1926C161.409 91.7201 160.439 91.3787 159.436 91.1787C158.563 91.0417 157.669 91.1534 156.857 91.501C155.662 92.0082 154.684 92.9215 154.097 94.0795C153.908 94.5146 153.754 94.9636 153.634 95.4225C153.655 94.9368 153.771 94.4599 153.976 94.0191C154.539 92.7963 155.527 91.8201 156.756 91.2727C157.599 90.8977 158.529 90.7652 159.442 90.89C160.479 91.0823 161.483 91.4215 162.424 91.8972C163.428 92.4181 164.499 92.7977 165.607 93.0253C166.801 93.1739 168.013 92.9685 169.092 92.4344C171.361 91.3734 172.953 89.4933 174.504 87.9555C176.055 86.4178 177.66 85.1219 179.291 84.6451C180.559 84.203 181.939 84.203 183.206 84.6451C183.544 84.7754 183.863 84.9517 184.153 85.1689C184.267 85.2476 184.371 85.34 184.462 85.4442Z" fill="#263238"/>
<path d="M186.201 98.7127C186.201 98.8134 178.909 98.8873 169.917 98.8873C160.926 98.8873 153.634 98.8134 153.634 98.7127C153.634 98.612 160.926 98.5381 169.917 98.5381C178.909 98.5381 186.201 98.6187 186.201 98.7127Z" fill="#263238"/>
<path d="M184.39 98.7126C184.296 98.7126 184.215 94.5629 184.215 89.4394C184.215 84.316 184.296 80.1729 184.39 80.1729C184.484 80.1729 184.564 84.3227 184.564 89.4394C184.564 94.5561 184.49 98.7126 184.39 98.7126Z" fill="#263238"/>
<path d="M156.918 90.9039C156.918 90.9039 156.871 90.8368 156.918 90.7159C156.949 90.6311 156.998 90.5541 157.062 90.4903C157.126 90.4265 157.203 90.3775 157.288 90.3466C157.416 90.2902 157.556 90.2697 157.695 90.2875C157.833 90.3052 157.964 90.3605 158.073 90.4473C158.192 90.5801 158.262 90.749 158.271 90.9266C158.281 91.1042 158.231 91.2798 158.128 91.4249C158.025 91.5699 157.876 91.6757 157.705 91.725C157.534 91.7743 157.351 91.7642 157.187 91.6963C157.071 91.6272 156.976 91.5286 156.911 91.4106C156.847 91.2926 156.814 91.1594 156.818 91.0248C156.816 90.9353 156.833 90.8464 156.866 90.7634C156.9 90.6804 156.949 90.6049 157.013 90.5413C157.113 90.4608 157.187 90.4608 157.194 90.4742C157.201 90.4876 157.012 90.6689 157.059 91.0114C157.069 91.0995 157.099 91.1842 157.146 91.2587C157.194 91.3333 157.259 91.3958 157.335 91.4411C157.429 91.4649 157.528 91.4597 157.619 91.4263C157.711 91.3928 157.79 91.3327 157.846 91.2537C157.903 91.1747 157.934 91.0805 157.936 90.9834C157.939 90.8862 157.911 90.7907 157.859 90.7092C157.791 90.6539 157.711 90.6158 157.626 90.5983C157.541 90.5807 157.452 90.5842 157.368 90.6085C157.026 90.6622 156.965 90.9174 156.918 90.9039Z" fill="#263238"/>
<path d="M178.876 84.1688C178.876 84.1688 178.876 84.0882 178.996 84.021C179.153 83.9426 179.333 83.9281 179.5 83.9808C179.633 84.0168 179.753 84.0884 179.847 84.1878C179.942 84.2872 180.008 84.4107 180.037 84.5448C180.047 84.718 179.999 84.8896 179.9 85.0319C179.801 85.1743 179.657 85.2791 179.491 85.3295C179.325 85.38 179.147 85.373 178.985 85.3098C178.824 85.2467 178.688 85.1309 178.6 84.9813C178.552 84.8518 178.539 84.7117 178.564 84.5757C178.589 84.4398 178.65 84.3131 178.741 84.2091C178.855 84.0749 179.016 83.9905 179.191 83.974C179.312 83.974 179.372 84.0143 179.366 84.0345C179.359 84.0546 179.111 84.068 178.943 84.3568C178.896 84.4287 178.867 84.5104 178.858 84.5955C178.849 84.6806 178.859 84.7667 178.889 84.847C178.948 84.9195 179.027 84.9727 179.117 84.9999C179.206 85.0271 179.302 85.0269 179.391 84.9995C179.481 84.9722 179.56 84.9187 179.619 84.8461C179.677 84.7735 179.713 84.6849 179.722 84.5918C179.704 84.5082 179.667 84.43 179.613 84.3635C179.559 84.297 179.491 84.2441 179.413 84.2091C179.117 84.0613 178.909 84.2158 178.876 84.1688Z" fill="#263238"/>
<path d="M183.811 62.1907C183.811 62.2847 176.747 62.3653 168.038 62.3653C159.329 62.3653 152.265 62.2847 152.265 62.1907C152.265 62.0967 159.322 62.0161 168.038 62.0161C176.754 62.0161 183.811 62.1101 183.811 62.1907Z" fill="#263238"/>
<path d="M183.811 66.5887C183.811 66.6894 176.747 66.7633 168.038 66.7633C159.329 66.7633 152.265 66.6894 152.265 66.5887C152.265 66.488 159.322 66.4141 168.038 66.4141C176.754 66.4141 183.811 66.4947 183.811 66.5887Z" fill="#263238"/>
<path d="M183.811 70.9734C183.811 71.0674 176.747 71.148 168.038 71.148C159.329 71.148 152.265 71.0674 152.265 70.9734C152.265 70.8794 159.322 70.7989 168.038 70.7989C176.754 70.7989 183.811 70.8727 183.811 70.9734Z" fill="#263238"/>
<path d="M183.811 75.3524C183.811 75.4531 176.747 75.5269 168.038 75.5269C159.329 75.5269 152.265 75.4531 152.265 75.3524C152.265 75.2516 159.322 75.1778 168.038 75.1778C176.754 75.1778 183.811 75.2583 183.811 75.3524Z" fill="#263238"/>
<path d="M169.052 54.1929H152.265V55.6097H169.052V54.1929Z" fill="#263238"/>
<path d="M99.7541 124.538H82.9669V125.955H99.7541V124.538Z" fill="#263238"/>
<path d="M128.904 132.751C128.904 132.851 118.718 132.925 106.154 132.925C93.5908 132.925 83.3976 132.851 83.3976 132.751C83.3976 132.65 93.584 132.576 106.154 132.576C118.725 132.576 128.904 132.657 128.904 132.751Z" fill="#263238"/>
<path d="M129.172 136.726C129.172 136.82 118.804 136.9 106.019 136.9C93.2339 136.9 82.8661 136.82 82.8661 136.726C82.8661 136.632 93.2271 136.551 106.019 136.551C118.811 136.551 129.172 136.645 129.172 136.726Z" fill="#263238"/>
<path d="M129.702 140.473C129.702 140.567 119.274 140.647 106.415 140.647C93.5563 140.647 83.1281 140.567 83.1281 140.473C83.1281 140.379 93.5563 140.298 106.415 140.298C119.274 140.298 129.702 140.372 129.702 140.473Z" fill="#263238"/>
<path d="M107.35 144.462C107.35 144.556 101.978 144.636 95.3702 144.636C88.7628 144.636 83.3976 144.556 83.3976 144.462C83.3976 144.368 88.7695 144.287 95.3702 144.287C101.971 144.287 107.35 144.368 107.35 144.462Z" fill="#263238"/>
<path d="M53.932 133.12L39.0116 131.972L16.4093 130.139L18.9341 251.55L38.5617 251.295C38.5617 251.295 38.5617 249.952 38.5147 247.575L50.024 250.724C50.024 250.724 61.2378 212.839 65.0586 197.294C68.2481 184.341 53.932 133.12 53.932 133.12ZM38.2998 228.72C38.0043 200.692 37.6619 153.03 38.0715 147.201C38.0715 147.201 49.0033 189.162 49.104 192.473C49.1712 194.474 43.0808 213.84 38.2998 228.72Z" fill="#455A64"/>
<path d="M56.4766 192.096C55.2626 192.379 54.0228 192.537 52.7767 192.566C51.5408 192.724 50.2919 192.753 49.0499 192.654C50.2631 192.366 51.5032 192.206 52.7498 192.177C53.9858 192.019 55.235 191.992 56.4766 192.096Z" fill="#455A64"/>
<path d="M55.194 194.3C54.2287 194.218 53.2783 194.01 52.367 193.682C51.4186 193.475 50.5019 193.143 49.6407 192.695C50.6088 192.768 51.5622 192.974 52.4744 193.306C54.0054 193.749 55.2275 194.192 55.194 194.3Z" fill="#455A64"/>
<path d="M39.8765 132.126C39.9667 132.893 40.0004 133.665 39.9773 134.436C39.9773 135.866 39.9773 137.84 39.9773 140.023C39.9773 141.104 39.9773 142.138 39.937 143.091C39.9616 143.95 39.8013 144.805 39.4669 145.596C39.2288 146.136 38.848 146.6 38.3657 146.939C38.2012 147.075 38.0048 147.168 37.7949 147.208C37.7949 147.208 37.9829 147.087 38.2851 146.832C38.7091 146.468 39.0386 146.007 39.2453 145.489C39.5253 144.719 39.6508 143.903 39.6147 143.085C39.6147 142.125 39.6147 141.07 39.6147 140.009C39.6147 137.827 39.6684 135.853 39.7087 134.429C39.7065 133.658 39.7626 132.888 39.8765 132.126Z" fill="#455A64"/>
<path d="M28.6418 131.441C28.649 131.54 28.649 131.639 28.6418 131.737C28.6418 131.952 28.6418 132.241 28.6418 132.61C28.6418 133.389 28.5813 134.517 28.5343 135.967C28.4403 138.888 28.306 143.085 28.1381 148.262C27.8225 158.643 27.5002 172.993 27.4196 188.833C27.3391 204.674 27.5204 219.05 27.7285 229.425C27.8427 234.602 27.93 238.826 27.9971 241.72C27.9971 243.163 28.0508 244.285 28.071 245.077C28.071 245.447 28.071 245.749 28.071 245.95C28.0782 246.049 28.0782 246.147 28.071 246.246C28.0638 246.147 28.0638 246.049 28.071 245.95C28.071 245.742 28.071 245.453 28.024 245.084C28.024 244.298 27.9501 243.177 27.8897 241.727C27.7755 238.826 27.6412 234.622 27.5069 229.432C27.2316 219.044 27.0168 204.694 27.0973 188.833C27.1779 172.973 27.5405 158.617 27.9165 148.255C28.1046 143.065 28.2792 138.855 28.4269 135.961C28.5007 134.524 28.5612 133.402 28.6015 132.603C28.6015 132.234 28.6418 131.932 28.6552 131.73C28.6438 131.634 28.6393 131.538 28.6418 131.441Z" fill="#455A64"/>
<path d="M49.0435 134.496C49.0842 134.585 49.1179 134.677 49.1442 134.772C49.2046 134.973 49.2919 135.242 49.3993 135.591C49.6142 136.309 49.9567 137.37 50.3327 138.753C51.1049 141.513 52.1457 145.522 53.3074 150.511C54.4691 155.5 55.7583 161.45 57.1013 168.084C58.4443 174.718 59.8611 182.024 61.1302 189.733C61.2914 190.7 61.4391 191.66 61.5667 192.62C61.5667 192.875 61.6137 193.137 61.6137 193.386L61.4928 194.097C61.4055 194.574 61.3384 195.051 61.2309 195.514C60.8482 197.381 60.4184 199.207 59.9551 200.994C59.0419 204.566 58.075 207.984 57.1214 211.234C55.2278 217.734 53.4014 223.549 51.8503 228.431C50.2991 233.312 49.0032 237.241 48.0899 239.953L47.029 243.076L46.7403 243.888C46.7152 243.982 46.6791 244.072 46.6328 244.157C46.6504 244.061 46.675 243.967 46.7067 243.875C46.7738 243.673 46.8544 243.405 46.9618 243.056L47.9624 239.913L51.6152 228.357C53.1328 223.468 54.9324 217.646 56.8126 211.146C57.7526 207.896 58.7129 204.472 59.6261 200.906C60.0827 199.127 60.5125 197.307 60.8952 195.447C61.0026 194.984 61.0631 194.514 61.1437 194.044L61.2645 193.339C61.2645 193.11 61.231 192.889 61.2175 192.667C61.0899 191.72 60.9489 190.76 60.7878 189.8C59.5119 182.098 58.1018 174.792 56.7588 168.158C55.4159 161.524 54.2005 155.527 53.0724 150.565C51.9443 145.603 50.9303 141.554 50.1984 138.787C49.8492 137.404 49.5269 136.336 49.3322 135.611L49.1106 134.785C49.0776 134.691 49.0551 134.595 49.0435 134.496Z" fill="#455A64"/>
<path d="M53.932 133.12L39.0116 131.972L16.4093 130.139L18.9341 251.55L38.5617 251.295C38.5617 251.295 38.5617 249.952 38.5147 247.575L50.024 250.724C50.024 250.724 61.2378 212.839 65.0586 197.294C68.2481 184.341 53.932 133.12 53.932 133.12ZM38.2998 228.72C38.0043 200.692 37.6619 153.03 38.0715 147.201C38.0715 147.201 49.0033 189.162 49.104 192.473C49.1712 194.474 43.0808 213.84 38.2998 228.72Z" fill="#263238"/>
<path d="M56.4766 192.096C55.2626 192.379 54.0228 192.537 52.7767 192.566C51.5408 192.724 50.2919 192.753 49.0499 192.654C50.2631 192.366 51.5032 192.206 52.7498 192.177C53.9858 192.019 55.235 191.992 56.4766 192.096Z" fill="#455A64"/>
<path d="M55.194 194.3C54.2287 194.218 53.2783 194.01 52.367 193.682C51.4186 193.475 50.5019 193.143 49.6407 192.695C50.6088 192.768 51.5622 192.974 52.4744 193.306C54.0054 193.749 55.2275 194.192 55.194 194.3Z" fill="#455A64"/>
<path d="M39.8765 132.126C39.9667 132.893 40.0004 133.665 39.9773 134.436C39.9773 135.866 39.9773 137.84 39.9773 140.023C39.9773 141.104 39.9773 142.138 39.937 143.091C39.9616 143.95 39.8013 144.805 39.4669 145.596C39.2288 146.136 38.848 146.6 38.3657 146.939C38.2012 147.075 38.0048 147.168 37.7949 147.208C37.7949 147.208 37.9829 147.087 38.2851 146.832C38.7091 146.468 39.0386 146.007 39.2453 145.489C39.5253 144.719 39.6508 143.903 39.6147 143.085C39.6147 142.125 39.6147 141.07 39.6147 140.009C39.6147 137.827 39.6684 135.853 39.7087 134.429C39.7065 133.658 39.7626 132.888 39.8765 132.126Z" fill="#455A64"/>
<path d="M28.6418 131.441C28.649 131.54 28.649 131.639 28.6418 131.737C28.6418 131.952 28.6418 132.241 28.6418 132.61C28.6418 133.389 28.5813 134.517 28.5343 135.967C28.4403 138.888 28.306 143.085 28.1381 148.262C27.8225 158.643 27.5002 172.993 27.4196 188.833C27.3391 204.674 27.5204 219.05 27.7285 229.425C27.8427 234.602 27.93 238.826 27.9971 241.72C27.9971 243.163 28.0508 244.285 28.071 245.077C28.071 245.447 28.071 245.749 28.071 245.95C28.0782 246.049 28.0782 246.147 28.071 246.246C28.0638 246.147 28.0638 246.049 28.071 245.95C28.071 245.742 28.071 245.453 28.024 245.084C28.024 244.298 27.9501 243.177 27.8897 241.727C27.7755 238.826 27.6412 234.622 27.5069 229.432C27.2316 219.044 27.0168 204.694 27.0973 188.833C27.1779 172.973 27.5405 158.617 27.9165 148.255C28.1046 143.065 28.2792 138.855 28.4269 135.961C28.5007 134.524 28.5612 133.402 28.6015 132.603C28.6015 132.234 28.6418 131.932 28.6552 131.73C28.6438 131.634 28.6393 131.538 28.6418 131.441Z" fill="#455A64"/>
<path d="M49.0435 134.496C49.0842 134.585 49.1179 134.677 49.1442 134.772C49.2046 134.973 49.2919 135.242 49.3993 135.591C49.6142 136.309 49.9567 137.37 50.3327 138.753C51.1049 141.513 52.1457 145.522 53.3074 150.511C54.4691 155.5 55.7583 161.45 57.1013 168.084C58.4443 174.718 59.8611 182.024 61.1302 189.733C61.2914 190.7 61.4391 191.66 61.5667 192.62C61.5667 192.875 61.6137 193.137 61.6137 193.386L61.4928 194.097C61.4055 194.574 61.3384 195.051 61.2309 195.514C60.8482 197.381 60.4184 199.207 59.9551 200.994C59.0419 204.566 58.075 207.984 57.1214 211.234C55.2278 217.734 53.4014 223.549 51.8503 228.431C50.2991 233.312 49.0032 237.241 48.0899 239.953L47.029 243.076L46.7403 243.888C46.7152 243.982 46.6791 244.072 46.6328 244.157C46.6504 244.061 46.675 243.967 46.7067 243.875C46.7738 243.673 46.8544 243.405 46.9618 243.056L47.9624 239.913L51.6152 228.357C53.1328 223.468 54.9324 217.646 56.8126 211.146C57.7526 207.896 58.7129 204.472 59.6261 200.906C60.0827 199.127 60.5125 197.307 60.8952 195.447C61.0026 194.984 61.0631 194.514 61.1437 194.044L61.2645 193.339C61.2645 193.11 61.231 192.889 61.2175 192.667C61.0899 191.72 60.9489 190.76 60.7878 189.8C59.5119 182.098 58.1018 174.792 56.7588 168.158C55.4159 161.524 54.2005 155.527 53.0724 150.565C51.9443 145.603 50.9303 141.554 50.1984 138.787C49.8492 137.404 49.5269 136.336 49.3322 135.611L49.1106 134.785C49.0776 134.691 49.0551 134.595 49.0435 134.496Z" fill="#455A64"/>
<path d="M28.2265 74.848L39.6418 75.694C39.7962 74.3511 40.0178 69.241 40.0178 69.241C40.0178 69.241 44.7786 68.8046 45.1278 64.0907C45.477 59.3769 45.3293 48.4921 45.3293 48.4921C42.7194 47.173 39.8046 46.5752 36.8862 46.7606C33.9679 46.9459 31.1521 47.9077 28.7301 49.5463L27.9982 50.0432L28.2265 74.848Z" fill="#E5BAAB"/>
<path d="M43.7043 56.5298C43.6139 56.4346 43.5533 56.3149 43.5302 56.1856C43.507 56.0564 43.5223 55.9231 43.5741 55.8024C43.6259 55.6817 43.712 55.5789 43.8217 55.5066C43.9313 55.4344 44.0598 55.3958 44.1911 55.3958C44.3225 55.3958 44.4509 55.4344 44.5606 55.5066C44.6703 55.5789 44.7564 55.6817 44.8082 55.8024C44.86 55.9231 44.8753 56.0564 44.8521 56.1856C44.829 56.3149 44.7684 56.4346 44.678 56.5298C44.6152 56.5959 44.5397 56.6484 44.456 56.6844C44.3723 56.7203 44.2822 56.7388 44.1911 56.7388C44.1001 56.7388 44.0099 56.7203 43.9262 56.6844C43.8426 56.6484 43.767 56.5959 43.7043 56.5298Z" fill="#263238"/>
<path d="M44.912 55.5223C44.8314 55.6029 44.3949 55.2201 43.7436 55.1731C43.0922 55.1261 42.602 55.435 42.5349 55.3477C42.4677 55.2604 42.5819 55.1664 42.8035 55.0254C43.0892 54.8378 43.4301 54.7525 43.7704 54.7837C44.1134 54.8041 44.4396 54.9389 44.6971 55.1664C44.8918 55.3343 44.9523 55.4753 44.912 55.5223Z" fill="#263238"/>
<path d="M37.3909 55.6307C37.4972 55.7084 37.5784 55.8156 37.6243 55.9391C37.6701 56.0625 37.6787 56.1967 37.6489 56.325C37.6191 56.4532 37.5523 56.5699 37.4567 56.6605C37.3611 56.751 37.241 56.8115 37.1113 56.8343C36.9816 56.8571 36.8481 56.8413 36.7273 56.7889C36.6065 56.7364 36.5038 56.6496 36.432 56.5392C36.3602 56.4288 36.3224 56.2998 36.3234 56.1681C36.3243 56.0364 36.364 55.9079 36.4374 55.7986C36.4878 55.7236 36.5529 55.6595 36.6286 55.6101C36.7044 55.5608 36.7894 55.5273 36.8784 55.5117C36.9675 55.496 37.0588 55.4985 37.1468 55.5189C37.2349 55.5394 37.3179 55.5774 37.3909 55.6307Z" fill="#263238"/>
<path d="M37.8213 55.6636C37.7407 55.7374 37.3043 55.3547 36.6529 55.3077C36.0016 55.2607 35.5114 55.5763 35.4442 55.489C35.3771 55.4017 35.4913 55.301 35.7061 55.1599C35.9972 54.9791 36.3379 54.8945 36.6798 54.9182C37.0217 54.9431 37.3466 55.0773 37.6064 55.301C37.8012 55.4755 37.8616 55.63 37.8213 55.6636Z" fill="#263238"/>
<path d="M40.0989 61.1835C40.4424 61.0773 40.8003 61.0252 41.1598 61.0291C41.3344 61.0291 41.4754 60.9955 41.4956 60.9015C41.5126 60.7281 41.48 60.5535 41.4016 60.3979L40.9718 59.0549C40.5583 57.9067 40.2548 56.7218 40.0653 55.5162C40.5856 56.6186 41.0015 57.7674 41.3076 58.9475L41.7105 60.2905C41.8074 60.5127 41.8263 60.7612 41.7642 60.9955C41.7359 61.0584 41.6932 61.1136 41.6396 61.1568C41.5859 61.2 41.5227 61.2299 41.4553 61.244C41.3594 61.2564 41.2624 61.2564 41.1665 61.244C40.8097 61.281 40.4492 61.2606 40.0989 61.1835Z" fill="#263238"/>
<path d="M37.943 61.7675C37.2715 61.3243 39.7426 62.8755 41.0721 62.8956C40.8306 63.2228 40.4851 63.4582 40.0922 63.5632C39.6993 63.6681 39.2824 63.6363 38.9099 63.4731C37.5267 62.8621 37.943 61.7675 37.943 61.7675Z" fill="#FAFAFA"/>
<path d="M39.99 69.1743C37.8097 69.0822 35.706 68.3436 33.9467 67.0524C33.9467 67.0524 35.1889 70.5374 39.9229 70.4099L39.99 69.1743Z" fill="#D78776"/>
<path d="M28.897 54.2268C28.7896 54.1865 25.3919 53.7433 25.7142 57.7588C26.0365 61.7743 29.9848 60.1158 29.9781 60.0016C29.9714 59.8874 28.897 54.2268 28.897 54.2268Z" fill="#E5BAAB"/>
<path d="M28.6022 58.6923C28.6022 58.6923 28.5417 58.7461 28.4276 58.8132C28.2659 58.8961 28.079 58.9153 27.9038 58.8669C27.6319 58.7219 27.4031 58.5077 27.2404 58.2459C27.0777 57.9842 26.9869 57.6842 26.9772 57.3762C26.9402 57.0335 26.9815 56.6868 27.098 56.3623C27.1249 56.2338 27.1822 56.1137 27.2652 56.0121C27.3482 55.9104 27.4543 55.8302 27.5748 55.7781C27.6541 55.7525 27.7397 55.7545 27.8177 55.7838C27.8958 55.8131 27.9616 55.8678 28.0045 55.9392C28.065 56.0467 28.0515 56.1273 28.0717 56.134C28.0918 56.1407 28.1523 56.0601 28.0717 55.899C28.0437 55.8004 27.9819 55.7148 27.8971 55.6572C27.778 55.5864 27.6367 55.5624 27.5009 55.5901C27.341 55.6354 27.1953 55.7209 27.0778 55.8384C26.9602 55.9559 26.8747 56.1016 26.8294 56.2616C26.6846 56.6212 26.6316 57.0111 26.675 57.3964C26.6825 57.7551 26.7962 58.1035 27.0018 58.3976C27.2074 58.6916 27.4956 58.9181 27.83 59.0482C27.94 59.0713 28.0539 59.0694 28.1631 59.0427C28.2723 59.016 28.3742 58.9651 28.4612 58.8938C28.6022 58.7931 28.6223 58.6991 28.6022 58.6923Z" fill="#D78776"/>
<path d="M45.6317 46.7933C45.9035 46.7861 46.17 46.7164 46.4105 46.5897C46.651 46.463 46.8592 46.2826 47.0189 46.0626C47.1786 45.8426 47.2856 45.5888 47.3316 45.3208C47.3775 45.0529 47.3612 44.7779 47.2839 44.5173C47.2066 44.2566 47.0704 44.0172 46.8858 43.8176C46.7012 43.618 46.4732 43.4636 46.2194 43.3662C45.9655 43.2688 45.6927 43.2311 45.422 43.256C45.1512 43.2809 44.8899 43.3677 44.6581 43.5098C45.2196 43.0436 45.6771 42.4649 46.001 41.8109C46.1577 41.4811 46.2095 41.1111 46.1495 40.751C46.0894 40.3908 45.9205 40.0576 45.6653 39.7964C45.3698 39.6009 45.028 39.4868 44.6743 39.4656C44.3206 39.4443 43.9676 39.5168 43.6508 39.6756C42.6503 40.1053 41.858 40.9514 40.8306 41.3073C39.8032 41.6632 38.655 41.4886 37.5537 41.5356C36.318 41.5576 35.1212 41.9715 34.1359 42.7174C33.2962 43.3771 32.7528 44.3432 32.625 45.4034C32.493 45.2221 32.3471 45.0515 32.1885 44.893C31.6663 44.2697 30.9618 43.8259 30.1741 43.6239C30.1271 43.7112 31.047 44.2215 31.9267 45.1348C32.1661 45.3639 32.3904 45.6084 32.5981 45.8667C31.0671 45.6787 29.3817 45.6652 28.173 46.6188C27.6834 47.0552 27.2964 47.5947 27.0398 48.1983C26.7832 48.802 26.6635 49.455 26.6891 50.1105C26.6891 51.4132 27.2262 52.6554 27.609 53.9044C27.7016 54.2582 27.8611 54.591 28.079 54.8848L28.6565 58.2422L30.7583 58.2019L30.624 51.158C30.624 51.158 30.4091 48.19 32.9607 48.4721C35.5124 48.7541 39.0041 51.6079 43.9597 50.8827C44.7728 50.8374 45.565 50.6078 46.2763 50.2112C46.6207 49.9931 46.9005 49.6871 47.087 49.3247C47.2735 48.9623 47.3599 48.5567 47.3373 48.1497C47.2884 47.7448 47.082 47.3754 46.7628 47.1216C46.4436 46.8677 46.0372 46.7498 45.6317 46.7933Z" fill="#263238"/>
<path d="M88.3384 81.5569L88.6473 79.4215C88.963 78.2535 89.1609 77.0567 89.2382 75.8492C89.2888 75.249 89.2343 74.6445 89.077 74.0631C88.9187 73.3311 88.6564 72.6256 88.2981 71.968C87.9087 71.3972 88.419 70.625 88.9696 70.8601C89.5202 71.0951 90.6685 72.6126 91.0378 74.8017C91.4071 76.9907 93.1328 73.9556 93.7774 72.8611C94.4221 71.7666 96.591 68.4696 97.0879 68.4024C97.8131 68.3017 98.0548 69.0739 97.3766 70.1416C96.6984 71.2092 94.9123 74.6002 95.5099 74.9091C95.9573 74.8376 96.4148 74.8605 96.8529 74.9763C96.9235 74.997 96.986 75.0391 97.0317 75.0969C97.0774 75.1546 97.1041 75.2251 97.108 75.2986C97.1055 75.6373 97.1416 75.9752 97.2155 76.3058C97.2155 76.3058 98.0951 76.1044 98.2764 76.4871C98.399 76.8802 98.4557 77.2909 98.4443 77.7025C98.4443 77.7025 99.1158 77.4742 99.4381 77.7025C100.11 78.2464 99.2501 79.1798 99.2501 79.1798C97.2729 81.5383 95.149 83.7698 92.8911 85.8611L88.2645 81.4024" fill="#E5BAAB"/>
<path d="M96.9469 76.4533C96.7495 76.8684 96.4839 77.2474 96.1613 77.5747C95.8927 77.897 95.5569 78.2462 95.1608 78.6692C94.9542 78.889 94.7295 79.0912 94.4893 79.2736C94.3413 79.3912 94.1626 79.4638 93.9746 79.4829C93.7865 79.5019 93.5969 79.4666 93.4283 79.381C93.3364 79.3271 93.2586 79.2521 93.2014 79.1622C93.1442 79.0723 93.1092 78.9701 93.0993 78.864C93.0857 78.6748 93.1277 78.4857 93.2202 78.3201C93.3856 78.0707 93.565 77.8308 93.7573 77.6016C94.0998 77.1718 94.3818 76.7689 94.6168 76.4198C94.8423 76.0249 95.1006 75.6498 95.3891 75.2984C95.2772 75.745 95.0861 76.1681 94.825 76.5473C94.5811 76.9791 94.312 77.3961 94.0192 77.7963C93.8409 78.0105 93.675 78.2347 93.5223 78.4678C93.4015 78.6894 93.4082 78.9647 93.6029 79.0654C93.7125 79.1117 93.8325 79.1279 93.9505 79.1126C94.0684 79.0973 94.1802 79.0509 94.2744 78.9781C94.4973 78.8094 94.7082 78.6254 94.9056 78.4275C95.3085 78.0515 95.6577 77.6956 95.9464 77.3934C96.2472 77.0469 96.5824 76.7319 96.9469 76.4533Z" fill="#D78776"/>
<path d="M98.1217 77.8299C97.9241 78.1882 97.6702 78.5124 97.3696 78.7901C97.0663 79.1151 96.7361 79.4138 96.3825 79.6832C96.1702 79.8437 95.9457 79.9874 95.711 80.1129C95.5716 80.1828 95.422 80.2304 95.2678 80.2539C95.1745 80.2691 95.0789 80.2644 94.9875 80.2401C94.8961 80.2158 94.8109 80.1725 94.7374 80.1129C94.6134 79.9847 94.535 79.8192 94.5144 79.6421C94.4937 79.4649 94.532 79.2858 94.6232 79.1326C94.7592 78.8933 94.9189 78.6683 95.1 78.4611C95.3954 78.1186 95.6707 77.7896 95.946 77.4606C96.4362 76.8965 96.7585 76.5675 96.7988 76.5943C96.6216 76.963 96.3957 77.3063 96.1273 77.615L95.3753 78.6827C95.2166 78.8727 95.0729 79.0747 94.9455 79.287C94.8937 79.3726 94.8698 79.4723 94.877 79.5721C94.8842 79.6719 94.9222 79.767 94.9858 79.8443C95.1067 79.9585 95.3618 79.9115 95.5834 79.804C95.8039 79.6899 96.0169 79.5621 96.2213 79.4213C96.5702 79.1724 96.9043 78.9033 97.2219 78.6155C97.4887 78.318 97.7909 78.0542 98.1217 77.8299Z" fill="#D78776"/>
<path d="M98.3968 79.7503C98.4304 79.7503 98.3968 80.0525 98.0812 80.4218C97.9856 80.5361 97.8679 80.6301 97.7353 80.6982C97.6026 80.7662 97.4577 80.807 97.309 80.818C97.1167 80.8196 96.9296 80.7557 96.7785 80.6367C96.6953 80.567 96.6286 80.4796 96.5833 80.3808C96.538 80.2821 96.5152 80.1745 96.5167 80.0659C96.5699 79.7237 96.7084 79.4004 96.9196 79.1259C97.0612 78.9042 97.216 78.6912 97.3829 78.488C97.6716 78.1388 97.8798 77.9575 97.9201 77.991C97.9604 78.0246 97.8126 78.2529 97.5843 78.6625C97.45 78.8976 97.3157 79.1124 97.1949 79.334C97.0331 79.5709 96.9211 79.8382 96.8658 80.1197C96.871 80.2337 96.92 80.3413 97.0026 80.4201C97.0851 80.4989 97.1949 80.5428 97.309 80.5427C97.5319 80.5356 97.7445 80.4473 97.9066 80.2943C98.2088 79.9719 98.3498 79.7235 98.3968 79.7503Z" fill="#D78776"/>
<path d="M87.8337 78.7838C87.8337 78.7838 70.2206 96.1149 67.7495 96.2425C64.9293 96.3768 56.2537 84.0751 56.2537 84.0751C50.7005 75.5069 43.3745 74.1237 40.702 73.9088V72.8478L27.5744 71.7735C27.5744 71.7735 27.5744 72.9016 27.5744 73.8886H21.7795C21.7795 73.8886 11.3714 73.4119 9.8136 87.3923L17.294 93.3081L20.3627 104.723C21.4303 108.699 17.6163 115.031 15.7966 125.284C15.5159 126.994 15.8012 128.748 16.6091 130.28L54.5145 134.638L52.5001 105.657L51.889 98.9418C55.0114 103.206 60.6184 109.236 67.4877 109.101C79.2051 108.88 95.482 84.2564 95.482 84.2564L87.8337 78.7838Z" fill="#00B349"/>
<path d="M36.2837 72.6597C36.3488 73.2555 36.3488 73.8567 36.2837 74.4526C36.1858 75.9443 35.9838 77.4275 35.6793 78.8911L35.6323 79.1127L35.4309 79.0053C34.9743 78.7635 34.4975 78.5084 34.014 78.2263C32.1339 77.1184 30.529 75.9769 29.3136 75.1845C28.6575 74.7852 28.0253 74.348 27.42 73.8751C27.621 73.9338 27.813 74.0197 27.9908 74.1303C28.34 74.325 28.8436 74.607 29.4479 74.9763C30.67 75.715 32.295 76.8296 34.1484 77.9242C34.6184 78.1995 35.0884 78.4613 35.545 78.7031L35.2966 78.8172C35.6861 77.0848 35.8741 75.5337 36.0151 74.4324C36.0686 73.8366 36.1583 73.2446 36.2837 72.6597Z" fill="#090909"/>
<path d="M40.743 73.9825C40.6586 74.5593 40.533 75.1293 40.367 75.6881C40.2394 76.2185 40.1051 76.8497 39.8768 77.5346C39.7579 77.8967 39.6166 78.2511 39.4537 78.5956C39.4068 78.7191 39.3222 78.8248 39.212 78.8978C39.1355 78.9447 39.0454 78.9643 38.9563 78.9533C38.8673 78.9423 38.7846 78.9014 38.7218 78.8373C38.596 78.6518 38.4944 78.451 38.4196 78.2397C37.7481 76.7154 37.2177 75.3322 36.8282 74.3182C36.5833 73.787 36.3964 73.2309 36.2709 72.6596C36.5845 73.1535 36.8477 73.6777 37.0565 74.2242C37.5064 75.2113 38.104 76.5811 38.742 78.1054C38.8039 78.275 38.8803 78.439 38.9703 78.5956C39.0038 78.5956 38.9703 78.5956 39.0307 78.5956C39.0812 78.5546 39.1205 78.5015 39.1448 78.4411C39.3055 78.1108 39.449 77.7724 39.5746 77.4272C39.8096 76.7557 39.9708 76.1379 40.1252 75.6209C40.2587 75.0501 40.4664 74.4993 40.743 73.9825Z" fill="#090909"/>
<path d="M38.2989 120.879C38.2668 120.722 38.2488 120.562 38.2452 120.402C38.2452 120.053 38.2183 119.605 38.1646 119.059C38.1109 117.824 38.0303 116.111 37.9363 114.01C37.7752 109.712 37.5469 103.837 37.3051 97.35C37.0634 90.8634 36.9089 84.9879 36.7746 80.6904C36.7276 78.5819 36.6873 76.8696 36.6538 75.6341C36.6538 75.07 36.6538 74.6134 36.6538 74.2911C36.6364 74.1304 36.6364 73.9683 36.6538 73.8076C36.6847 73.9647 36.7005 74.1243 36.7008 74.2844C36.7008 74.6336 36.7545 75.0902 36.7881 75.6274C36.8418 76.8562 36.9224 78.5685 37.0164 80.6703C37.1775 84.9678 37.3991 90.8433 37.6476 97.3299C37.896 103.816 38.037 109.692 38.1781 113.996C38.2251 116.098 38.2653 117.81 38.2989 119.046C38.2989 119.617 38.2989 120.073 38.2989 120.422C38.3147 120.574 38.3147 120.727 38.2989 120.879Z" fill="#F5F5F5"/>
<path d="M35.9083 76.9031L37.0096 79.9383L37.9564 76.6815L36.4858 73.4181L35.9083 76.9031Z" fill="#FAFAFA"/>
<path d="M37.2107 79.0323L36.4855 113.198L41.6425 123.982L43.6771 111.848L37.2107 79.0323Z" fill="#FAFAFA"/>
<path d="M67.9382 100.466C67.9382 100.466 67.9382 100.566 67.9382 100.734L67.8979 100.989L67.7837 100.734C67.5238 100.055 67.3742 99.3386 67.3405 98.6122C67.2295 97.8022 67.3265 96.9772 67.6226 96.215C67.7233 96.215 67.6226 97.2894 67.6897 98.5921C67.7434 99.5187 67.8911 100.311 67.9382 100.694H67.7837C67.8441 100.513 67.9113 100.466 67.9382 100.466Z" fill="#090909"/>
<path d="M69.4487 100.351C68.9479 99.8258 68.5755 99.1915 68.3609 98.498C68.0378 97.8577 67.8612 97.1536 67.8439 96.4366C68.1857 97.0609 68.4646 97.7177 68.6765 98.3973C68.9968 99.022 69.2554 99.6765 69.4487 100.351Z" fill="#090909"/>
<path d="M94.3806 85.8877C92.9284 85.1194 91.5326 84.2488 90.204 83.2824C88.8118 82.4133 87.4834 81.4462 86.2288 80.3882C87.6804 81.1626 89.076 82.0377 90.4054 83.007C91.7972 83.8717 93.1256 84.8344 94.3806 85.8877Z" fill="#090909"/>
<path d="M21.1688 91.3737C21.1688 91.3737 18.3755 110.847 19.6983 111.935C27.0041 118.079 37.157 121.302 40.783 122.316C41.3135 122.188 41.9312 122.02 42.643 121.792C43.26 121.596 43.8391 121.296 44.3553 120.906C45.0145 120.443 45.6065 119.892 46.1146 119.267C46.1913 119.133 46.3078 119.026 46.4479 118.961C46.588 118.896 46.7448 118.877 46.8967 118.905C47.0486 118.933 47.188 119.007 47.2957 119.118C47.4034 119.228 47.474 119.37 47.4979 119.522C47.5314 120.194 46.4571 121.92 44.4359 123.182C44.4359 123.182 49.0893 130.669 50.5733 131.347C52.0573 132.026 56.3011 133.933 55.5826 134.295C54.8641 134.658 49.7004 133.16 49.7004 133.16L39.2252 130.36C39.2252 130.36 4.57639 124.928 6.87959 109.034C8.29643 99.2905 9.84085 90.5142 10.3982 88.2915L21.1688 91.3737Z" fill="#E5BAAB"/>
<path d="M9.81394 87.3847L6.73853 108.61C6.02004 115.144 10.3981 120.335 16.2871 123.256C25.2514 127.694 38.5603 130.864 38.4462 130.843C38.332 130.823 39.346 121.369 39.346 121.369C39.346 121.369 20.6853 113.311 20.1011 109.819C19.5169 106.327 22.4715 91.8233 22.4715 91.8233L9.81394 87.3847Z" fill="#00B349"/>
<path d="M38.4186 130.843C38.4116 130.788 38.4116 130.731 38.4186 130.676C38.4186 130.541 38.4186 130.38 38.4522 130.185C38.4858 129.722 38.5328 129.098 38.5999 128.299C38.7409 126.633 38.9491 124.27 39.1975 121.362L39.2714 121.483L29.8706 116.937L27.1846 115.594C26.2781 115.111 25.3649 114.58 24.4584 113.996C23.5386 113.402 22.6552 112.754 21.8127 112.055C21.3897 111.699 20.9667 111.323 20.5638 110.927C20.3366 110.728 20.1536 110.483 20.0266 110.209C19.9554 110.076 19.9034 109.933 19.8721 109.786C19.828 109.645 19.7966 109.502 19.7781 109.356C19.476 107.033 20.0937 104.843 20.4496 102.755C20.8055 100.667 21.1614 98.6322 21.4971 96.7117C22.1686 92.8574 22.7797 89.3925 23.29 86.4648C23.5656 85.1679 23.7229 83.8486 23.76 82.5232C23.773 81.5259 23.5667 80.5379 23.1557 79.6291C22.8921 79.0557 22.5178 78.54 22.0545 78.1115C21.7322 77.8228 21.5374 77.7087 21.5441 77.6885C21.7439 77.7891 21.931 77.9131 22.1015 78.0578C22.5945 78.4738 22.9948 78.9884 23.2766 79.5687C23.7173 80.4913 23.9467 81.5007 23.9481 82.5232C23.9331 83.8609 23.7914 85.1942 23.525 86.5051C23.0348 89.4395 22.4506 92.9111 21.806 96.7722C21.477 98.6993 21.1345 100.727 20.7786 102.816C20.6914 103.339 20.5973 103.87 20.5033 104.407C20.4093 104.944 20.3086 105.468 20.2347 106.005C20.0582 107.091 20.0288 108.195 20.1474 109.289C20.1687 109.422 20.1979 109.555 20.2347 109.685C20.2612 109.814 20.3064 109.938 20.369 110.054C20.4796 110.291 20.6399 110.502 20.8391 110.672C21.2353 111.061 21.6449 111.431 22.0612 111.78C22.8924 112.472 23.7647 113.113 24.6733 113.7C25.5663 114.285 26.4661 114.808 27.3592 115.292L30.0452 116.635L39.3721 121.281L39.446 121.322V121.402C39.1438 124.31 38.9021 126.667 38.7342 128.332C38.6402 129.124 38.5731 129.756 38.5193 130.212C38.4925 130.409 38.4723 130.57 38.4589 130.696C38.4503 130.746 38.4368 130.796 38.4186 130.843Z" fill="#090909"/>
<path d="M36.6878 120.073C36.7077 120.559 36.6694 121.046 36.5736 121.523C36.4595 122.41 36.2715 123.632 36.023 124.975C35.7746 126.318 35.4925 127.526 35.2642 128.393C35.1721 128.87 35.0163 129.333 34.8009 129.769C34.8243 129.284 34.8986 128.802 35.0225 128.332C35.2195 127.32 35.4433 126.179 35.694 124.907C35.929 123.278 36.2608 121.663 36.6878 120.073Z" fill="#090909"/>
<path d="M38.4203 130.844C38.3085 130.843 38.1975 130.825 38.0913 130.79L37.1713 130.569L33.8139 129.682C30.9735 128.917 27.0252 127.909 22.7948 126.358C20.804 125.63 18.8656 124.767 16.9931 123.773C15.4634 122.959 14.0035 122.02 12.6285 120.966C11.7006 120.256 10.8254 119.479 10.0097 118.643C9.72091 118.347 9.51275 118.112 9.33817 117.971C9.25822 117.892 9.19034 117.802 9.13672 117.703C9.13672 117.703 9.47246 118.018 10.0768 118.576C10.9281 119.368 11.825 120.11 12.7628 120.798C14.1513 121.797 15.61 122.695 17.1274 123.484C18.9952 124.455 20.9242 125.303 22.9022 126.023C27.1057 127.567 31.0474 128.608 33.8676 129.44L37.225 130.428L38.1316 130.716C38.2329 130.746 38.3299 130.789 38.4203 130.844Z" fill="#090909"/>
<path d="M38.6479 122.343C38.6519 122.463 38.6201 122.581 38.5564 122.683C38.4928 122.785 38.4003 122.865 38.2906 122.914C38.181 122.964 38.0593 122.979 37.941 122.958C37.8226 122.938 37.7131 122.883 37.6263 122.8C37.5395 122.717 37.4794 122.61 37.4536 122.492C37.4279 122.375 37.4377 122.253 37.4817 122.141C37.5258 122.029 37.6021 121.933 37.701 121.865C37.7999 121.797 37.9168 121.76 38.0369 121.759C38.1949 121.757 38.3473 121.817 38.4615 121.926C38.5758 122.035 38.6427 122.185 38.6479 122.343Z" fill="#090909"/>
</svg>
