<svg width="277" height="206" viewBox="0 0 277 206" fill="none" xmlns="http://www.w3.org/2000/svg">
<path d="M249.235 189.87H230.928V190.008H249.235V189.87Z" fill="#EBEBEB"/>
<path d="M183.633 191.373H178.83V191.512H183.633V191.373Z" fill="#EBEBEB"/>
<path d="M230.375 184.74H219.768V184.878H230.375V184.74Z" fill="#EBEBEB"/>
<path d="M53.418 185.668H29.5439V185.807H53.418V185.668Z" fill="#EBEBEB"/>
<path d="M61.8437 185.668H58.3447V185.807H61.8437V185.668Z" fill="#EBEBEB"/>
<path d="M125.002 188.001H73.2188V188.139H125.002V188.001Z" fill="#EBEBEB"/>
<path d="M131.552 156.323H24.8178C23.9816 156.321 23.1802 155.988 22.5895 155.396C21.9988 154.804 21.667 154.002 21.667 153.166V3.12866C21.6743 2.29731 22.0093 1.50241 22.5992 0.916609C23.1891 0.330808 23.9864 0.00142414 24.8178 0H131.552C132.389 0 133.192 0.332538 133.783 0.924459C134.375 1.51638 134.708 2.3192 134.708 3.1563V153.166C134.708 154.003 134.375 154.806 133.783 155.398C133.192 155.99 132.389 156.323 131.552 156.323ZM24.8178 0.110554C24.0183 0.112018 23.252 0.430642 22.6872 0.996488C22.1224 1.56234 21.8052 2.32917 21.8052 3.12866V153.166C21.8052 153.966 22.1224 154.733 22.6872 155.298C23.252 155.864 24.0183 156.183 24.8178 156.184H131.552C132.352 156.183 133.118 155.864 133.684 155.299C134.25 154.733 134.568 153.966 134.57 153.166V3.12866C134.568 2.32866 134.25 1.56184 133.684 0.996151C133.118 0.430462 132.352 0.112015 131.552 0.110554H24.8178Z" fill="#EBEBEB"/>
<path d="M251.121 156.323H144.382C143.545 156.321 142.743 155.988 142.151 155.397C141.56 154.805 141.227 154.003 141.225 153.166V3.12866C141.234 2.29681 141.57 1.50191 142.161 0.916263C142.752 0.330615 143.55 0.00140861 144.382 0H251.121C251.951 0.00287687 252.747 0.332904 253.336 0.918549C253.925 1.50419 254.259 2.29827 254.266 3.12866V153.166C254.266 154.001 253.935 154.803 253.346 155.394C252.756 155.986 251.956 156.32 251.121 156.323ZM144.382 0.110554C143.582 0.112015 142.815 0.430462 142.249 0.996151C141.684 1.56184 141.365 2.32866 141.364 3.12866V153.166C141.365 153.966 141.684 154.733 142.249 155.299C142.815 155.864 143.582 156.183 144.382 156.184H251.121C251.921 156.183 252.688 155.864 253.254 155.299C253.819 154.733 254.138 153.966 254.139 153.166V3.12866C254.138 2.32866 253.819 1.56184 253.254 0.996151C252.688 0.430462 251.921 0.112015 251.121 0.110554H144.382Z" fill="#EBEBEB"/>
<path d="M276.93 180.976H0.545898V181.114H276.93V180.976Z" fill="#EBEBEB"/>
<path d="M28.5501 144.681L46.2387 144.615C46.9277 144.615 47.5885 144.888 48.0757 145.375C48.5629 145.863 48.8367 146.524 48.8367 147.213V153.453C48.8367 154.144 49.111 154.806 49.5992 155.294C50.0875 155.783 50.7497 156.057 51.4402 156.057H77.4203C78.1103 156.057 78.7723 155.783 79.2612 155.297C79.7502 154.81 80.0264 154.149 80.0293 153.459V130.541C80.03 130.2 80.098 129.863 80.2293 129.548C80.3606 129.234 80.5527 128.948 80.7945 128.708C81.0363 128.467 81.3232 128.277 81.6386 128.148C81.9541 128.018 82.2919 127.953 82.6329 127.954H88.1605C88.851 127.954 89.5132 127.68 90.0015 127.192C90.4898 126.703 90.7641 126.041 90.7641 125.351V112.847C90.7641 112.158 91.0378 111.497 91.525 111.01C92.0122 110.523 92.673 110.249 93.3621 110.249H102.422C103.111 110.25 103.77 110.525 104.257 111.012C104.744 111.498 105.018 112.158 105.02 112.847V116.528C105.02 117.219 105.294 117.881 105.782 118.369C106.271 118.858 106.933 119.132 107.623 119.132H108.469C109.158 119.132 109.819 118.858 110.306 118.371C110.793 117.884 111.067 117.223 111.067 116.534V102.925C111.067 102.234 111.342 101.572 111.83 101.084C112.318 100.596 112.98 100.321 113.671 100.321H122.642C123.332 100.323 123.994 100.598 124.482 101.085C124.969 101.573 125.244 102.235 125.246 102.925V116.556C125.246 117.245 125.519 117.906 126.007 118.393C126.494 118.88 127.155 119.154 127.844 119.154H130.641C131.33 119.154 131.991 118.88 132.478 118.393C132.965 117.906 133.239 117.245 133.239 116.556V89.0835V75.3196H133.791V83.7991C133.84 83.7237 133.894 83.6517 133.952 83.5835L154.598 71.7266C155.034 71.2513 155.283 71.7267 155.283 71.091V54.121L156.704 53.1039L182.496 34.6249V27.2676H183.049V34.2269L183.154 34.1495V116.562C183.154 117.252 183.428 117.914 183.916 118.403C184.404 118.891 185.067 119.165 185.757 119.165H189.146C189.487 119.166 189.826 119.099 190.141 118.969C190.457 118.839 190.744 118.647 190.986 118.406C191.228 118.165 191.42 117.878 191.551 117.563C191.682 117.247 191.749 116.909 191.749 116.567L192.562 85.8001C192.568 85.5032 192.638 85.211 192.766 84.9433L197.807 74.4407H198.183V62.5231C198.183 61.9655 198.404 61.4306 198.798 61.0358C199.192 60.641 199.726 60.4185 200.284 60.417H201.301V51.9929H201.854V60.417H202.406C202.965 60.4185 203.499 60.6408 203.894 61.0355C204.289 61.4301 204.511 61.965 204.513 62.5231V63.0758H206.873V62.5231C206.873 61.9655 207.094 61.4306 207.488 61.0358C207.881 60.641 208.416 60.4185 208.973 60.417H209.869V51.9929H210.422V60.417H211.074C211.632 60.4185 212.167 60.6408 212.561 61.0355C212.956 61.4301 213.178 61.965 213.18 62.5231V74.4186H213.556L218.603 84.9212C218.729 85.1898 218.798 85.4814 218.807 85.778L219.636 116.512C219.636 117.202 219.911 117.865 220.399 118.353C220.887 118.841 221.549 119.115 222.24 119.115H226.999C227.688 119.117 228.348 119.391 228.835 119.878C229.321 120.365 229.596 121.025 229.597 121.713V125.295C229.596 125.637 229.663 125.975 229.793 126.29C229.924 126.606 230.115 126.893 230.356 127.134C230.598 127.375 230.884 127.567 231.2 127.697C231.516 127.827 231.854 127.894 232.195 127.893H235.595C236.208 127.89 236.802 128.104 237.272 128.498C237.741 128.892 238.056 129.439 238.159 130.044L247.214 177.626C247.247 177.788 247.264 177.953 247.264 178.118C247.261 178.808 246.984 179.469 246.495 179.956C246.006 180.442 245.345 180.716 244.654 180.716H28.5777C28.0305 180.754 28.5501 144.681 28.5501 144.681Z" fill="#F5F5F5"/>
<path d="M242.426 25.1065H206.004C201.338 25.1065 200.211 18.5728 204.616 17.0417L204.788 16.9864C199.912 12.9235 210.597 4.36117 222.205 16.218C221.299 12.2657 231.602 13.6919 234.781 19.0869C235.925 15.5437 245.775 21.696 242.426 25.1065Z" fill="#F5F5F5"/>
<path d="M59.1947 75.1374H38.6152C38.6152 75.1374 33.7896 73.3188 34.4142 68.5042C35.0388 63.6896 42.3243 67.7027 42.3243 67.7027C42.3243 67.7027 40.1132 60.9866 47.1721 62.8936C49.1611 63.4015 50.9562 64.4847 52.3327 66.0077C53.7093 67.5307 54.606 69.4259 54.9108 71.456C54.9108 71.456 64.1862 69.8419 59.1947 75.1374Z" fill="#F5F5F5"/>
<path d="M205.783 128.06H200.576V146.727H205.783V128.06Z" fill="#E0E0E0"/>
<path d="M216.009 140.055H210.802V146.727H216.009V140.055Z" fill="#EBEBEB"/>
<path d="M226.23 136.749H221.022V146.721H226.23V136.749Z" fill="#EBEBEB"/>
<path d="M236.456 142.901H231.249V146.727H236.456V142.901Z" fill="#EBEBEB"/>
<path d="M246.683 132.979H241.476V146.721H246.683V132.979Z" fill="#E6E6E6"/>
<path d="M68.6637 129.458H30.7881V134.095H68.6637V129.458Z" fill="#EBEBEB"/>
<path d="M82.201 136.041H30.7881V140.679H82.201V136.041Z" fill="#E0E0E0"/>
<path d="M45.7847 142.563H30.7881V147.201H45.7847V142.563Z" fill="#EBEBEB"/>
<path d="M167.212 53.0691V51.4763L170.934 48.0302C171.25 47.7239 171.516 47.4483 171.73 47.2032C171.948 46.9581 172.113 46.7182 172.225 46.4834C172.337 46.2451 172.394 45.9882 172.394 45.7125C172.394 45.4062 172.324 45.1424 172.184 44.9212C172.045 44.6965 171.854 44.5247 171.613 44.4055C171.371 44.283 171.097 44.2217 170.791 44.2217C170.471 44.2217 170.192 44.2864 169.953 44.4157C169.715 44.5451 169.531 44.7306 169.402 44.9722C169.273 45.2139 169.208 45.5015 169.208 45.835H167.11C167.11 45.1509 167.265 44.557 167.574 44.0533C167.884 43.5495 168.318 43.1598 168.876 42.8842C169.434 42.6085 170.078 42.4706 170.806 42.4706C171.555 42.4706 172.206 42.6034 172.761 42.8689C173.319 43.1309 173.753 43.4951 174.063 43.9614C174.373 44.4277 174.528 44.962 174.528 45.5644C174.528 45.9592 174.449 46.3489 174.293 46.7335C174.14 47.1181 173.866 47.5453 173.471 48.0149C173.076 48.4812 172.52 49.0411 171.801 49.6946L170.275 51.1904V51.2619H174.665V53.0691H167.212ZM180.132 53.2121C179.369 53.2121 178.69 53.081 178.095 52.819C177.503 52.5535 177.035 52.1893 176.691 51.7264C176.351 51.2602 176.175 50.7224 176.165 50.1132H178.391C178.405 50.3684 178.488 50.5931 178.641 50.7871C178.798 50.9777 179.005 51.1257 179.264 51.2312C179.523 51.3367 179.814 51.3895 180.137 51.3895C180.474 51.3895 180.772 51.3299 181.03 51.2108C181.289 51.0917 181.492 50.9266 181.638 50.7156C181.784 50.5046 181.857 50.2612 181.857 49.9856C181.857 49.7065 181.779 49.4597 181.623 49.2453C181.469 49.0275 181.248 48.8573 180.959 48.7348C180.673 48.6122 180.333 48.551 179.938 48.551H178.963V46.9275H179.938C180.271 46.9275 180.566 46.8697 180.821 46.7539C181.08 46.6382 181.281 46.4783 181.424 46.274C181.566 46.0664 181.638 45.8248 181.638 45.5491C181.638 45.287 181.575 45.0573 181.449 44.8599C181.327 44.6591 181.153 44.5025 180.928 44.3902C180.707 44.2779 180.448 44.2217 180.152 44.2217C179.853 44.2217 179.579 44.2762 179.33 44.3851C179.082 44.4906 178.883 44.6421 178.733 44.8395C178.583 45.0369 178.503 45.2683 178.493 45.5338H176.374C176.385 44.9314 176.557 44.4004 176.89 43.941C177.224 43.4815 177.673 43.1224 178.238 42.8637C178.806 42.6017 179.448 42.4706 180.163 42.4706C180.884 42.4706 181.515 42.6017 182.057 42.8637C182.598 43.1258 183.018 43.4798 183.318 43.9256C183.62 44.3681 183.77 44.865 183.767 45.4164C183.77 46.0018 183.588 46.4902 183.221 46.8816C182.856 47.273 182.382 47.5214 181.796 47.6269V47.7086C182.565 47.8073 183.151 48.0745 183.552 48.5101C183.957 48.9424 184.158 49.4835 184.155 50.1336C184.158 50.7292 183.986 51.2585 183.639 51.7213C183.295 52.1842 182.821 52.5484 182.215 52.8139C181.609 53.0793 180.915 53.2121 180.132 53.2121ZM167.273 59.6136H169.999L172.879 66.6384H173.001L175.88 59.6136H178.607V70.0691H176.462V63.2638H176.376L173.67 70.0181H172.21L169.504 63.2383H169.417V70.0691H167.273V59.6136ZM182.639 59.6136V70.0691H180.428V59.6136H182.639ZM184.457 70.0691V59.6136H186.668V68.2466H191.15V70.0691H184.457ZM167.273 87.0691V76.6136H174.318V78.4362H169.484V80.9275H173.956V82.7501H169.484V85.2466H174.339V87.0691H167.273ZM181.748 79.6206C181.707 79.2088 181.532 78.8888 181.222 78.6608C180.912 78.4328 180.492 78.3187 179.961 78.3187C179.6 78.3187 179.295 78.3698 179.047 78.4719C178.799 78.5706 178.608 78.7084 178.475 78.8854C178.346 79.0624 178.281 79.2632 178.281 79.4878C178.274 79.675 178.314 79.8384 178.399 79.9779C178.487 80.1175 178.608 80.2383 178.761 80.3404C178.914 80.4391 179.091 80.5259 179.292 80.6008C179.493 80.6723 179.707 80.7335 179.935 80.7846L180.875 81.0092C181.331 81.1113 181.749 81.2474 182.131 81.4176C182.512 81.5878 182.842 81.7971 183.121 82.0456C183.4 82.294 183.616 82.5867 183.769 82.9237C183.926 83.2606 184.006 83.6469 184.009 84.0826C184.006 84.7224 183.843 85.2772 183.519 85.7469C183.199 86.2131 182.736 86.5756 182.131 86.8343C181.528 87.0895 180.802 87.2172 179.951 87.2172C179.107 87.2172 178.371 87.0878 177.745 86.8292C177.122 86.5705 176.636 86.1876 176.285 85.6805C175.938 85.17 175.756 84.5386 175.739 83.7865H177.878C177.902 84.137 178.002 84.4297 178.179 84.6646C178.36 84.896 178.599 85.0713 178.899 85.1904C179.202 85.3061 179.544 85.364 179.925 85.364C180.3 85.364 180.625 85.3095 180.9 85.2006C181.179 85.0917 181.395 84.9402 181.549 84.7462C181.702 84.5522 181.778 84.3293 181.778 84.0775C181.778 83.8426 181.709 83.6452 181.569 83.4852C181.433 83.3253 181.232 83.1891 180.967 83.0768C180.705 82.9645 180.383 82.8624 180.002 82.7705L178.863 82.4846C177.982 82.2702 177.286 81.935 176.775 81.4789C176.265 81.0228 176.011 80.4085 176.015 79.6359C176.011 79.0028 176.18 78.4498 176.52 77.9767C176.864 77.5036 177.335 77.1343 177.934 76.8689C178.533 76.6034 179.214 76.4706 179.976 76.4706C180.752 76.4706 181.429 76.6034 182.008 76.8689C182.59 77.1343 183.043 77.5036 183.366 77.9767C183.689 78.4498 183.856 78.9977 183.866 79.6206H181.748Z" fill="#E0E0E0"/>
<path d="M138.739 205.635C197.93 205.635 245.915 202.833 245.915 199.377C245.915 195.922 197.93 193.12 138.739 193.12C79.5468 193.12 31.5625 195.922 31.5625 199.377C31.5625 202.833 79.5468 205.635 138.739 205.635Z" fill="#F5F5F5"/>
<path d="M189.901 61.1194H175.275L160.654 75.7401L133.154 89.493H104.344L75.9703 117.867H55.5234V122.77H77.999L106.372 94.396H134.309L163.556 79.7698L177.309 66.0225H191.056L211.531 55.7852V50.3018L189.901 61.1194Z" fill="#00B349"/>
<path d="M55.3522 96.8448C54.6965 96.8412 54.0466 96.9672 53.4399 97.2155C52.8331 97.4639 52.2814 97.8298 51.8165 98.2921C51.3516 98.7544 50.9827 99.3041 50.7309 99.9095C50.4792 100.515 50.3496 101.164 50.3496 101.82C50.3496 103.578 52.3783 107.165 53.8486 109.558C54.6888 110.913 55.3522 111.875 55.3522 111.875C55.3522 111.875 56.0155 110.913 56.8446 109.558C58.3205 107.187 60.3436 103.6 60.3436 101.82C60.3436 101.165 60.2144 100.517 59.9634 99.9121C59.7123 99.3074 59.3444 98.7582 58.8807 98.296C58.4169 97.8339 57.8666 97.4678 57.2611 97.2187C56.6556 96.9697 56.0069 96.8426 55.3522 96.8448ZM55.3522 104.302C54.9013 104.303 54.4602 104.17 54.0848 103.92C53.7095 103.67 53.4167 103.315 53.2436 102.898C53.0706 102.482 53.025 102.024 53.1127 101.581C53.2004 101.139 53.4174 100.733 53.7363 100.414C54.0551 100.095 54.4614 99.878 54.9037 99.7903C55.346 99.7026 55.8043 99.7482 56.2207 99.9213C56.6371 100.094 56.9927 100.387 57.2425 100.762C57.4923 101.138 57.6251 101.579 57.624 102.03C57.624 102.632 57.3847 103.21 56.9586 103.636C56.5326 104.062 55.9547 104.302 55.3522 104.302Z" fill="#00B349"/>
<g opacity="0.5">
<path opacity="0.5" d="M189.901 61.1197H175.275L160.654 75.7404L133.154 89.4933H104.344L75.9702 117.867H55.5234V122.77H77.9989L106.372 94.3963H134.309L163.556 79.7701L177.309 66.0228H191.056L211.531 55.7855V50.3021L189.901 61.1197Z" fill="white"/>
<path opacity="0.5" d="M55.3522 96.8453C54.6965 96.8416 54.0466 96.9676 53.4399 97.216C52.8331 97.4644 52.2814 97.8302 51.8165 98.2926C51.3516 98.7549 50.9827 99.3046 50.7309 99.9099C50.4792 100.515 50.3496 101.165 50.3496 101.82C50.3496 103.578 52.3783 107.165 53.8486 109.559C54.6888 110.913 55.3522 111.875 55.3522 111.875C55.3522 111.875 56.0155 110.913 56.8446 109.559C58.3205 107.188 60.3436 103.6 60.3436 101.82C60.3436 101.165 60.2144 100.517 59.9634 99.9125C59.7123 99.3078 59.3444 98.7587 58.8807 98.2965C58.4169 97.8343 57.8666 97.4682 57.2611 97.2192C56.6556 96.9701 56.0069 96.8431 55.3522 96.8453ZM55.3522 104.302C54.9013 104.303 54.4602 104.17 54.0848 103.921C53.7095 103.671 53.4167 103.315 53.2436 102.899C53.0706 102.482 53.025 102.024 53.1127 101.582C53.2004 101.139 53.4174 100.733 53.7363 100.414C54.0551 100.096 54.4614 99.8785 54.9037 99.7908C55.346 99.7031 55.8043 99.7487 56.2207 99.9217C56.6371 100.095 56.9927 100.388 57.2425 100.763C57.4923 101.138 57.6251 101.579 57.624 102.03C57.624 102.633 57.3847 103.211 56.9586 103.637C56.5326 104.063 55.9547 104.302 55.3522 104.302Z" fill="white"/>
</g>
<path d="M211.531 26.8145C210.697 26.8137 209.87 26.9774 209.098 27.2962C208.327 27.615 207.626 28.0826 207.035 28.6724C206.444 29.2622 205.975 29.9626 205.655 30.7335C205.335 31.5045 205.17 32.331 205.169 33.1658C205.169 35.3768 207.745 39.9703 209.624 42.9884C210.691 44.7186 211.531 45.9402 211.531 45.9402C211.531 45.9402 212.377 44.7186 213.438 42.9884C215.312 39.9703 217.888 35.3989 217.888 33.1658C217.887 31.4808 217.216 29.8653 216.024 28.6744C214.832 27.4834 213.216 26.8145 211.531 26.8145ZM211.531 36.3055C210.958 36.3055 210.398 36.1356 209.922 35.8173C209.446 35.499 209.075 35.0467 208.855 34.5174C208.636 33.9881 208.579 33.4058 208.69 32.8439C208.802 32.282 209.078 31.7659 209.483 31.3608C209.888 30.9558 210.404 30.6799 210.966 30.5681C211.528 30.4564 212.11 30.5137 212.64 30.7329C213.169 30.9522 213.621 31.3234 213.94 31.7998C214.258 32.2761 214.428 32.8361 214.428 33.409C214.429 33.7895 214.354 34.1665 214.209 34.5183C214.063 34.87 213.85 35.1896 213.581 35.4587C213.312 35.7278 212.992 35.9412 212.641 36.0865C212.289 36.2318 211.912 36.3062 211.531 36.3055Z" fill="#00B349"/>
<g opacity="0.5">
<path opacity="0.5" d="M211.531 26.8145C210.697 26.8137 209.87 26.9774 209.098 27.2962C208.327 27.615 207.626 28.0826 207.035 28.6724C206.444 29.2622 205.975 29.9626 205.655 30.7335C205.335 31.5045 205.17 32.331 205.169 33.1658C205.169 35.3768 207.745 39.9703 209.624 42.9884C210.691 44.7186 211.531 45.9402 211.531 45.9402C211.531 45.9402 212.377 44.7186 213.438 42.9884C215.312 39.9703 217.888 35.3989 217.888 33.1658C217.887 31.4808 217.216 29.8653 216.024 28.6744C214.832 27.4834 213.216 26.8145 211.531 26.8145ZM211.531 36.3055C210.958 36.3055 210.398 36.1356 209.922 35.8173C209.446 35.499 209.075 35.0467 208.855 34.5174C208.636 33.9881 208.579 33.4058 208.69 32.8439C208.802 32.282 209.078 31.7659 209.483 31.3608C209.888 30.9558 210.404 30.6799 210.966 30.5681C211.528 30.4564 212.11 30.5137 212.64 30.7329C213.169 30.9522 213.621 31.3234 213.94 31.7998C214.258 32.2761 214.428 32.8361 214.428 33.409C214.429 33.7895 214.354 34.1665 214.209 34.5183C214.063 34.87 213.85 35.1896 213.581 35.4587C213.312 35.7278 212.992 35.9412 212.641 36.0865C212.289 36.2318 211.912 36.3062 211.531 36.3055Z" fill="white"/>
</g>
<path d="M92.571 27.4781C92.3604 27.3371 92.1051 27.2788 91.8541 27.3145C91.6031 27.3502 91.3742 27.4774 91.2112 27.6716L89.8459 29.7113L83.279 25.7314C83.0694 25.6126 82.8248 25.5708 82.5877 25.6132C82.3505 25.6556 82.1355 25.7795 81.98 25.9636L79.7192 28.8656C79.6375 28.9537 79.5754 29.058 79.537 29.1718C79.4985 29.2856 79.4846 29.4062 79.4961 29.5258C79.5075 29.6453 79.5442 29.7611 79.6036 29.8655C79.663 29.9699 79.7439 30.0605 79.8408 30.1314C80.0514 30.2725 80.3068 30.3308 80.5578 30.2951C80.8087 30.2593 81.0377 30.1322 81.2006 29.9379L82.8921 27.7269L84.3182 28.5892L81.278 32.5138L75.977 39.3129C75.8994 39.4043 75.8422 39.5113 75.8092 39.6265C75.7761 39.7418 75.7679 39.8628 75.7852 39.9814C75.8024 40.1001 75.8447 40.2137 75.9092 40.3148C75.9737 40.4159 76.059 40.5021 76.1594 40.5677C76.3132 40.6701 76.4942 40.724 76.679 40.7224C76.8384 40.7238 76.996 40.6886 77.1397 40.6196C77.2834 40.5506 77.4094 40.4496 77.5081 40.3244L82.0961 34.4485L82.2288 34.2772C82.3616 34.0734 82.5678 33.9287 82.8046 33.8731C83.0414 33.8175 83.2905 33.8553 83.5001 33.9787L84.8047 34.8244L81.3001 36.8088C81.1915 36.8642 81.095 36.9407 81.0165 37.034C80.9379 37.1272 80.8788 37.2353 80.8428 37.3517C80.8067 37.4682 80.7943 37.5907 80.8064 37.712C80.8185 37.8334 80.8548 37.951 80.9132 38.0581C81.053 38.2649 81.2669 38.4101 81.5108 38.4636C81.7546 38.5171 82.0097 38.4749 82.2232 38.3455L87.0434 35.6149C87.1825 35.5391 87.3011 35.4306 87.3888 35.2986C87.4764 35.1666 87.5305 35.0152 87.5464 34.8576C87.5577 34.7071 87.5282 34.5563 87.4611 34.4211C87.394 34.2859 87.2917 34.1712 87.165 34.0892L85.9821 33.3264L87.8836 30.7339L89.459 31.6902C89.6087 31.777 89.7779 31.8245 89.9509 31.8284C90.1037 31.8258 90.2544 31.7916 90.3933 31.7278C90.5322 31.6641 90.6563 31.5722 90.758 31.4581L92.6926 28.744C92.7743 28.6559 92.8364 28.5515 92.8749 28.4378C92.9133 28.324 92.9273 28.2033 92.9158 28.0838C92.9043 27.9642 92.8677 27.8484 92.8082 27.7441C92.7488 27.6397 92.668 27.549 92.571 27.4781Z" fill="#00B349"/>
<path d="M88.2708 27.9031C88.7662 27.9117 89.247 27.7351 89.6191 27.408C89.9912 27.0809 90.2279 26.6267 90.2829 26.1343C90.2938 25.8983 90.2556 25.6627 90.1707 25.4423C90.0859 25.2218 89.9563 25.0214 89.79 24.8536C89.6238 24.6858 89.4246 24.5543 89.205 24.4674C88.9853 24.3806 88.7501 24.3402 88.514 24.3488C88.0186 24.3403 87.5379 24.5168 87.1658 24.844C86.7936 25.1711 86.5569 25.6253 86.502 26.1177C86.4903 26.3538 86.5279 26.5898 86.6124 26.8107C86.6969 27.0315 86.8265 27.2322 86.9929 27.4002C87.1593 27.5682 87.3589 27.6996 87.5789 27.7862C87.7989 27.8728 88.0346 27.9126 88.2708 27.9031Z" fill="#00B349"/>
<path d="M81.9136 46.6201V47.499H78.409V46.8025L80.2 45.1111C80.609 44.7186 80.6809 44.4809 80.6809 44.2543C80.6809 43.8894 80.4322 43.7015 79.9402 43.7015C79.7542 43.6948 79.5694 43.7337 79.4018 43.8146C79.2342 43.8955 79.0888 44.016 78.9784 44.1658L78.199 43.6628C78.4105 43.3781 78.6894 43.1502 79.0107 42.9997C79.3319 42.8492 79.6855 42.7808 80.0397 42.8005C81.0734 42.8005 81.7643 43.3533 81.7643 44.1714C81.7577 44.4594 81.6838 44.7419 81.5485 44.9963C81.4131 45.2506 81.2201 45.4698 80.9849 45.6362L79.9181 46.6422L81.9136 46.6201Z" fill="#00B349"/>
<path d="M82.3564 45.177C82.3564 43.6459 83.2021 42.778 84.3463 42.778C85.4906 42.778 86.3308 43.6459 86.3308 45.177C86.3308 46.7082 85.4906 47.576 84.3463 47.576C83.2021 47.576 82.3564 46.7082 82.3564 45.177ZM85.2529 45.177C85.2529 44.1212 84.8825 43.6846 84.3463 43.6846C83.8102 43.6846 83.4398 44.1212 83.4398 45.177C83.4398 46.2328 83.8157 46.6695 84.3463 46.6695C84.877 46.6695 85.2474 46.2328 85.2474 45.177H85.2529Z" fill="#00B349"/>
<path d="M169.575 22.3707C169.575 20.8395 170.426 19.9717 171.565 19.9717C172.704 19.9717 173.555 20.8395 173.555 22.3707C173.555 23.9019 172.715 24.7697 171.565 24.7697C170.415 24.7697 169.575 23.9019 169.575 22.3707ZM172.472 22.3707C172.472 21.3149 172.101 20.8782 171.565 20.8782C171.029 20.8782 170.664 21.3149 170.664 22.3707C170.664 23.4265 171.035 23.8632 171.565 23.8632C172.096 23.8632 172.455 23.4265 172.455 22.3707H172.472Z" fill="#00B349"/>
<path d="M177.911 23.2159C177.905 23.4354 177.854 23.6515 177.761 23.8503C177.668 24.0492 177.534 24.2267 177.369 24.3715C177.204 24.5164 177.011 24.6255 176.801 24.692C176.592 24.7585 176.371 24.781 176.153 24.7581C174.876 24.7581 174.08 23.9566 174.08 22.4586C174.08 20.8556 175.047 19.9601 176.446 19.9601C176.898 19.9462 177.346 20.0571 177.739 20.2807L177.341 21.0656C177.081 20.9038 176.779 20.823 176.473 20.8334C176.295 20.8222 176.117 20.8498 175.951 20.9142C175.784 20.9787 175.634 21.0784 175.51 21.2067C175.386 21.3349 175.291 21.4886 175.232 21.657C175.173 21.8254 175.152 22.0046 175.169 22.1822C175.325 22.041 175.507 21.9325 175.706 21.8632C175.904 21.7939 176.114 21.7652 176.324 21.7787C176.524 21.7636 176.725 21.7894 176.914 21.8543C177.103 21.9193 177.278 22.0221 177.426 22.1566C177.574 22.291 177.694 22.4543 177.777 22.6364C177.861 22.8185 177.906 23.0157 177.911 23.2159ZM176.871 23.2656C176.872 23.1661 176.85 23.0678 176.809 22.9772C176.768 22.8866 176.708 22.8059 176.633 22.7404C176.558 22.6749 176.47 22.6263 176.375 22.5977C176.28 22.5691 176.18 22.5612 176.081 22.5747C175.982 22.564 175.883 22.5737 175.788 22.6032C175.693 22.6327 175.605 22.6813 175.53 22.7461C175.455 22.8109 175.394 22.8905 175.351 22.9798C175.308 23.0692 175.283 23.1665 175.279 23.2656C175.279 23.6636 175.578 23.9566 176.098 23.9566C176.194 23.9682 176.293 23.9594 176.386 23.9307C176.479 23.9019 176.565 23.854 176.638 23.7899C176.712 23.7258 176.771 23.647 176.812 23.5586C176.853 23.4702 176.875 23.3742 176.877 23.2767L176.871 23.2656Z" fill="#00B349"/>
<path d="M178.338 24.095C178.353 23.9346 178.427 23.7854 178.546 23.6768C178.665 23.5682 178.821 23.508 178.982 23.508C179.143 23.508 179.298 23.5682 179.418 23.6768C179.537 23.7854 179.611 23.9346 179.626 24.095C179.634 24.1846 179.624 24.275 179.595 24.3603C179.566 24.4456 179.52 24.524 179.46 24.5905C179.399 24.6569 179.325 24.7101 179.243 24.7464C179.161 24.7827 179.072 24.8015 178.982 24.8015C178.892 24.8015 178.803 24.7827 178.721 24.7464C178.638 24.7101 178.564 24.6569 178.504 24.5905C178.443 24.524 178.397 24.4456 178.369 24.3603C178.34 24.275 178.33 24.1846 178.338 24.095Z" fill="#00B349"/>
<path d="M183.644 23.8185V24.6919H180.139V23.9954L181.925 22.3039C182.339 21.9115 182.411 21.6738 182.411 21.4472C182.411 21.0823 182.157 20.8944 181.671 20.8944C181.485 20.8877 181.3 20.9265 181.132 21.0074C180.965 21.0884 180.819 21.2089 180.709 21.3587L179.924 20.8557C180.137 20.5712 180.417 20.3437 180.739 20.1933C181.061 20.0429 181.415 19.9742 181.77 19.9934C182.804 19.9934 183.489 20.5461 183.489 21.3642C183.484 21.652 183.411 21.9345 183.277 22.189C183.143 22.4434 182.95 22.6627 182.715 22.8291L181.648 23.8406L183.644 23.8185Z" fill="#00B349"/>
<path d="M187.518 23.2711C187.518 24.056 186.916 24.7691 185.595 24.7691C184.969 24.7817 184.353 24.6086 183.826 24.2716L184.241 23.4535C184.628 23.7273 185.092 23.8723 185.567 23.8681C186.12 23.8681 186.435 23.6525 186.435 23.2711C186.435 22.8897 186.181 22.7183 185.567 22.7183H185.081V21.9942L186.031 20.8887H184.064V20.0485H187.314V20.745L186.275 21.9389C186.613 21.9588 186.931 22.1082 187.163 22.3562C187.395 22.6042 187.522 22.9318 187.518 23.2711Z" fill="#00B349"/>
<path d="M187.981 24.095C187.996 23.9346 188.071 23.7854 188.19 23.6768C188.309 23.5682 188.464 23.508 188.625 23.508C188.787 23.508 188.942 23.5682 189.061 23.6768C189.18 23.7854 189.254 23.9346 189.269 24.095C189.278 24.1846 189.267 24.275 189.239 24.3603C189.21 24.4456 189.164 24.524 189.103 24.5905C189.043 24.6569 188.969 24.7101 188.887 24.7464C188.804 24.7827 188.715 24.8015 188.625 24.8015C188.535 24.8015 188.446 24.7827 188.364 24.7464C188.282 24.7101 188.208 24.6569 188.147 24.5905C188.087 24.524 188.041 24.4456 188.012 24.3603C187.984 24.275 187.973 24.1846 187.981 24.095Z" fill="#00B349"/>
<path d="M191.438 20.0485V24.6917H190.365V20.9108H189.437V20.0485H191.438Z" fill="#00B349"/>
<path d="M196.135 23.3429C196.135 24.2218 195.351 24.769 194.173 24.769C192.996 24.769 192.222 24.2163 192.222 23.3429C192.218 23.1101 192.282 22.8813 192.407 22.6847C192.532 22.4882 192.711 22.3326 192.924 22.2374C192.754 22.1436 192.614 22.0056 192.516 21.8382C192.419 21.6708 192.369 21.4802 192.371 21.2866C192.371 20.4685 193.101 19.96 194.157 19.96C195.212 19.96 195.953 20.4685 195.953 21.2866C195.956 21.4803 195.906 21.6712 195.809 21.8387C195.711 22.0062 195.57 22.144 195.4 22.2374C195.619 22.3269 195.807 22.4802 195.938 22.6773C196.069 22.8743 196.138 23.1062 196.135 23.3429ZM195.03 23.3097C195.03 22.9007 194.693 22.6464 194.157 22.6464C193.62 22.6464 193.294 22.9007 193.294 23.3097C193.294 23.7188 193.626 23.9841 194.157 23.9841C194.687 23.9841 195.046 23.7243 195.046 23.3097H195.03ZM193.46 21.3419C193.46 21.6957 193.742 21.8946 194.179 21.8946C194.615 21.8946 194.908 21.6791 194.908 21.3419C194.908 21.0047 194.615 20.7891 194.179 20.7891C193.742 20.7891 193.46 21.0047 193.46 21.3419Z" fill="#00B349"/>
<path d="M160.593 26.3116C160.528 26.3109 160.463 26.2968 160.403 26.2702C160.343 26.2436 160.289 26.205 160.245 26.1568L156.928 22.4588C156.853 22.3663 156.815 22.2481 156.825 22.1289C156.834 22.0096 156.889 21.8985 156.978 21.8187C157.067 21.7389 157.183 21.6965 157.303 21.7004C157.422 21.7044 157.536 21.7542 157.619 21.8397L160.936 25.5377C161.017 25.6289 161.06 25.7485 161.053 25.8707C161.047 25.9928 160.993 26.1075 160.903 26.19C160.819 26.2688 160.708 26.3123 160.593 26.3116Z" fill="#00B349"/>
<path d="M157.977 15.1562V14.5703H156.087V15.2005C154.181 15.4644 152.447 16.4439 151.237 17.94C150.027 19.4362 149.432 21.3368 149.573 23.2557C149.714 25.1747 150.58 26.9681 151.995 28.2718C153.41 29.5754 155.269 30.2914 157.193 30.2744C159.14 30.2856 161.017 29.5466 162.434 28.2108C163.851 26.8749 164.7 25.0448 164.804 23.1001C164.907 21.1554 164.259 19.2453 162.992 17.7662C161.725 16.2871 159.937 15.3525 158 15.1562H157.977ZM157.17 29.3458C155.859 29.3458 154.576 28.9567 153.485 28.2279C152.394 27.499 151.544 26.463 151.042 25.251C150.54 24.0389 150.409 22.7052 150.665 21.4185C150.921 20.1318 151.552 18.9499 152.48 18.0222C153.408 17.0945 154.59 16.4628 155.876 16.2068C157.163 15.9509 158.497 16.0822 159.709 16.5843C160.921 17.0863 161.957 17.9365 162.686 19.0274C163.415 20.1182 163.804 21.4006 163.804 22.7126C163.796 24.4696 163.095 26.1525 161.853 27.3949C160.61 28.6373 158.927 29.3385 157.17 29.3458Z" fill="#00B349"/>
<path d="M158.294 13.0396H155.773V14.322H158.294V13.0396Z" fill="#00B349"/>
<g opacity="0.6">
<path opacity="0.6" d="M160.592 26.3116C160.527 26.3109 160.462 26.2968 160.402 26.2702C160.342 26.2436 160.289 26.205 160.244 26.1568L156.928 22.4588C156.852 22.3663 156.815 22.2481 156.824 22.1289C156.833 22.0096 156.888 21.8985 156.977 21.8187C157.066 21.7389 157.182 21.6965 157.302 21.7004C157.421 21.7044 157.535 21.7542 157.619 21.8397L160.935 25.5377C161.017 25.6289 161.059 25.7485 161.053 25.8707C161.046 25.9928 160.992 26.1075 160.902 26.19C160.818 26.2688 160.707 26.3123 160.592 26.3116Z" fill="#00B349"/>
<path opacity="0.6" d="M157.977 15.1565V14.5706H156.087V15.2007C154.181 15.4646 152.447 16.4441 151.237 17.9403C150.027 19.4364 149.432 21.337 149.573 23.256C149.714 25.175 150.58 26.9684 151.995 28.272C153.41 29.5756 155.269 30.2917 157.193 30.2747C159.14 30.2858 161.017 29.5469 162.434 28.211C163.851 26.8752 164.7 25.0451 164.804 23.1004C164.907 21.1556 164.259 19.2456 162.992 17.7665C161.725 16.2874 159.937 15.3527 158 15.1565H157.977ZM157.17 29.346C155.859 29.346 154.576 28.957 153.485 28.2281C152.394 27.4993 151.544 26.4633 151.042 25.2512C150.54 24.0392 150.409 22.7055 150.665 21.4188C150.921 20.132 151.552 18.9501 152.48 18.0224C153.408 17.0948 154.59 16.463 155.876 16.2071C157.163 15.9511 158.497 16.0825 159.709 16.5846C160.921 17.0866 161.957 17.9368 162.686 19.0276C163.415 20.1184 163.804 21.4009 163.804 22.7128C163.796 24.4698 163.095 26.1528 161.853 27.3952C160.61 28.6376 158.927 29.3388 157.17 29.346Z" fill="#00B349"/>
<path opacity="0.6" d="M158.293 13.0396H155.773V14.322H158.293V13.0396Z" fill="#00B349"/>
</g>
<path d="M194.048 106.401H196.845C194.463 108.883 191.03 111.332 187.769 113.808L185.558 115.434L185.508 115.467L183.352 113.665C180.588 111.282 177.697 108.795 175.647 106.324H179.798L181.617 100.083L184.331 112.045L186.829 105.92L188.405 109.337L190.284 103.367L192.357 109.193L194.048 106.401Z" fill="#00B349"/>
<path d="M197.437 105.097H193.684L192.506 107.037L190.245 100.653L188.311 106.888L186.818 103.649L184.502 109.26L181.683 96.861L179.312 105.025H175.122C172.551 101.709 171.689 98.4363 175.011 95.5343C179.168 91.8971 183.983 95.2856 186.42 97.4856C188.991 95.4459 194.634 91.2725 198.963 96.7007C201.141 99.4203 199.83 102.389 197.437 105.097Z" fill="#00B349"/>
<path d="M182.407 86.5074V91.1506H181.335V87.3697H180.406V86.5074H182.407Z" fill="#00B349"/>
<path d="M186.68 90.2721V91.151H183.17V90.4545L184.961 88.763C185.37 88.3705 185.448 88.1329 185.448 87.9062C185.448 87.5414 185.193 87.3535 184.701 87.3535C184.515 87.3433 184.329 87.3806 184.161 87.4618C183.992 87.543 183.848 87.6654 183.739 87.8178L182.96 87.3148C183.172 87.0304 183.451 86.8028 183.772 86.6524C184.093 86.5019 184.447 86.4332 184.801 86.4524C185.834 86.4524 186.525 87.0052 186.525 87.8233C186.519 88.1107 186.445 88.3926 186.311 88.6468C186.177 88.901 185.985 89.1205 185.752 89.2881L184.685 90.2942L186.68 90.2721Z" fill="#00B349"/>
<path d="M190.632 89.6913C190.632 90.5094 190.029 91.228 188.703 91.228C188.077 91.24 187.461 91.0669 186.934 90.7305L187.354 89.9069C187.739 90.1825 188.201 90.3295 188.675 90.327C189.228 90.327 189.543 90.1004 189.543 89.7245C189.543 89.3486 189.305 89.122 188.437 89.122H187.249L187.486 86.5074H190.317V87.3697H188.382L188.31 88.2486H188.686C190.09 88.2486 190.632 88.8677 190.632 89.6913Z" fill="#00B349"/>
<path d="M101.951 74.5127H97.949V74.9273H101.951V74.5127Z" fill="#00B349"/>
<path d="M115.32 74.5126H105V74.9272H115.32V74.5126Z" fill="#00B349"/>
<path d="M103.41 152.171H99.3083V151.756C106.163 151.756 113.177 151.756 120.159 151.645V152.06C114.576 152.132 108.954 152.171 103.41 152.171Z" fill="#00B349"/>
<path d="M95.9364 152.143C92.9902 152.143 89.9776 152.099 86.9871 152.055V151.64C89.9776 151.684 92.9846 151.712 95.9309 151.729L95.9364 152.143Z" fill="#00B349"/>
<path d="M83.9794 151.64H80.6296V152.055H83.9794V151.64Z" fill="#00B349"/>
<path d="M122.668 60.9142H109.385V61.3288H122.668V60.9142Z" fill="#00B349"/>
<path d="M107.118 60.914H105.404V61.3286H107.118V60.914Z" fill="#00B349"/>
<path d="M171.145 158.306H161.588V158.721H171.145V158.306Z" fill="#00B349"/>
<path d="M159.15 158.306H153.767V158.721H159.15V158.306Z" fill="#00B349"/>
<path d="M142.13 71.0801C134.391 71.7655 123.751 75.1761 123.999 76.9173L112.867 90.7752L109.379 92.0687C109.379 92.0687 116.681 73.9987 118.577 71.0304C119.903 68.9575 132.706 64.6957 139.4 62.2966C142.29 61.2574 144.927 63.2308 145.767 64.9002C145.767 64.9002 148.542 70.5163 142.13 71.0801Z" fill="#E29471"/>
<path d="M112.866 90.7746L112.612 93.7928C112.533 94.7259 112.095 95.5921 111.39 96.2084L108.687 98.5797C108.529 98.7159 108.327 98.7908 108.118 98.7908C107.909 98.7908 107.707 98.7159 107.549 98.5797L105.713 97.0209C105.55 96.8839 105.443 96.6915 105.412 96.4804C105.382 96.2694 105.43 96.0545 105.547 95.8767L107.609 92.7536L110.097 89.437C110.097 89.437 112.96 89.6138 112.866 90.7746Z" fill="#E29471"/>
<path d="M100.396 170.766L84.9687 176.813C84.521 176.426 81.8953 171.236 81.8953 171.236L95.5763 164.917L100.396 170.766Z" fill="#E29471"/>
<path d="M85.4729 178.245C85.4654 178.212 85.4677 178.178 85.4795 178.146C85.4913 178.115 85.512 178.088 85.5392 178.068C85.568 178.049 85.6016 178.039 85.636 178.039C85.6703 178.039 85.7039 178.049 85.7327 178.068C85.8267 178.134 88.1483 179.693 88.3749 180.876C88.4021 180.984 88.4069 181.097 88.3888 181.207C88.3707 181.318 88.3303 181.423 88.2699 181.517C88.2118 181.633 88.1184 181.728 88.0032 181.787C87.888 181.847 87.7569 181.868 87.6287 181.849C87.1533 181.788 86.6613 181.069 86.2689 180.262C85.9383 179.617 85.6717 178.942 85.4729 178.245ZM87.9659 180.649C87.4315 179.853 86.7483 179.168 85.9538 178.632C86.3628 179.864 87.1588 181.44 87.7061 181.534C87.7779 181.534 87.883 181.534 88.0156 181.335C88.0533 181.278 88.0786 181.215 88.0901 181.148C88.1015 181.082 88.0987 181.013 88.082 180.948C88.0559 180.843 88.0188 180.741 87.9714 180.644L87.9659 180.649Z" fill="#00B349"/>
<path d="M85.5007 178.14C85.5089 178.111 85.5253 178.085 85.5479 178.066C85.5704 178.046 85.5982 178.034 85.6278 178.029C85.7052 178.029 87.4575 177.338 88.5133 177.808C88.6599 177.881 88.7903 177.983 88.8967 178.107C89.003 178.232 89.0832 178.376 89.1323 178.532C89.1996 178.656 89.222 178.799 89.1958 178.937C89.1696 179.075 89.0964 179.199 88.9886 179.29C88.3419 179.759 86.258 178.936 85.5449 178.35L85.5007 178.295V178.14ZM88.3585 178.14C87.5864 177.941 86.7717 177.985 86.0258 178.267C86.8771 178.82 88.4635 179.328 88.8228 179.019C88.856 178.991 88.9499 178.925 88.8504 178.654L88.7841 178.571C88.7033 178.374 88.5514 178.214 88.3585 178.123V178.14Z" fill="#00B349"/>
<path d="M86.1516 176.714L85.1898 175.879C84.6603 175.42 84.2347 174.853 83.9411 174.216C83.6476 173.58 83.4929 172.888 83.4872 172.187V170.528C83.4316 170.403 83.3338 170.3 83.2107 170.238C83.0876 170.177 82.9469 170.16 82.8129 170.191L77.1636 171.186C76.6108 171.33 76.4339 172.574 76.4616 172.634C77.7274 176.576 81.0772 184.795 82.2877 187.443C83.4983 190.091 86.2953 189.251 86.0355 188.051C84.8802 182.684 85.5159 180.169 86.2068 177.974C86.3482 177.562 86.3285 177.112 86.1516 176.714Z" fill="#00B349"/>
<g opacity="0.2">
<path opacity="0.2" d="M90.7899 167.128L95.5768 164.917L100.397 170.766L93.3381 173.53L92.1994 172.142C91.5141 171.309 91.0926 170.291 90.9889 169.218L90.7899 167.128Z" fill="black"/>
</g>
<path d="M118.539 111.233C118.049 112.355 117.695 113.531 117.483 114.737C116.245 121.077 114.52 142.586 113.398 150.761C113.261 151.574 112.919 152.339 112.403 152.982C111.887 153.626 111.216 154.127 110.452 154.437C105.991 156.537 103.094 157.201 93.0339 165.437C94.2444 168.013 95.3997 169.826 96.4997 172.85C96.4997 172.85 115.891 165.398 120.324 161.75C126.852 156.377 134.801 128.142 137.112 120.845C138.422 116.711 139.936 111.763 137.521 108.192C136.161 106.191 122.905 100.1 118.539 111.233Z" fill="#263238"/>
<path d="M143.712 63.4686C145.177 65.1269 145.862 66.2324 145.42 71.0747C144.552 80.4717 145.127 95.4296 144.796 97.7346C144.265 101.25 124.642 101.709 121.049 98.4698L113.923 69.7259C113.692 68.794 113.658 67.824 113.824 66.8782C113.989 65.9324 114.351 65.0317 114.886 64.2341C115.421 63.4365 116.116 62.7596 116.928 62.247C117.74 61.7344 118.65 61.3973 119.6 61.2575C121.231 61.0088 139.257 58.4771 143.712 63.4686Z" fill="#00B349"/>
<path d="M144.818 97.7343C145.368 100.913 145.499 104.151 145.205 107.364C144.726 112.919 146.369 118.449 149.804 122.841C149.804 122.841 124.172 119.11 118.102 112.466L121.049 98.4695C128.97 99.2419 136.959 98.9949 144.818 97.7343Z" fill="#263238"/>
<path d="M127.007 54.0103L126.587 53.6675C125.359 52.1143 124.884 50.3509 124.375 47.5871C124.237 46.874 124.099 46.1057 123.944 45.2544C123.718 44.1261 123.756 42.9607 124.055 41.8494C124.216 41.2727 124.442 40.7164 124.729 40.1911C125.387 42.6454 125.481 45.1936 125.708 47.7087C125.829 49.8616 126.266 51.9849 127.007 54.0103Z" fill="#263238"/>
<path d="M127.554 51.0475C127.864 53.8777 128.08 57.841 126.554 60.0853C126.284 60.4597 126.133 60.9065 126.121 61.3677C126.108 61.8289 126.234 62.2833 126.482 62.6722C127.383 64.0375 129.45 66.0883 134.221 68.4486C135.619 66.724 136.128 65.32 136.222 64.2531C136.265 63.6455 136.121 63.0392 135.809 62.5162C135.496 61.9932 135.031 61.5788 134.475 61.329C132.187 60.2566 132.435 58.8858 133.143 56.7465L127.554 51.0475Z" fill="#E29471"/>
<path opacity="0.2" d="M129.816 53.3471L133.083 56.7466C132.886 57.3095 132.738 57.8884 132.641 58.4768C131.32 58.1728 129.324 56.8185 129.147 55.3371C129.207 54.6297 129.437 53.9471 129.816 53.3471Z" fill="black"/>
<path d="M139.543 50.9919C139.402 52.6238 138.657 54.1444 137.455 55.2574C136.254 56.3703 134.68 56.9957 133.042 57.0115H132.998C131.727 57.0174 130.477 56.6895 129.372 56.0608C128.97 55.8332 128.589 55.5705 128.233 55.2758C128.079 55.1542 127.935 55.0271 127.797 54.911C127.366 54.533 126.97 54.1167 126.614 53.6673C125.387 52.114 124.911 50.3507 124.403 47.5868C124.265 46.8738 124.126 46.1054 123.972 45.2542C123.745 44.1258 123.783 42.9604 124.082 41.8491C124.243 41.2725 124.469 40.7161 124.756 40.1908C124.883 39.9551 125.025 39.7279 125.182 39.5109C126.03 38.2844 127.238 37.352 128.64 36.8429C130.041 36.3338 131.566 36.2733 133.004 36.6697C135.469 37.3275 137.166 39.3285 138.238 41.7828C138.344 42.026 138.443 42.2748 138.537 42.5235C139.489 45.2385 139.832 48.1295 139.543 50.9919Z" fill="#E29471"/>
<path d="M132.496 45.575C132.551 46.0116 132.822 46.3433 133.098 46.3101C133.375 46.277 133.568 45.8845 133.518 45.4478C133.469 45.0111 133.187 44.685 132.91 44.7182C132.634 44.7513 132.468 45.1604 132.496 45.575Z" fill="#263238"/>
<path d="M137.344 44.9671C137.404 45.4149 137.675 45.7355 137.952 45.7023C138.228 45.6691 138.421 45.2767 138.366 44.84C138.311 44.4033 138.04 44.0772 137.764 44.1158C137.487 44.1545 137.294 44.5304 137.344 44.9671Z" fill="#263238"/>
<path d="M135.973 45.9511C136.481 46.9005 137.115 47.7764 137.858 48.5546C137.658 48.7397 137.42 48.879 137.16 48.963C136.9 49.047 136.626 49.0736 136.355 49.0411L135.973 45.9511Z" fill="#EA573F"/>
<path d="M130.446 44.8341C130.5 44.8359 130.554 44.8202 130.599 44.7894C130.643 44.7586 130.677 44.7142 130.695 44.6628C130.881 44.2889 131.142 43.9578 131.463 43.6904C131.784 43.423 132.156 43.2252 132.558 43.1095C132.623 43.089 132.678 43.0445 132.712 42.9851C132.746 42.9256 132.756 42.8555 132.74 42.7889C132.732 42.7568 132.718 42.7266 132.699 42.7C132.679 42.6734 132.654 42.651 132.626 42.634C132.598 42.617 132.566 42.6059 132.534 42.6011C132.501 42.5964 132.468 42.5982 132.436 42.6065C131.953 42.7407 131.505 42.9783 131.124 43.3028C130.742 43.6273 130.435 44.031 130.225 44.4859C130.213 44.5175 130.208 44.551 130.21 44.5845C130.212 44.618 130.22 44.6509 130.234 44.6812C130.249 44.7115 130.269 44.7387 130.294 44.7611C130.319 44.7836 130.348 44.8009 130.38 44.812C130.4 44.8237 130.423 44.8313 130.446 44.8341Z" fill="#263238"/>
<path d="M138.521 42.5022C138.566 42.5027 138.611 42.4919 138.652 42.4706C138.693 42.4494 138.727 42.4185 138.753 42.3806C138.788 42.3216 138.799 42.2512 138.784 42.1841C138.768 42.1171 138.728 42.0587 138.67 42.0213C138.333 41.787 137.944 41.6406 137.536 41.5952C137.129 41.5498 136.717 41.607 136.337 41.7615C136.277 41.7881 136.23 41.8373 136.207 41.8984C136.183 41.9594 136.184 42.0274 136.21 42.0876C136.223 42.1179 136.242 42.1453 136.266 42.1682C136.29 42.1911 136.318 42.209 136.349 42.2208C136.38 42.2326 136.413 42.2382 136.446 42.2371C136.479 42.2361 136.512 42.2285 136.542 42.2147C136.841 42.1026 137.164 42.0646 137.482 42.1041C137.799 42.1436 138.103 42.2593 138.366 42.4414C138.41 42.477 138.464 42.4983 138.521 42.5022Z" fill="#263238"/>
<path opacity="0.2" d="M127.007 49.0518C126.78 49.3503 126.051 47.7584 125.68 47.681C125.242 47.5907 124.795 47.5554 124.348 47.576C124.21 46.8629 124.072 46.0945 123.917 45.2433C123.691 44.1149 123.729 42.9495 124.027 41.8382C124.188 41.2616 124.415 40.7052 124.702 40.1799C124.669 40.0436 124.63 39.9054 124.586 39.7653C124.762 39.6607 124.947 39.5719 125.138 39.5C125.566 39.3335 126.03 39.2857 126.482 39.3618C126.817 39.4408 127.128 39.5989 127.39 39.823C127.652 40.0471 127.856 40.3306 127.985 40.6498C126.117 44.1156 127.709 48.1342 127.007 49.0518Z" fill="black"/>
<path d="M126.576 53.6566C124.525 51.9209 122.707 49.7872 121.889 47.2113C121.481 45.7601 121.468 44.2262 121.852 42.7683C122.236 41.3105 123.002 39.9818 124.072 38.9198C124.238 38.7595 124.514 38.8314 124.724 38.9198C124.935 39.0082 124.42 39.1851 124.481 39.362C124.542 39.5389 124.553 39.6108 124.586 39.7268C124.619 39.8429 124.669 40.0032 124.702 40.1414C124.415 40.6667 124.189 41.2231 124.028 41.7997C123.729 42.911 123.691 44.0764 123.917 45.2048C124.072 46.056 124.21 46.8244 124.349 47.5374C124.874 50.3289 125.349 52.1033 126.576 53.6566Z" fill="#263238"/>
<path d="M122.989 49.5603C123.438 50.4792 124.233 51.1828 125.2 51.5171C126.477 51.9372 127.179 50.793 126.858 49.5272C126.571 48.3885 125.576 46.802 124.271 46.9071C123.981 46.9448 123.705 47.0543 123.468 47.2255C123.231 47.3968 123.041 47.6244 122.914 47.8879C122.787 48.1513 122.728 48.4422 122.742 48.7343C122.756 49.0263 122.843 49.3102 122.994 49.5603H122.989Z" fill="#E29471"/>
<path d="M183.103 178.499L184.379 195.021C183.876 195.336 178.365 197.906 178.144 196.331C177.481 191.516 176.104 181.406 176.104 181.406L183.103 178.499Z" fill="#E29471"/>
<path d="M185.894 194.959C185.86 194.957 185.828 194.945 185.802 194.924C185.775 194.903 185.755 194.875 185.744 194.843C185.734 194.811 185.733 194.776 185.743 194.743C185.753 194.711 185.773 194.682 185.8 194.661C185.888 194.584 188.061 192.826 189.255 192.947C189.367 192.953 189.477 192.982 189.578 193.033C189.679 193.083 189.768 193.154 189.84 193.24C189.934 193.329 189.997 193.446 190.02 193.573C190.043 193.701 190.024 193.832 189.968 193.948C189.774 194.39 188.945 194.65 188.055 194.788C187.342 194.914 186.618 194.972 185.894 194.959ZM188.923 193.301C188.004 193.578 187.149 194.031 186.402 194.633C187.701 194.6 189.442 194.307 189.691 193.81C189.719 193.738 189.741 193.638 189.592 193.45C189.548 193.399 189.495 193.358 189.435 193.327C189.375 193.297 189.31 193.279 189.243 193.274C189.135 193.262 189.026 193.262 188.917 193.274L188.923 193.301Z" fill="#00B349"/>
<path d="M185.8 194.899C185.775 194.884 185.756 194.861 185.744 194.835C185.733 194.808 185.729 194.779 185.733 194.75C185.733 194.667 185.606 192.793 186.364 191.926C186.476 191.806 186.611 191.711 186.761 191.646C186.911 191.58 187.073 191.546 187.237 191.544C187.375 191.515 187.519 191.535 187.644 191.601C187.769 191.666 187.868 191.773 187.922 191.903C188.182 192.655 186.784 194.413 186.015 194.922L185.949 194.949L185.8 194.899ZM186.618 192.169C186.206 192.848 186.013 193.637 186.065 194.43C186.828 193.777 187.795 192.406 187.602 191.981C187.602 191.942 187.552 191.832 187.259 191.843L187.165 191.887C186.953 191.907 186.757 192.008 186.618 192.169Z" fill="#00B349"/>
<path d="M184.616 193.867L177.917 194.613C177.778 194.628 177.649 194.692 177.553 194.793C177.457 194.894 177.4 195.026 177.392 195.166L176.701 200.859C176.668 201.412 177.806 201.965 177.873 201.965C182.013 201.904 190.841 201.102 193.743 200.715C196.645 200.328 196.639 197.399 195.401 197.31C189.928 196.846 187.706 195.508 185.81 194.204C185.471 193.941 185.043 193.82 184.616 193.867Z" fill="#00B349"/>
<g opacity="0.2">
<path opacity="0.2" d="M176.791 186.403L176.105 181.401L183.103 178.499L183.545 185.265L176.791 186.403Z" fill="black"/>
</g>
<path d="M133.794 116.827C137.31 123.034 154.402 137.517 162.649 149.893C164.899 153.276 170.332 176.575 175.556 183.175L183.847 182.413C186.849 176.575 179.762 146.394 179.762 146.394C177.27 133.128 162.483 118.369 146.182 103.417C143.446 100.913 139.377 100.155 135.281 102.593C134.518 103.035 130.389 110.802 133.794 116.827Z" fill="#263238"/>
<path d="M137.493 107.12C136.841 107.269 136.161 106.86 135.663 106.014C135.145 105.131 134.849 104.135 134.801 103.112L132.994 105.456C132.861 105.695 132.669 105.896 132.435 106.039C132.202 106.181 131.935 106.26 131.661 106.268C131.526 106.253 131.395 106.209 131.278 106.14C131.161 106.07 131.06 105.976 130.981 105.865C130.85 105.661 130.761 105.432 130.719 105.193C130.678 104.954 130.684 104.709 130.738 104.472C130.953 103.589 131.497 102.822 132.258 102.326C133.019 101.83 133.94 101.643 134.834 101.802L134.768 101.564L135.321 101.415L135.354 101.548L135.475 101.393V101.625C135.891 101.548 136.32 101.583 136.718 101.726C137.116 101.868 137.47 102.114 137.742 102.438C138.307 103.17 138.619 104.066 138.632 104.992C138.687 105.837 138.433 106.904 137.554 107.114L137.493 107.12ZM135.37 102.211V102.322C135.267 103.514 135.535 104.71 136.139 105.743C136.426 106.23 136.879 106.705 137.388 106.589C137.979 106.445 138.085 105.539 138.051 105.025C138.043 104.225 137.777 103.45 137.294 102.814C137.104 102.592 136.866 102.416 136.598 102.3C136.329 102.184 136.038 102.131 135.746 102.145L135.393 102.233L135.37 102.211ZM133.557 102.349C133.202 102.429 132.865 102.573 132.562 102.775C132.238 102.976 131.957 103.239 131.735 103.549C131.513 103.86 131.355 104.211 131.269 104.582C131.194 104.91 131.247 105.255 131.418 105.544C131.453 105.595 131.498 105.638 131.55 105.67C131.603 105.703 131.661 105.724 131.722 105.732C132.032 105.765 132.319 105.445 132.568 105.124L134.685 102.36H134.586L134.558 102.261C134.222 102.227 133.882 102.257 133.557 102.349Z" fill="#00B349"/>
<path d="M131.076 114.599L130.617 114.312C132.881 110.682 134.179 106.534 134.387 102.261H134.94C134.727 106.636 133.397 110.884 131.076 114.599Z" fill="#00B349"/>
<path d="M141.81 114.494L141.257 114.56C140.676 109.948 138.41 105.712 134.894 102.67L135.248 102.261C138.87 105.389 141.207 109.746 141.81 114.494Z" fill="#00B349"/>
<path d="M93.9624 167.344L93.7137 166.863C99.7941 163.685 115.625 154.702 115.625 151.336C115.625 144.432 122.38 99.0499 122.447 98.5966L122.999 98.674C122.933 99.1328 116.189 144.476 116.189 151.336C116.189 155.703 94.8855 166.874 93.9624 167.344Z" fill="white"/>
<path d="M115.282 65.0379C116.012 62.8269 120.583 62.4068 122.026 64.1535C128.244 71.6988 135.148 78.7189 135.148 78.7189L152.478 75.1315L155.291 77.5692C155.291 77.5692 137.398 86.5295 133.871 86.5351C130.091 86.5351 120.981 77.7516 116.183 72.4837C113.071 69.0289 115.282 65.0379 115.282 65.0379Z" fill="#E29471"/>
<path d="M152.478 75.1312L155.242 73.9041C156.097 73.523 157.066 73.4893 157.945 73.8101L161.322 75.0428C161.518 75.1141 161.681 75.2532 161.783 75.4348C161.884 75.6164 161.917 75.8284 161.875 76.0322L161.389 78.3926C161.349 78.6024 161.232 78.7898 161.061 78.9185C160.891 79.0471 160.678 79.1079 160.466 79.089L156.734 78.785L152.638 78.1936C152.638 78.1936 151.417 75.6011 152.478 75.1312Z" fill="#E29471"/>
<path d="M154.159 79.0231L152.938 79.902L150.793 75.3528L152.136 74.7226L154.159 79.0231Z" fill="#263238"/>
<path d="M150.215 75.1397L152.215 74.1972C152.347 74.1348 152.499 74.1275 152.637 74.1771C152.775 74.2267 152.888 74.329 152.95 74.4617L153.127 74.8367L150.127 76.2504L149.95 75.8754C149.888 75.7428 149.88 75.5907 149.93 75.4528C149.98 75.3148 150.082 75.2022 150.215 75.1397Z" fill="#263238"/>
<path d="M122.58 44.7738C123.21 42.6733 125.2 41.2416 127.256 40.4899C129.313 39.7381 131.529 39.4894 133.619 38.8316C135.006 38.3893 136.532 37.516 136.67 36.0677C136.682 35.6186 136.588 35.1729 136.396 34.7667C136.204 34.3605 135.919 34.0052 135.564 33.7295C134.851 33.1851 134.056 32.7561 133.21 32.4582C132.6 32.1436 131.916 31.9985 131.231 32.038C130.891 32.0731 130.578 32.2383 130.358 32.499C130.137 32.7597 130.026 33.0957 130.048 33.4366C128.279 32.331 125.626 32.624 123.967 33.8953C122.862 34.7521 122.127 36.427 122.961 37.5602C122 37.0738 120.43 37.6265 119.888 38.5552C119.631 39.0291 119.556 39.5805 119.677 40.1058C119.798 40.631 120.107 41.0939 120.546 41.4075C119.081 41.3467 117.727 42.9497 118.279 44.304C118.832 45.6582 122.154 46.1723 122.58 44.7738Z" fill="#263238"/>
<path d="M136.427 50.5944C136.127 51.466 135.891 52.3583 135.72 53.2642H135.228C133.017 53.1813 132.033 52.4185 131.596 51.6059C131.39 51.1983 131.286 50.747 131.292 50.2903C131.287 50.0329 131.319 49.7761 131.386 49.5275C132.525 50.2682 134.576 50.5004 135.676 50.5778C136.134 50.5944 136.427 50.5944 136.427 50.5944Z" fill="#263238"/>
<path d="M135.676 50.5558L135.443 51.3407C133.371 51.2578 131.922 50.9206 131.292 50.2683C131.287 50.0109 131.319 49.754 131.386 49.5055C132.525 50.2462 134.576 50.4784 135.676 50.5558Z" fill="white"/>
<path d="M135.227 53.253C133.016 53.1701 132.032 52.4072 131.596 51.5947C132.431 51.6346 133.252 51.8217 134.022 52.1474C134.53 52.3802 134.952 52.767 135.227 53.253Z" fill="#DE5753"/>
</svg>
