<svg width="35" height="36" viewBox="0 0 35 36" fill="none" xmlns="http://www.w3.org/2000/svg">
<path d="M28.6132 0.567566C30.2848 0.567566 31.8879 1.23159 33.0699 2.41357C34.2518 3.59555 34.9159 5.19866 34.9159 6.87023V29.172C34.9159 30.8435 34.2518 32.4467 33.0699 33.6286C31.8879 34.8106 30.2848 35.4746 28.6132 35.4746H6.31145C4.63988 35.4746 3.03678 34.8106 1.8548 33.6286C0.672818 32.4467 0.00878906 30.8435 0.00878906 29.172V6.87023C0.00878906 5.19866 0.672818 3.59555 1.8548 2.41357C3.03678 1.23159 4.63988 0.567566 6.31145 0.567566H28.6132ZM29.738 32.3737L18.4804 21.347C18.2349 21.1063 17.9119 20.9604 17.569 20.9352C17.226 20.91 16.8852 21.0071 16.6071 21.2093L16.4442 21.345L5.18279 32.3737C5.53574 32.4978 5.91584 32.5657 6.31145 32.5657H28.6132C29.0069 32.5657 29.387 32.4978 29.738 32.3737L18.4804 21.347L29.738 32.3718V32.3737ZM28.6132 3.47649H6.31145C5.41138 3.47649 4.54817 3.83404 3.91172 4.47049C3.27527 5.10694 2.91771 5.97015 2.91771 6.87023V29.172C2.91771 29.5753 2.98753 29.9632 3.11746 30.3239L14.4099 19.2681C15.184 18.5102 16.2123 18.0675 17.2948 18.0259C18.3773 17.9843 19.4366 18.3469 20.2665 19.0431L20.5148 19.2681L31.8053 30.3258C31.9352 29.9651 32.0069 29.5773 32.0069 29.172V6.87023C32.0069 5.97015 31.6494 5.10694 31.0129 4.47049C30.3765 3.83404 29.5133 3.47649 28.6132 3.47649ZM23.7689 7.35505C24.9271 7.35505 26.038 7.81517 26.857 8.63419C27.676 9.45321 28.1361 10.564 28.1361 11.7223C28.1361 12.8806 27.676 13.9914 26.857 14.8104C26.038 15.6295 24.9271 16.0896 23.7689 16.0896C22.6106 16.0896 21.4998 15.6295 20.6807 14.8104C19.8617 13.9914 19.4016 12.8806 19.4016 11.7223C19.4016 10.564 19.8617 9.45321 20.6807 8.63419C21.4998 7.81517 22.6106 7.35505 23.7689 7.35505ZM23.7689 10.264C23.3821 10.264 23.0112 10.4176 22.7377 10.6911C22.4642 10.9646 22.3105 11.3355 22.3105 11.7223C22.3105 12.1091 22.4642 12.48 22.7377 12.7535C23.0112 13.027 23.3821 13.1807 23.7689 13.1807C24.1556 13.1807 24.5266 13.027 24.8001 12.7535C25.0736 12.48 25.2272 12.1091 25.2272 11.7223C25.2272 11.3355 25.0736 10.9646 24.8001 10.6911C24.5266 10.4176 24.1556 10.264 23.7689 10.264Z" fill="#828282"/>
</svg>
