<svg width="40" height="34" viewBox="0 0 40 34" fill="none" xmlns="http://www.w3.org/2000/svg">
<path d="M33.4559 0.540147C34.2836 0.540147 35.1031 0.703171 35.8678 1.01991C36.6325 1.33665 37.3273 1.8009 37.9125 2.38616C38.4978 2.97141 38.962 3.66621 39.2788 4.43089C39.5955 5.19556 39.7585 6.01514 39.7585 6.84281V27.2111C39.7585 28.0388 39.5955 28.8583 39.2788 29.623C38.962 30.3877 38.4978 31.0825 37.9125 31.6678C37.3273 32.253 36.6325 32.7173 35.8678 33.034C35.1031 33.3507 34.2836 33.5138 33.4559 33.5138H7.27557C5.604 33.5138 4.00089 32.8497 2.81891 31.6678C1.63693 30.4858 0.9729 28.8827 0.9729 27.2111V6.84087C0.9729 5.1693 1.63693 3.5662 2.81891 2.38422C4.00089 1.20224 5.604 0.538208 7.27557 0.538208H33.4559V0.540147ZM33.4559 3.44907H7.27557C6.37549 3.44907 5.51228 3.80662 4.87583 4.44307C4.23938 5.07953 3.88182 5.94274 3.88182 6.84281V27.2111C3.88182 29.0844 5.40222 30.6048 7.27557 30.6048H33.4559C34.3559 30.6048 35.2192 30.2473 35.8556 29.6108C36.4921 28.9744 36.8496 28.1112 36.8496 27.2111V6.84087C36.8496 5.9408 36.4921 5.07759 35.8556 4.44114C35.2192 3.80469 34.3559 3.44713 33.4559 3.44713V3.44907ZM12.6377 10.956C13.7935 10.956 14.6138 11.1151 15.5505 11.565C15.694 11.6339 15.8225 11.7303 15.9287 11.8489C16.035 11.9675 16.1168 12.1058 16.1696 12.256C16.2223 12.4062 16.245 12.5653 16.2363 12.7242C16.2275 12.8832 16.1876 13.0388 16.1187 13.1823C16.0498 13.3258 15.9533 13.4544 15.8348 13.5606C15.7162 13.6668 15.5779 13.7486 15.4277 13.8014C15.2775 13.8542 15.1184 13.8768 14.9595 13.8681C14.8005 13.8594 14.6448 13.8194 14.5013 13.7505C13.9195 13.4713 13.4541 13.3821 12.6377 13.3821C10.9563 13.3821 9.721 14.9257 9.721 17.0124C9.721 19.101 10.9583 20.6505 12.6377 20.6505C13.4677 20.6505 14.1717 20.3014 14.5382 19.6789L14.5479 19.6498V18.2264H13.8187C13.5285 18.2264 13.248 18.1222 13.028 17.9329C12.8081 17.7436 12.6634 17.4817 12.6202 17.1947L12.6086 17.0163C12.6086 16.4074 13.0566 15.9031 13.6422 15.8159L13.8206 15.8042H15.7638C16.3727 15.8042 16.875 16.2503 16.9623 16.8359L16.9759 17.0163L16.972 20.0164L16.9603 20.125L16.9196 20.2995L16.8808 20.4062C16.1497 22.1321 14.4742 23.0746 12.6377 23.0746C9.48441 23.0746 7.2969 20.3344 7.2969 17.0124C7.2969 13.6904 9.48247 10.956 12.6377 10.956ZM21.5855 11.1926C22.1945 11.1926 22.6987 11.6425 22.784 12.2263L22.7976 12.4047V21.6415C22.797 21.947 22.681 22.2411 22.4728 22.4647C22.2647 22.6884 21.9797 22.8252 21.675 22.8478C21.3703 22.8703 21.0683 22.7769 20.8295 22.5864C20.5907 22.3958 20.4326 22.122 20.3871 21.8199L20.3735 21.6415V12.4047C20.3735 11.7356 20.9165 11.1926 21.5855 11.1926ZM27.3956 11.1926L31.2684 11.2062C31.5756 11.2054 31.8716 11.3213 32.0966 11.5304C32.3216 11.7395 32.4589 12.0263 32.4805 12.3327C32.5022 12.6391 32.4067 12.9424 32.2134 13.1811C32.02 13.4198 31.7433 13.5762 31.439 13.6187L31.2606 13.6303L28.6018 13.6206V17.0221H30.7797C31.3886 17.0221 31.8928 17.472 31.9781 18.0577L31.9917 18.2361C31.9916 18.5266 31.8872 18.8074 31.6975 19.0273C31.5078 19.2473 31.2454 19.3918 30.9581 19.4346L30.7797 19.4481L28.6018 19.4462V21.6085C28.6023 21.899 28.4984 22.18 28.309 22.4004C28.1196 22.6207 27.8574 22.7657 27.5702 22.8089L27.3917 22.8206C27.1012 22.821 26.8202 22.7171 26.5999 22.5277C26.3795 22.3384 26.2346 22.0762 26.1913 21.7889L26.1797 21.6085V12.4008C26.1808 12.1107 26.2859 11.8306 26.4759 11.6114C26.6659 11.3922 26.9283 11.2484 27.2153 11.2062L27.3956 11.1926Z" fill="#828282"/>
</svg>
