<svg width="1719" height="294" viewBox="0 0 1719 294" fill="none" xmlns="http://www.w3.org/2000/svg">
<g opacity="0.58">
<path d="M1200.39 294.733C1198.91 293.239 1201.9 288.776 1204.88 288.785L1213.82 288.81C1215.02 288.814 1219.29 289.819 1221.27 290.322L1230.21 290.347C1231.41 290.35 1227.75 283.385 1225.77 279.902C1225.28 279.901 1224.58 279.601 1225.78 278.412C1226.97 277.223 1230.25 276.934 1231.74 276.939L1239.19 276.96C1239.19 277.457 1239.78 278.75 1242.17 279.949L1254.09 279.983C1257.07 279.991 1258.56 278.505 1263.03 278.518C1267.5 278.531 1266.02 277.036 1270.48 278.539C1274.95 280.042 1276.47 271.105 1279.42 280.055C1282.38 289.005 1285.37 286.033 1283.86 290.499C1282.36 294.966 1274.93 288.984 1279.38 294.958C1270.38 315.796 1268.88 317.282 1264.41 318.76C1253.97 321.711 1289.71 329.264 1248.01 321.694C1206.3 314.124 1210.78 312.646 1203.33 311.135C1195.88 309.623 1201.85 308.15 1192.9 309.615C1183.96 311.08 1182.46 314.056 1179.49 308.086C1176.53 302.117 1173.54 303.599 1176.54 299.136C1179.53 294.674 1181.02 294.678 1184 294.687L1200.39 294.733Z" fill="#D8D8D8"/>
<path d="M792.087 0.675587L789.885 1.34803L773.362 1.37488L770.058 2.04911L773.363 2.04374L765.653 2.72514L753.536 3.41368L757.944 4.07538L741.421 4.7711L731.508 5.45606L721.596 6.8099L746.93 5.43099L748.031 4.76035L753.54 5.42027L756.843 4.74603L759.047 5.41131L761.251 5.40772L764.556 6.07121L806.417 6.00316L786.586 4.69769L795.399 4.68336L794.296 4.01629L816.33 5.31819L814.124 3.98406L819.633 4.64396L819.631 3.30626L817.428 3.30982L813.021 2.64814L807.514 3.32595L805.31 2.66067L802.004 1.99719L795.395 2.67678L795.394 2.00792L802.004 1.99719L804.207 1.9936L799.799 1.33191L807.511 1.31937L811.918 1.98108L816.323 1.30505L813.02 1.97928L824.034 1.29251L815.223 1.9757L828.443 2.62307L829.542 1.28357L835.051 1.94347L833.949 1.27641L835.05 1.27462L835.049 0.605756L828.441 1.28535L832.846 0.609338L792.087 0.675587ZM835.05 1.27462L844.964 1.2585L840.557 0.596806L835.05 1.27462ZM895.636 0.507275L902.247 1.16539L904.45 1.1618L897.839 0.615166L895.636 0.507275ZM897.839 0.615166L898.757 0.613677L896.738 0.505492L897.839 0.615166ZM898.757 0.613677L906.653 1.15823L908.856 1.15465L916.568 1.81096L894.536 1.17793L906.654 1.82709L900.045 1.83782L912.163 2.48698L916.569 2.47982L922.078 3.13973L907.757 2.49415L912.164 3.15583L914.368 3.82112L916.571 3.81754L922.079 3.80858L923.181 3.80679L919.875 3.14331L931.995 4.46133L922.079 3.80858L926.67 4.3585L928.69 4.4667L927.588 4.4685L919.877 4.48102L927.589 5.13736L923.183 5.14452L931.997 5.79904L930.896 6.46969L935.302 5.79366L931.998 6.4679L940.812 7.12243L938.61 7.79487L945.219 7.78413L943.017 8.45657L945.22 8.45298L955.136 9.10573L958.443 10.4381L977.169 10.4076L970.561 11.0872L979.374 11.0729L980.476 11.74L983.781 11.7346L981.579 12.407L985.985 12.3999L985.986 13.0687L988.831 12.5067L988.188 12.3963L989.015 12.4507L989.29 12.3945L990.208 12.5045L999.205 13.0472L992.594 11.7203L998.102 11.7113L992.593 11.0514L998.1 11.0425L988.184 9.72087L995.896 10.3772L985.98 9.0556L995.895 9.70834L991.488 9.04664L998.098 9.70476L991.487 8.37778L998.097 9.03588L1000.3 9.03232L992.588 8.376L1001.4 9.03052L998.096 8.36704L989.281 7.04366L995.892 7.70176L994.789 7.0347L1005.81 8.35451L1002.5 7.69103L1008.01 7.68207L1004.7 7.01857L999.196 7.02753L995.89 6.36405L992.585 6.36941L990.381 5.70413L983.771 5.71489L982.118 5.38313L981.567 5.0496L978.262 5.05498L974.956 4.39149L968.347 4.40223L966.143 3.73697L956.228 3.75307L954.024 3.0878L947.415 3.09856L944.109 2.43505L935.296 2.44939L931.99 1.78589L923.178 1.80023L919.872 1.13674L911.059 1.15106L898.757 0.613677ZM1008.01 7.68207L1006.91 8.35272L1012.42 8.34376L1019.03 9.00187L1015.72 8.3384L1013.52 8.34197L1010.21 7.67848L1008.01 7.68207ZM1015.72 8.3384L1018.29 8.78011L1016.82 8.33658L1015.72 8.3384ZM1018.29 8.78011L1019.03 9.00187L1019.58 9.00098L1018.29 8.78011ZM1019.58 9.00098L1019.95 9.05612L1020.04 9.05597L1022.79 9.21871L1022.33 8.9965L1019.58 9.00098ZM1022.33 8.9965L1023.25 9.27372L1022.79 9.27445L1023.43 9.32914L1024.54 9.66177L1027.84 9.65641L1030.05 10.3217L1032.8 10.3172L1028.94 9.6546L1026.46 9.49144L1022.33 8.9965ZM1032.8 10.3172L1036.66 10.9798L1034.45 10.3145L1032.8 10.3172ZM1034.45 10.3145L1035.83 10.4795L1035.55 10.3127L1034.45 10.3145ZM1035.83 10.4795L1036.66 10.9798L1039.96 10.9744L1035.83 10.4795ZM1039.96 10.9744L1042.35 11.2492L1041.06 10.9726L1039.96 10.9744ZM1042.35 11.2492L1044.37 11.6361L1046.02 11.6334L1042.35 11.2492ZM1046.02 11.6334L1046.85 11.7436L1046.57 11.6325L1046.02 11.6334ZM1046.85 11.7436L1048.78 12.2978L1052.08 12.2924L1046.85 11.7436ZM1052.08 12.2924L1054.28 12.9577L1055.94 12.955L1052.08 12.2924ZM1055.94 12.955L1059.79 13.6176L1056.49 12.9541L1055.94 12.955ZM1022.79 9.27445L1020.04 9.05597L1023.43 9.66356L1022.79 9.27445ZM990.208 12.5045L989.015 12.4507L988.831 12.5067L999.206 13.7161L990.208 12.5045ZM927.588 4.4685L926.67 4.3585L916.571 3.81754L927.588 4.4685ZM916.568 1.81096L906.653 1.15823L904.45 1.1618L916.568 1.81096ZM760.144 2.06522L757.942 2.73766L764.55 2.05806L760.144 2.06522ZM764.55 2.05806L759.043 2.73587L766.753 2.05449L764.55 2.05806ZM749.129 2.75199L748.028 3.42264L751.332 2.74841L749.129 2.75199ZM748.028 3.42264L741.42 4.10223L752.435 3.41548L756.84 2.73945L748.028 3.42264ZM720.491 4.80511L720.216 4.97278L722.694 4.80154L720.491 4.80511ZM720.491 4.80511L712.781 5.4865L718.747 5.08664L720.491 4.80511ZM718.747 5.08664L716.086 5.48114L719.849 5.19633L720.216 4.97278L718.747 5.08664ZM719.849 5.19633L719.391 5.47577L724.897 4.79795L719.849 5.19633ZM716.086 5.48114L712.781 5.4865L705.071 6.1679L702.869 6.84033L716.086 5.48114ZM702.869 6.84033L697.361 6.84929L690.753 7.52889L683.044 8.87913L675.334 9.56052L682.218 8.99195L678.639 9.55516L663.221 12.2557L652.207 13.6113L664.322 12.2539L663.222 12.9245L685.248 9.54441L686.351 10.2115L703.974 8.84511L699.568 8.85228L691.858 9.53367L695.161 8.85944L688.552 8.87018L683.778 8.87794L688 8.53665L688.552 8.87018L692.957 8.19416L687.449 8.20311L696.261 7.51994L702.869 6.84033ZM678.639 9.55516L675.334 9.56052L676.435 9.33579L667.624 10.2419L669.092 9.79363L665.421 10.2455L664.319 10.2473L662.117 10.9197L658.812 10.9251L657.711 11.2613L656.61 11.5975L655.509 11.5993L653.948 11.7133L652.205 12.2736L663.219 10.9179L678.639 9.55516ZM652.205 12.2736L650.002 12.2771L653.948 11.7133L649.451 12.1108L637.887 13.6346L634.032 14.3097L632.38 14.3124L623.569 15.6644L622.468 15.6662L621.367 16.3368L610.354 17.6925L606.316 18.3679L604.847 18.3703L603.103 18.9305L602.92 18.9308L602.277 19.0433L600.442 19.0463L599.524 19.3265L596.587 19.7214L596.036 19.7223L595.577 19.8345L591.631 20.3983L591.081 20.7336L594.109 20.2828L598.239 19.7187L597.689 19.7196L598.973 19.4946L598.239 19.7187L592.825 20.6193L590.622 20.9573L590.622 21.0131L590.531 21.069L586.125 21.745L585.942 21.7453L584.015 22.1386L583.005 22.3074L582.271 22.4201L578.416 23.0952L576.214 23.7677L570.708 24.4455L575.847 23.5453L577.315 23.097L579.058 22.5926L571.808 23.7748L569.606 24.4473L565.201 25.1233L564.742 25.347L564.1 25.7939L562.448 25.7966L559.695 26.47L557.493 27.1424L556.942 27.1433L556.024 27.3677L555.291 27.8148L552.537 27.8193L548.682 28.4944L545.379 29.1687L545.103 29.1691L542.075 29.8429L549.784 28.4927L546.48 29.1669L542.075 29.8429L544.277 29.1705L529.961 31.8692L534.366 31.1931L535.835 30.9678L534.917 31.1923L534.366 31.1931L532.164 31.8656L529.961 31.8692L528.861 32.5398L527.759 32.5416L525.924 33.102L525.373 33.2143L524.455 33.2158L522.987 33.6641L522.437 33.7765L522.253 33.8883L523.355 33.8865L516.013 35.2361L522.253 33.8883L521.794 33.889L522.437 33.7765L523.354 33.2176L514.269 35.239L513.443 35.2403L512.984 35.5197L511.241 35.9127L512.801 35.6315L514.177 35.3506L513.443 35.5747L512.526 35.7992L512.342 35.911L508.213 36.8095L509.039 36.5852L512.526 35.7992L512.801 35.6315L505.735 37.2594L504.633 37.2612L504.634 37.4842L502.431 37.9336L504.634 37.5956L493.255 40.1224L498.027 39.2785L504.634 37.6514L504.634 37.9301L506.836 37.2576L510.232 36.5275L504.634 37.9301L498.027 39.2785L494.357 40.1763L493.622 40.289L493.255 40.401L493.898 40.2885L492.521 40.6252L488.116 41.3012L485.455 41.9744L485.18 41.9748L488.116 41.3012L484.812 41.9754L483.711 42.3117L479.307 43.3221L482.61 42.6479L480.408 43.3203L479.307 43.3221L474.536 44.7791L489.219 41.9683L467.195 46.6861L461.689 48.0328L463.891 47.3603L463.983 47.3044L466.369 46.6874L464.992 46.6897L458.385 48.707L458.936 48.7061L456.183 49.3794L451.779 50.7243L449.576 50.7279L436.364 54.7625L435.262 54.7643L433.06 55.4367L431.959 56.1074L429.757 56.7798L427.554 56.7834L416.544 60.1456L415.443 60.8162L411.039 62.1611L409.937 62.1629L405.533 63.5078L404.433 64.1784L400.029 65.5233L398.927 65.5251L396.725 66.1975L395.625 66.8682L389.018 68.8855L387.917 68.8873L385.715 69.5597L384.614 70.2304L380.21 71.5753L379.11 72.2459L374.705 73.5908L373.604 73.5926L371.402 74.265L370.301 74.9356L361.493 77.6254L360.392 78.2961L358.19 78.9685L357.089 78.9703L357.089 79.3047L353.786 80.3134L352.686 80.984L349.383 81.9927L348.282 82.3289L348.098 82.4407L342.777 84.3444L338.373 85.6893L338.924 85.6884L333.97 87.703L329.566 89.0479L325.162 91.0616L322.961 91.957L314.153 95.0927L315.254 94.422L308.65 97.7771L306.448 98.4495L300.943 100.465L303.145 99.7926L299.842 101.136L298.008 101.808L297.732 101.919L295.255 102.815L290.485 104.83L294.338 103.151L291.035 104.494L288.559 105.669L288.375 105.725L287.733 105.837L286.907 106.34L285.898 106.732L286.632 106.508L285.348 107.012L283.33 107.851L281.403 108.69L282.229 108.522L281.129 109.192L278.927 109.865L277.55 110.369L281.403 108.69L281.128 108.746L283.33 107.851L282.229 108.187L281.128 108.524L282.779 107.852L278.925 109.196L277.825 109.867L274.522 111.21L277.275 110.202L276.724 110.537L274.522 111.21L274.523 111.433L273.422 111.88L274.523 111.488L274.523 111.544L273.881 111.88L273.422 111.88L272.321 112.551L270.12 113.558L266.817 114.567L266.266 114.902L262.414 116.58L263.606 116.188L262.231 116.859L266.818 115.235L260.763 117.921L265.717 115.906L273.056 112.55L273.423 112.549L256.912 120.602L263.516 117.247L253.61 121.945L264.617 116.577L260.763 117.921L260.213 118.089L256.91 119.265L243.702 125.975L245.904 125.302L235.997 130L196.374 150.799L185.371 158.844L172.164 166.223L162.263 174.265L157.865 178.954L158.69 178.563L154.565 182.304L147.972 192.347L142.471 196.369L145.774 195.695L154.586 195.012L156.793 197.684L145.81 217.767L144.711 219.107L151.329 224.447L144.728 229.809L146.932 230.474L137.021 232.497L143.639 237.168L150.243 233.813L153.555 238.49L146.962 248.533L157.986 253.866L157.994 258.548L165.698 254.522L165.689 248.503L159.079 248.513L163.46 233.123L159.043 226.441L162.34 221.754L156.821 214.405L166.714 201.681L178.832 201.661L174.438 209.695L172.246 216.387L175.558 221.063L181.065 220.386L177.768 225.073L185.486 229.074L178.885 234.435L189.904 236.424L188.807 239.101L202.042 249.112L204.26 258.473L197.662 265.172L199.866 265.837L194.362 268.522L194.367 271.197L212.008 281.201L229.633 280.504L238.452 284.503L250.571 285.821L292.437 289.097L324.369 280.35L361.844 293.666L402.607 296.275L399.301 295.612L419.124 292.235L419.131 296.249L413.624 296.926L441.185 310.259L436.782 312.272L441.19 312.934L440.1 320.293L440.101 320.962L447.816 323.625L452.217 320.274L446.704 316.938L453.317 318.934L454.418 318.932L470.953 325.594L470.963 331.614L475.369 331.607L474.262 328.264L481.983 334.271L484.182 331.592L499.603 330.898L502.915 335.575L510.622 332.887L512.836 339.572L520.545 338.222L528.251 335.534L520.531 329.527L528.236 326.17L543.649 320.125L553.573 326.129L560.18 324.78L553.578 329.473L571.223 341.484L566.853 364.232L574.568 366.226L572.369 368.905L562.471 378.954L549.258 382.32L549.268 389.008L540.458 390.36L542.67 395.708L525.051 399.75L523.951 400.42L525.058 403.763L526.162 405.767L525.062 406.438L517.361 412.47L520.669 414.472L510.762 419.17L510.783 431.878L521.804 435.204L525.102 431.186L527.303 429.845L530.613 433.183L525.118 441.219L505.307 451.953L513.04 465.317L508.64 469.338L527.377 475.327L545.025 489.344L559.374 506.711L569.309 519.403L594.679 540.097L592.485 545.451L601.309 552.794L614.54 560.13L676.256 576.751L696.103 588.09L700.536 604.804L702.763 619.515L696.19 641.598L700.628 660.988L689.673 698.462L695.197 708.486L694.098 709.825L689.701 715.852L696.36 746.609L682.099 782.75L675.493 785.437L686.543 806.153L681.061 822.215L687.678 826.886L685.478 828.896L694.286 825.537L699.796 826.866L703.097 824.854L696.496 830.216L704.211 832.21L703.114 835.556L697.603 833.558L703.117 836.894L698.708 835.563L697.622 844.929L703.135 848.264L697.633 851.618L707.552 854.946L697.649 861.65L706.465 863.643L697.653 864.326L697.659 867.67L703.163 865.655L699.873 874.355L695.461 871.018L688.853 871.698L694.359 871.02L689.953 871.027L692.151 867.679L688.85 870.36L684.441 868.36L680.036 869.037L687.749 870.362L684.45 873.711L678.671 876.731L684.451 874.38L686.659 877.721L693.268 877.041L697.681 881.047L692.177 883.732L698.786 883.721L689.977 885.742L700.991 884.386L708.707 887.718L703.198 887.058L707.61 890.395L692.185 888.414L702.104 891.742L696.6 893.757L701.008 895.088L698.815 901.111L702.116 899.099L708.733 903.771L701.021 903.114L704.331 906.453L707.64 909.123L698.827 908.469L706.54 909.794L707.649 914.474L710.946 909.787L714.255 912.457L707.649 914.474L705.447 915.146L712.059 916.473L710.965 921.157L717.58 924.491L716.473 921.148L719.783 924.487L716.47 919.811L725.286 921.803L715.368 919.143L719.77 916.461L718.674 919.807L726.388 921.801L724.195 927.824L724.188 923.811L723.092 927.157L721.986 924.484L719.783 924.487L717.58 924.491L714.275 924.496L716.489 931.181L724.196 928.493L738.516 928.47L741.829 933.146L736.327 937.169L737.424 934.491L730.817 935.84L744.043 939.831L745.127 929.128L761.643 924.419L771.558 925.072L763.837 919.065L757.228 919.075L763.836 918.396L757.22 914.393L767.12 905.682L764.915 904.348L762.708 901.676L766.017 904.346L767.119 905.013L771.524 904.337L771.523 903.668L773.713 894.97L793.524 884.236L792.411 877.549L780.292 876.231L769.262 867.554L775.858 859.517L793.478 856.144L794.56 844.103L806.666 837.394L797.848 834.064L805.557 832.714L808.867 836.053L815.473 833.367L813.262 828.688L804.455 832.047L796.738 828.715L795.615 815.34L812.145 819.326L830.868 816.62L830.841 800.568L835.25 801.898L830.834 795.886L847.361 797.866L861.678 795.836L882.604 793.126L895.816 789.092L907.914 777.032L907.905 771.682L899.086 767.683L902.38 760.989L882.536 751.657L885.819 738.275L884.732 746.971L893.553 752.308L916.695 757.621L945.333 755.568L969.542 739.476L976.131 726.757L995.936 712.679L992.625 708.671L1002.55 714.006L978.34 730.767L998.152 720.702L1010.25 709.311L1017.95 702.61L1033.36 695.228L1039.95 680.502L1035.53 671.814L1044.33 664.442L1038.82 662.445L1046.53 663.77L1057.53 655.726L1077.35 648.336L1091.67 648.313L1109.28 640.258L1121.4 642.245L1129.11 638.888L1129.11 642.232L1145.64 642.874L1146.73 638.191L1163.25 634.15L1162.14 628.801L1181.94 613.385L1185.24 610.036L1189.63 597.32L1199.53 591.285L1212.67 541.099L1214.87 538.42L1218.18 543.096L1224.79 540.41L1258.89 515.607L1278.7 500.191L1281.98 488.146L1276.45 470.765L1270.93 466.092L1247.79 462.785L1226.84 448.104L1202.59 437.442L1166.23 434.826L1147.49 428.168L1123.27 436.902L1125.46 430.21L1132.07 427.524L1121.05 428.211L1129.86 424.183L1124.34 417.503L1116.64 421.529L1115.53 416.18L1112.23 418.192L1114.43 416.182L1108.92 416.86L1104.51 412.854L1102.31 415.533L1101.2 411.521L1099 413.531L1082.47 407.539L1081.37 409.547L1070.35 407.558L1062.65 414.928L1069.26 416.255L1063.75 417.602L1059.34 414.265L1045.04 423.652L1049.43 416.956L1029.61 418.326L1056.04 414.939L1064.83 403.554L1030.68 400.265L1022.98 408.973L1022.97 404.291L1015.27 408.317L1015.26 403.635L1007.56 408.329L1014.15 399.623L1038.37 387.545L1035.06 387.55L1038.36 382.863L1024.03 378.204L1014.09 357.485L1009.68 355.486L1008.58 358.832L997.55 350.155L964.486 340.176L913.813 339.589L892.866 329.59L887.366 334.281L890.656 325.581L880.732 319.577L865.302 314.251L860.894 313.59L849.878 313.608L849.866 306.25L836.64 301.59L824.525 302.947L822.318 300.944L815.703 297.611L833.323 294.238L792.566 294.973L802.483 296.963L778.255 301.016L758.418 295.697L726.476 298.424L722.059 291.743L702.228 290.438L695.608 283.76L692.312 289.116L698.92 288.436L698.924 290.443L693.415 289.783L669.192 297.18L674.712 304.528L678.02 306.53L676.925 310.544L665.913 313.238L659.293 306.56L661.494 305.219L669.194 298.518L662.571 290.502L677.986 285.795L668.066 282.467L640.545 293.882L626.226 294.574L624.028 297.922L615.214 297.268L607.508 299.956L599.807 306.657L599.81 307.994L600.919 312.675L578.902 322.074L581.115 328.09L563.474 318.086L545.844 315.44L535.93 315.456L529.325 318.142L511.71 324.859L498.487 322.205L499.592 324.21L492.982 324.221L469.819 305.53L485.196 278.082L482.98 270.059L459.84 266.084L412.484 273.518L400.366 272.869L413.568 262.815L419.057 250.766L414.65 250.773L421.252 246.081L422.363 251.43L432.257 239.374L427.85 238.713L445.451 223.969L426.724 223.999L394.792 232.078L383.799 246.142L369.493 255.529L358.476 254.878L328.749 264.29L319.929 259.623L311.118 260.975L297.861 237.586L297.855 233.573L306.642 218.175L309.937 212.15L316.543 210.133L313.244 213.482L322.044 205.442L324.232 196.074L330.83 189.375L342.942 186.011L340.736 184.008L348.446 183.326L345.144 185.338L361.657 178.623L366.056 173.934L371.564 173.925L367.161 175.938L380.374 172.573L380.649 171.903L399.098 170.536L406.805 167.848L415.624 171.847L422.229 169.16L426.636 169.822L426.632 167.147L432.14 167.138L434.348 170.478L440.954 167.792L433.24 166.467L440.946 163.11L426.625 163.133L457.463 159.07L460.762 155.721L461.867 157.725L458.565 159.068L472.879 155.032L469.577 157.044L483.895 155.014L479.49 156.359L491.607 155.67L491.613 159.684L504.827 156.318L509.231 154.973L513.638 155.635L515.842 155.631L527.969 161.631L521.371 168.999L527.979 167.651L522.477 171.673L525.788 175.681L531.294 174.334L531.306 181.691L541.224 183.682L539.026 187.03L546.736 186.348L546.738 187.686L558.833 173.62L551.087 152.229L548.871 144.207L565.382 136.822L564.277 134.818L565.381 136.154L576.392 132.791L596.207 124.733L632.545 115.979L623.731 115.324L631.44 113.974L624.829 112.647L635.845 113.298L642.451 110.612L641.346 108.607L638.045 111.288L639.143 108.61L629.23 109.964L638.039 107.275L642.446 107.936L642.441 104.592L645.754 109.937L642.439 103.254L630.32 102.605L636.93 102.594L635.827 101.927L640.23 99.9135L639.403 99.6919L641.328 97.9052L628.107 96.5889L631.409 94.577L641.327 97.2363L640.215 90.5495L651.227 88.5251L642.421 92.5525L650.14 97.222L643.538 101.915L658.948 94.5322L655.632 87.1802L662.248 91.1826L674.357 86.4809L674.351 82.4677L678.296 81.1236L678.755 81.1229L679.856 80.9539L678.479 81.0676L684.26 79.1073L711.795 76.3871L713.994 73.7081L716.2 75.7111L731.62 74.3483L731.617 72.3418L727.214 74.3555L719.497 71.0238L731.604 64.3155L738.212 63.6359L738.21 62.2982L744.82 62.9563L751.425 59.6013L750.325 60.9408L758.034 59.5905L760.238 60.2558L774.556 58.226L772.349 56.223L781.163 56.8775L807.594 52.8214L798.786 55.5111L818.613 54.81L809.804 56.8309L804.294 55.5022L784.472 59.5475L782.273 62.2265L791.089 64.2188L806.503 58.8429L814.214 58.8303L814.211 57.4926L843.951 55.4377L847.254 54.7635L836.235 52.7748L819.713 53.4705L803.185 50.822L802.079 48.1483L795.469 48.1591L803.175 44.8022L793.263 46.1561L791.057 44.8219L780.042 44.8399L797.666 44.1423L808.678 42.1179L806.472 40.1149L788.846 39.4747L765.717 42.1877L727.176 50.9455L743.692 46.2367L743.69 44.8989L775.627 39.4961L783.333 36.8082L786.637 36.134L858.239 35.3487L859.34 35.3469L872.554 31.9812L891.28 31.2819L903.394 29.2556L896.783 28.5975L903.393 28.5867L893.477 27.934L902.29 27.9197L897.883 27.258L901.185 25.9149L893.471 23.9208L884.66 25.2729L886.861 23.9316L875.843 22.6118L857.12 24.6488L873.64 22.6154L861.524 23.3039L883.553 21.9304L874.74 21.2759L878.043 20.6016L867.027 20.6195L867.026 19.9507L862.621 20.6267L864.823 19.9543L858.216 21.3027L862.62 19.9578L857.112 19.9668L850.504 20.6464L853.805 18.6345L850.501 18.6398L851.601 17.9692L839.484 17.9889L843.889 17.3129L841.686 17.3164L835.075 16.6583L840.583 16.6494L832.871 15.9931L840.582 15.9805L843.886 15.3063L832.868 13.9865L838.376 13.9775L831.765 13.3194L833.967 12.647L825.156 13.3301L832.864 11.9799L822.951 12.6649L830.661 11.9835L828.456 10.6494L819.644 11.3325L826.253 10.6529L815.235 9.33312L818.538 8.6589L814.132 8.66606L807.525 10.0145L811.932 10.6762L805.323 10.687L808.628 11.3504L802.02 12.03L802.021 12.6989L798.715 12.0354L786.601 14.0617L784.396 12.7275L776.687 14.0778L781.091 12.7329L771.177 12.749L764.567 12.7598L768.973 12.0837L771.177 12.749L774.479 11.406L770.073 11.4131L772.275 10.7407L762.361 10.7568L773.376 10.07L776.678 8.72695L759.053 8.75559L761.255 8.08315L754.647 8.76276L746.933 7.43758L738.123 8.78961L718.294 8.82183L710.586 10.1721L712.79 10.8374L703.979 12.1894L709.487 12.1805L709.489 13.5182L691.869 16.8911L702.886 17.542L700.873 21.1683L702.892 20.8863L705.096 21.5516L700.69 21.5588L685.273 24.9281L662.145 28.31L667.654 28.9699L665.461 34.9932L656.652 37.0141L656.654 38.3518L654.448 37.0177L646.742 39.7056L639.031 39.7182L641.232 38.3769L630.21 35.0505L641.215 28.344L615.882 30.3918L580.63 29.7802L561.909 33.155L568.515 31.1376L572.917 28.4551L566.309 29.1347L561.905 30.4795L561.902 29.1418L576.218 25.7743L597.141 21.7271L596.04 21.7289L612.559 19.0266L611.457 19.0284L614.761 18.3541L609.254 19.032L610.355 18.3613L613.658 17.6871L619.074 17.1766L610.355 18.3613L614.761 18.3541L618.065 17.6799L625.775 16.9985L622.47 17.0039L616.963 17.6817L619.808 17.1197L627.977 16.3261L637.888 14.3034L650.003 12.946L665.422 10.9144L652.205 12.2736ZM679.856 80.9539L696.378 79.7565L701.883 77.741L679.856 80.9539ZM724.196 928.493L720.897 932.512L725.305 933.173L724.196 928.493ZM678.671 876.731L677.846 877.066L677.937 877.122L678.671 876.731ZM677.937 877.122L676.745 877.737L681.154 879.068L677.937 877.122ZM521.804 435.204L524.011 437.876L525.11 435.868L527.311 434.527L525.109 435.199L521.804 435.204ZM262.231 116.859L259.111 117.923L261.313 117.251L262.231 116.859ZM282.779 107.852L282.229 108.187L285.348 107.012L285.898 106.732L283.513 107.572L282.779 107.852ZM298.008 101.808L300.943 100.465L306.446 97.7806L298.008 101.808ZM349.383 81.9927L350.667 81.5447L351.584 80.9858L349.383 81.9927ZM474.536 44.7791L471.599 45.3412L472.7 45.3394L474.536 44.7791ZM492.521 40.6252L493.255 40.401L491.971 40.6261L492.521 40.6252ZM491.971 40.6261L491.42 40.627L490.043 40.9636L491.971 40.6261ZM491.42 40.627L493.622 40.289L494.723 39.9528L492.337 40.3468L490.961 40.6277L491.42 40.627ZM490.961 40.6277L490.318 40.6288L488.758 41.1329L490.961 40.6277ZM490.318 40.6288L492.337 40.3468L493.255 40.1224L490.318 40.6288ZM544.277 29.1705L545.103 29.1691L554.188 27.1478L546.479 28.498L544.277 29.1705ZM554.188 27.1478L555.29 27.146L560.888 26.0221L554.188 27.1478ZM590.531 21.069L590.163 21.0696L589.154 21.2384L590.531 21.069ZM591.631 20.3983L580.802 22.2553L583.83 21.8045L584.198 21.7481L586.767 21.4095L587.226 21.2973L587.96 21.1846L588.878 21.0717L588.327 21.0725L591.631 20.3983ZM649.451 12.1108L654.407 11.6011L653.305 11.6029L649.451 12.1108ZM654.407 11.6011L653.948 11.7133L654.958 11.6002L654.407 11.6011ZM654.958 11.6002L655.509 11.5993L657.711 11.2613L654.958 11.6002ZM669.092 9.79363L676.434 8.88989L669.826 9.56949L669.092 9.79363ZM676.435 9.33579L680.841 8.88272L684.144 8.20848L678.638 8.8863L676.435 9.33579ZM713.887 8.16015L716.091 8.82542L720.497 8.1494L713.887 8.16015ZM700.671 10.1882L694.064 11.5367L700.672 10.8571L700.671 10.1882ZM741.43 10.122L741.431 10.7908L729.315 11.4794L741.43 10.122ZM686.352 10.8803L677.54 11.5635L668.73 12.9156L668.731 13.5844L686.352 10.8803ZM731.52 12.8135L739.231 12.801L727.115 13.4895L731.52 12.8135ZM724.918 17.5062L719.411 18.184L721.614 18.1805L711.701 18.8654L724.918 17.5062ZM804.233 18.0462L804.234 18.715L798.726 18.724L804.233 18.0462ZM811.944 18.0336L817.452 18.0247L816.352 18.6953L811.944 18.0336ZM1090.65 18.2495L1095.05 18.9112L1094.96 18.8556L1102.4 19.8468L1107.17 20.6751L1108.27 20.8963L1108 20.7852L1108.83 20.9511L1109.56 21.0614L1109.74 21.1168L1111.58 21.5598L1110.48 21.2271L1109.93 21.0608L1114.89 21.5544L1107.45 20.5632L1107.91 20.6739L1107.17 20.5636L1107.45 20.5632L1106.07 20.231L1106.99 20.5082L1104.97 20.2328L1095.05 18.2423L1093.95 18.2441L1094.87 18.8L1090.65 18.2495ZM1114.89 21.5544L1112.68 21.558L1110.48 21.2271L1116.45 22.2207L1115.99 22.2215L1118.19 22.4966L1119.29 22.662L1117.09 22.2196L1118.19 22.2179L1116.36 21.9979L1114.89 21.5544ZM1119.29 22.662L1120.4 22.8831L1118.19 22.8867L1135.82 25.5335L1133.62 24.8682L1131.05 24.4265L1130.31 24.2048L1129.76 24.2056L1125.9 23.5431L1129.21 24.2065L1125.91 23.766L1124.8 23.5448L1124.25 23.3785L1125.9 23.5431L1123.88 23.2676L1122.6 22.8796L1120.95 22.8822L1119.29 22.662ZM719.415 20.1906L721.619 20.8559L715.009 20.8666L719.415 20.1906ZM791.018 20.7431L803.141 24.0677L808.648 23.3899L808.373 23.3346L807.546 23.3917L804.24 22.0593L808.373 23.3346L815.256 22.7103L813.051 21.3761L818.562 23.3738L826.273 23.3612L815.259 24.048L809.75 23.3881L803.141 24.0677L806.448 25.4L802.042 25.4072L803.141 24.0677L792.122 22.079L792.124 23.4167L791.018 20.7431ZM676.456 22.267L666.546 24.9586L674.255 23.6083L676.456 22.267ZM674.255 23.6083L673.155 24.279L678.66 22.9323L674.255 23.6083ZM757.974 22.8034L759.077 23.4704L752.468 24.15L757.974 22.8034ZM773.401 25.4537L771.2 26.795L764.59 26.8058L773.401 25.4537ZM808.653 26.7341L814.163 28.0629L808.656 28.0719L808.653 26.7341ZM1145.74 27.524L1152.35 28.8509L1156.76 29.5126L1157.86 29.5108L1147.94 27.5204L1145.74 27.524ZM551.988 29.1579L540.976 31.1824L542.077 31.1806L535.471 33.1979L533.268 33.2015L534.368 32.5309L534.919 32.53L536.57 31.8584L542.076 30.5118L544.095 30.2298L551.988 29.1579ZM746.973 31.5164L751.379 31.5093L749.178 32.8506L746.973 31.5164ZM757.988 31.4985L770.106 31.4788L762.4 34.8356L757.988 31.4985ZM902.296 31.264L886.878 33.9644L885.78 36.6417L884.682 38.65L878.073 38.6608L882.481 39.9913L876.972 39.3314L867.062 42.023L878.078 42.0051L865.964 44.0313L868.169 45.3655L878.082 44.6805L895.71 45.9896L907.825 44.6321L904.523 45.9752L919.945 45.9502L906.73 48.6471L915.543 48.6327L927.655 45.2688L930.963 47.27L927.661 49.2819L934.268 47.9335L934.273 50.6089L939.781 50.5999L945.283 47.2467L941.976 45.9144L937.571 46.5904L939.771 44.5802L934.266 46.5957L928.756 45.267L932.06 44.5928L927.653 43.9311L938.666 42.5754L925.448 43.2658L932.052 39.9108L921.037 39.9287L919.933 38.5927L911.123 40.6136L912.222 38.6053L902.307 38.6214L908.914 36.6041L900.101 36.6184L901.202 35.9477L898.999 36.6202L893.494 37.9669L896.796 36.6238L904.501 32.5981L900.093 31.9364L906.703 31.9256L902.296 31.264ZM765.7 32.1548L760.194 32.8327L763.5 33.4961L765.7 32.1548ZM526.659 33.8811L521.154 35.2278L520.052 35.2296L526.659 33.8811ZM643.427 33.6913L633.515 35.0451L644.531 35.0272L643.427 33.6913ZM520.051 34.2263L518.949 34.5625L518.307 34.5635L520.051 34.2263ZM520.051 34.5607L514.545 35.9074L511.242 36.5816L520.051 34.5607ZM720.539 34.2348L701.821 39.6161L707.323 36.2629L720.539 34.2348ZM517.114 34.7884L515.646 35.2367L515.187 35.2375L515.737 35.0694L516.472 34.901L517.114 34.7884ZM757.994 34.8428L759.1 37.5164L759.102 38.8542L755.795 37.5218L753.591 36.8565L757.994 34.8428ZM527.765 36.5547L521.159 38.5721L506.843 41.2708L516.754 39.2481L527.765 36.5547ZM509.04 37.254L506.838 37.9265L502.432 38.6025L509.04 37.254ZM807.568 36.7688L836.214 39.3977L837.314 38.727L828.499 37.4036L807.568 36.7688ZM679.786 37.6454L672.077 38.9956L672.076 38.3268L679.786 37.6454ZM691.904 38.2945L697.412 38.2856L691.908 40.3011L691.904 38.2945ZM743.679 38.2104L749.19 40.208L743.681 39.5481L734.87 40.9001L743.679 38.2104ZM501.333 39.942L491.423 42.6336L487.018 43.3096L495.827 41.2887L501.333 39.942ZM505.739 39.9348L493.627 43.2988L482.616 45.9922L480.414 46.6646L481.239 46.3288L477.11 47.3388L483.716 45.3215L481.239 46.3288L482.616 45.9922L487.02 44.6473L490.323 43.3042L505.739 39.9348ZM538.788 40.55L525.573 43.2469L532.179 41.2296L538.788 40.55ZM667.674 41.0093L668.775 41.0076L668.778 42.3453L661.068 43.0267L664.371 42.3524L667.674 41.0093ZM495.832 43.9641L494.732 45.3036L490.327 45.9796L495.832 43.9641ZM524.473 43.9175L527.777 43.9122L521.17 45.2606L524.473 43.9175ZM694.118 44.9795L698.527 46.3101L690.539 45.7099L688.612 46.1032L686.411 46.9986L687.511 46.328L684.207 47.0022L688.612 45.6573L687.511 46.328L688.612 46.1032L689.713 45.6555L690.539 45.7099L694.118 44.9795ZM470.499 46.6807L471.601 46.6789L469.399 47.3514L460.59 49.3723L470.499 46.6807ZM500.242 46.6324L499.142 47.303L489.242 56.0143L479.334 60.0435L488.139 55.3472L481.532 56.6957L484.832 54.0149L479.327 56.0304L479.323 53.355L483.728 52.6789L484.829 52.0083L481.524 52.0137L488.13 49.9963L494.739 49.3167L500.242 46.6324ZM811.992 47.4634L806.487 49.4789L824.117 52.1257L835.129 50.1012L811.996 50.1388L811.992 47.4634ZM853.852 47.3953L840.641 52.0988L843.949 54.1L849.088 53.4228L845.049 53.4293L853.857 50.7396L853.852 47.3953ZM849.088 53.4228L849.455 53.4222L849.639 53.3661L849.088 53.4228ZM849.639 53.3661L859.368 52.0684L861.571 52.0648L859.366 51.3995L856.061 50.736L849.639 53.3661ZM483.724 50.0035L479.32 51.3484L478.218 51.3502L477.118 52.0208L477.119 52.6897L476.017 52.6915L477.12 53.3585L473.815 53.3639L468.308 54.0417L474.916 52.6933L478.218 51.3502L483.724 50.0035ZM556.429 50.5542L557.532 51.2213L549.825 53.9092L545.418 53.2475L549.822 51.9027L556.429 50.5542ZM668.791 50.3715L667.693 53.0488L664.386 51.7164L668.791 50.3715ZM726.074 50.9473L726.075 51.6162L666.609 63.7523L658.901 65.7714L658.906 68.4468L648.995 70.4695L614.849 72.5316L624.758 69.1712L648.99 67.7941L653.395 66.4492L644.582 66.4635L666.609 63.7523L690.835 58.362L726.074 50.9473ZM528.893 52.6055L523.387 53.9522L516.78 55.3006L512.373 54.639L518.982 54.6282L528.893 52.6055ZM445.174 53.4105L446.276 53.4087L442.697 54.4178L441.871 54.7535L436.367 56.7691L435.265 56.7709L431.962 57.4451L442.697 54.4178L445.174 53.4105ZM473.816 54.0328L461.707 59.4033L468.312 56.0483L469.412 55.3776L462.804 56.0572L465.006 55.3848L469.411 54.7088L471.614 54.7052L473.816 54.0328ZM566.35 54.5512L568.558 57.2231L578.47 55.8692L575.175 61.8943L613.729 61.1628L619.241 63.8293L622.548 65.1616L617.042 66.5083L615.942 67.1789L606.028 67.195L600.517 65.1974L602.723 67.2004L591.718 73.9069L582.91 76.5966L582.902 71.9146L567.484 74.6151L577.392 70.5859L581.792 66.5656L566.369 65.9218L555.362 71.2906L557.56 68.6115L546.55 71.9737L537.751 80.6832L527.847 86.719L517.936 88.7417L520.127 81.3807L535.535 72.6605L527.826 74.0107L545.441 67.2935L547.646 68.6277L561.96 64.5912L579.584 63.8937L577.378 61.8907L569.668 62.5721L571.869 61.2308L544.336 65.2887L542.131 63.9546L533.32 65.3066L534.418 63.2983L512.395 68.685L506.888 68.6939L510.19 67.3508L495.873 69.3807L537.716 58.6109L541.02 58.6055L546.524 55.9212L543.222 57.9331L547.628 57.2571L549.827 55.2469L566.35 54.5512ZM468.315 58.0549L463.916 62.744L466.114 59.3962L462.809 59.4015L468.315 58.0549ZM1270.27 56.7513L1272.47 57.4166L1275.78 58.0801L1270.27 56.7513ZM494.754 58.6807L494.758 61.3562L492.922 61.5264L480.443 64.7237L491.452 60.6927L485.946 61.3705L494.754 58.6807ZM624.741 58.4695L631.35 58.4587L624.741 59.0268L624.742 59.1383L619.234 59.1473L624.741 58.4695ZM1279.08 59.4124L1286.52 61.4069L1291.21 63.0157L1291.21 62.737L1286.8 61.4065L1285.6 61.074L1279.08 59.4124ZM1291.21 63.0157L1291.21 63.4059L1304.43 67.3975L1298.92 66.0688L1300.03 66.7358L1306.64 68.7317L1296.72 66.0724L1305.54 68.7335L1305.54 69.4023L1315.46 72.7305L1316.56 73.3976L1323.17 74.7245L1316.56 74.0664L1322.07 75.3952L1320.97 75.397L1325.38 76.7275L1324.28 76.7293L1328.68 77.391L1328.68 78.0598L1336.4 79.385L1343.01 80.712L1322.07 73.3886L1311.41 69.2813L1319.86 72.0545L1324.27 73.385L1320.97 72.7215L1331.99 76.0479L1339.7 78.7108L1346.32 81.3755L1344.11 80.7102L1345.21 81.3773L1348.52 82.0408L1352.93 84.0402L1352.93 84.709L1369.46 90.0331L1370.56 90.0312L1370.01 89.6977L1370.93 90.0306L1370.56 90.0312L1373.87 92.0325L1367.26 89.3678L1370.57 92.0378L1381.59 95.3642L1377.18 93.3648L1388.84 97.136L1389.03 97.1915L1390.41 98.0253L1391.51 98.0235L1392.61 98.3561L1391.78 98.0231L1393.62 98.5774L1393.71 98.6888L1394.81 99.0214L1397.02 100.021L1395.27 99.3551L1395.92 99.6885L1391.51 98.0235L1405.84 104.02L1401.43 102.021L1403.27 102.686L1401.8 102.02L1402.53 102.019L1389.3 96.6894L1390.4 97.3564L1383.79 94.6918L1382.05 94.0815L1380.85 93.5818L1380.48 93.3594L1379.93 93.1931L1377.18 92.0271L1374.97 91.3618L1373.87 90.6947L1371.67 90.0295L1371.12 90.0303L1369.46 89.3642L1368.36 88.6971L1362.85 86.6995L1362.11 86.4777L1354.03 83.3695L1355.13 84.0366L1358.07 85.1466L1359.54 86.036L1355.13 84.0366L1344.11 80.0414L1323.17 72.718L1316.56 70.7221L1311.87 69.0019L1303.33 66.7305L1292.31 63.4041L1291.21 63.0157ZM1402.53 102.019L1404.18 103.019L1403.27 102.686L1404.74 103.353L1405.84 104.02L1412.45 106.685L1397.02 100.69L1412.45 107.353L1405.84 105.358L1399.23 102.693L1393.72 101.364L1397.02 102.697L1403.64 106.03L1419.07 111.356L1433.4 118.021L1440.01 120.686L1445.53 124.021L1447.73 124.686L1467.58 136.025L1429 124.048L1421.29 120.716L1415.78 121.394L1427.91 127.394L1446.66 140.072L1452.17 146.752L1455.48 146.746L1457.69 149.418L1463.2 150.747L1460.99 150.75L1470.92 158.761L1486.35 162.08L1507.3 173.416L1510.6 171.404L1527.13 177.397L1526.02 173.386L1529.33 174.718L1523.82 170.714L1524.92 170.043L1524.92 169.375L1521.61 167.373L1518.3 166.041L1512.79 162.037L1512.78 161.368L1507.27 156.695L1511.68 156.688L1497.34 148.016L1498.44 148.014L1514.98 156.682L1512.77 154.679L1513.88 155.346L1514.43 155.513L1511.67 154.012L1507.26 151.344L1505.06 150.679L1503.95 149.343L1501.75 148.678L1498.44 146.676L1496.24 146.011L1495.13 144.675L1490.72 143.345L1489.62 142.009L1487.42 141.343L1486.31 140.008L1484.11 139.342L1483.01 138.675L1482.27 138.453L1481.9 138.008L1481.17 137.786L1481.54 138.232L1480.8 138.01L1479.7 137.343L1481.17 137.786L1480.8 137.341L1478.6 136.676L1476.39 135.342L1475.66 135.12L1476.02 135.565L1475.29 135.343L1474.19 134.676L1475.66 135.12L1475.29 134.675L1473.08 134.009L1469.78 132.008L1467.57 131.343L1464.26 129.342L1462.06 128.676L1457.65 126.008L1455.44 125.343L1453.24 124.009L1452.14 123.787L1451.03 123.343L1451.59 123.677L1449.93 123.345L1448.83 122.678L1451.03 123.343L1449.93 122.676L1447.73 122.011L1444.42 120.01L1442.22 119.345L1438.91 117.343L1437.25 117.012L1436.7 116.678L1434.5 116.013L1431.19 114.012L1428.99 113.346L1424.58 111.347L1423.47 111.014L1421.27 110.015L1420.17 109.348L1419.8 109.348L1416.86 108.015L1417.96 108.682L1419.43 109.349L1419.07 109.349L1415.76 108.017L1413.55 106.683L1411.35 106.018L1408.41 104.685L1410.25 105.35L1406.94 104.018L1402.53 102.019ZM1514.43 155.513L1514.98 155.791L1514.98 156.014L1528.21 163.349L1533.72 166.685L1533.08 166.073L1532.99 166.017L1532.62 165.683L1532.62 165.628L1532.53 165.628L1531.52 164.682L1530.87 164.683L1522.7 160.014L1514.98 155.345L1514.98 155.679L1514.43 155.513ZM1532.62 165.683L1534.27 166.628L1533.72 166.016L1532.62 165.683ZM1534.27 166.628L1534.37 166.795L1534.37 166.851L1534.73 167.241L1534.83 167.352L1540.34 170.687L1544.93 172.909L1545.58 173.243L1545.58 173.187L1537.03 168.017L1536.2 167.74L1537.4 168.462L1536.02 167.74L1542.82 171.686L1535.1 167.407L1535.74 167.629L1536.02 167.74L1536.2 167.74L1534.27 166.628ZM1395.27 99.3551L1393.71 98.6888L1392.61 98.3561L1395.27 99.3551ZM499.165 61.349L503.574 63.3484L495.863 63.361L499.165 61.349ZM603.816 61.8478L586.193 63.2141L599.413 63.8615L603.816 61.8478ZM1305.53 67.3957L1308.57 68.5056L1305.54 68.0646L1305.53 67.7302L1306.64 68.0628L1305.53 67.3957ZM1307.74 68.061L1309.58 68.6712L1309.02 68.6163L1308.93 68.5607L1307.74 68.061ZM402.242 71.5394L402.243 72.2083L387.929 76.2447L396.737 73.555L402.242 71.5394ZM624.764 73.1843L620.361 75.198L584.022 83.2834L564.195 83.9845L577.404 77.9433L579.609 79.2774L573.002 80.6259L571.903 81.9654L589.521 77.9236L608.246 76.5555L603.84 76.5626L610.447 75.2142L624.764 73.1843ZM405.558 78.8915L405.561 80.2292L409.965 78.8843L406.662 80.2274L416.574 78.8736L404.46 80.8999L404.458 79.5621L396.749 80.9124L405.558 78.8915ZM413.275 82.2232L397.87 92.95L392.362 92.959L400.069 90.271L413.275 82.2232ZM344.979 83.672L343.878 84.3426L341.676 85.0151L340.576 85.4628L341.401 85.1827L340.576 85.6857L340.576 85.4628L340.575 85.2955L342.227 84.6797L341.676 85.0151L344.979 83.672ZM374.726 86.2991L371.423 87.6421L372.524 86.9715L356.008 91.6804L357.107 90.3409L374.726 86.2991ZM404.481 93.6081L405.588 96.9506L401.18 96.2889L404.481 93.6081ZM1426.78 112.681L1428.99 113.569L1427.88 113.348L1426.78 112.681ZM547.742 127.487L548.845 128.823L543.339 129.501L547.742 127.487ZM265.743 131.959L265.748 134.634L264.645 133.967L260.243 136.65L265.743 131.959ZM370.419 147.172L368.218 148.514L363.812 149.19L370.419 147.172ZM253.654 149.369L253.655 150.037L245.952 154.732L236.043 158.092L253.654 149.369ZM208.518 166.832L208.519 167.501L206.319 169.511L208.52 168.17L208.521 168.839L200.814 171.527L208.518 166.832ZM595.179 170.217L600.692 172.883L596.292 176.904L598.496 177.569L602.894 172.211L595.179 170.217ZM1531.52 168.695L1530.42 169.366L1537.04 172.699L1535.93 171.363L1531.52 168.695ZM548.915 171.63L547.819 174.976L543.41 173.645L548.915 171.63ZM163.368 176.27L158.967 179.621L158.965 178.395L163.368 176.27ZM1506.2 174.087L1513.92 184.107L1502.92 188.807L1506.23 196.159L1517.26 206.174L1517.27 210.187L1510.67 214.88L1499.65 214.229L1499.66 222.255L1493.06 224.273L1496.38 234.969L1489.78 239.662L1490.88 238.991L1487.6 253.043L1489.81 261.065L1490.91 259.057L1503.04 268.401L1503.05 274.421L1515.2 289.785L1515.22 301.156L1517.42 299.814L1518.24 299.924L1518.52 299.812L1538.35 303.125L1550.48 309.793L1561.51 320.477L1538.35 303.125L1518.24 299.924L1515.22 301.156L1515.22 306.506L1507.52 312.539L1521.86 322.548L1524.07 327.227L1533.99 327.879L1526.28 328.561L1520.76 325.894L1522.98 333.917L1529.59 334.575L1522.98 335.255L1532.9 337.914L1528.5 339.259L1535.11 341.255L1535.11 343.261L1546.13 343.243L1539.52 343.923L1546.13 346.588L1540.63 347.934L1545.04 351.94L1547.24 350.599L1547.25 353.274L1551.65 352.598L1556.07 361.286L1561.58 363.953L1567.1 367.288L1566 369.297L1571.51 371.963L1574.83 379.984L1578.13 380.647L1573.73 380.655L1583.66 389.334L1583.66 392.678L1599.1 402.017L1628.88 427.385L1643.22 435.388L1655.33 433.362L1675.17 436.674L1695.01 448.012L1710.43 445.981L1721.44 444.625L1739.08 447.941L1736.87 449.282L1743.49 452.615L1749.01 460.633L1751.21 459.291L1750.11 461.3L1753.42 463.301L1750.12 462.638L1752.32 465.309L1754.52 464.637L1752.33 467.316L1757.85 477.34L1762.26 480.008L1762.26 477.333L1763.36 480.006L1762.26 476.664L1764.47 480.673L1764.46 477.329L1766.67 480.67L1772.18 483.336L1771.07 479.325L1774.39 484.67L1775.48 482.662L1778.8 492.021L1781.01 492.017L1782.11 495.36L1781.01 494.024L1784.33 502.713L1781.05 519.44L1783.26 521.443L1783.27 527.463L1781.06 526.129L1782.17 527.465L1785.48 531.473L1782.17 531.478L1782.17 527.465L1779.98 537.501L1777.77 535.498L1782.21 555.557L1792.17 583.633L1792.19 597.679L1794.41 602.357L1792.2 601.692L1793.35 627.775L1788.95 633.802L1788.97 643.835L1787.88 655.876L1782.39 667.256L1773.59 674.628L1759.31 696.054L1749.43 716.805L1735.19 769.668L1711.02 806.495L1689.05 846.662L1676.96 864.741L1670.37 872.778L1665.96 873.454L1653.87 888.188L1657.17 887.514L1652.78 896.885L1652.78 897.554L1666 897.532L1666.01 906.228L1673.73 907.553L1695.74 897.484L1706.75 889.44L1711.15 886.088L1717.75 881.396L1736.44 861.968L1738.64 859.29L1747.44 852.587L1760.64 835.844L1772.72 817.765L1777.12 809.731L1776.02 812.409L1778.22 808.392L1779.32 808.39L1783.71 801.025L1784.81 798.348L1785.91 796.34L1787.01 795L1787.01 793.663L1789.2 790.984L1789.2 789.646L1790.3 788.975L1790.3 787.638L1792.5 784.959L1792.5 783.621L1794.7 780.942L1794.69 779.604L1795.79 778.265L1795.79 776.927L1797.99 774.248L1797.99 772.91L1799.09 771.571L1799.08 770.233L1801.28 767.554L1801.28 766.216L1802.38 764.877L1802.38 763.539L1803.48 762.2L1803.48 760.862L1805.22 758.741L1805.67 757.514L1805.67 756.845L1806.22 756.231L1806.77 754.725L1806.77 754.168L1807.23 753.61L1807.87 751.992L1807.87 751.491L1808.23 751.044L1808.96 749.204L1808.96 748.814L1809.24 748.479L1810.06 746.415L1810.06 746.136L1810.24 745.857L1811.16 743.626L1811.16 743.459L1811.34 743.292L1812.26 740.893L1812.26 742.12L1815.55 734.088L1818.56 725.165L1817.74 726.727L1818.56 723.827L1818.84 723.381L1818.84 724.44L1821.03 718.026L1822.13 714.68L1821.39 715.127L1821.03 716.02L1821.03 715.351L1821.39 715.127L1821.58 714.681L1822.13 714.011L1822.13 713.343L1823.22 711.334L1824.32 707.988L1827.6 695.274L1828.97 688.026L1829.15 687.134L1829.79 683.9L1830.52 681.056L1832.61 671.689L1833.07 668.567L1833.07 666.505L1833.43 666.058L1834.16 661.152L1836.33 643.089L1836.33 643.033L1837.43 641.081L1837.42 636.399L1838.52 635.059L1838.5 621.682L1839.59 616.33L1839.53 580.211L1838.43 578.875L1838.41 565.498L1837.31 564.162L1837.29 556.805L1836.19 555.469L1836.18 548.112L1835.07 546.776L1835.06 540.756L1833.96 538.751L1833.95 534.069L1832.85 533.402L1832.84 528.72L1831.74 527.384L1831.73 522.702L1830.63 522.035L1830.62 518.022L1829.52 516.686L1829.51 513.342L1828.41 512.006L1828.4 509.33L1827.3 507.994L1827.29 504.65L1826.19 503.314L1826.19 500.639L1825.08 499.303L1825.08 496.627L1823.97 495.292L1823.97 493.285L1822.87 491.949L1822.86 489.274L1821.76 487.938L1821.76 486.6L1820.65 484.595L1820.65 483.257L1821.76 485.931L1820.65 482.589L1820.65 483.146L1808.48 452.51L1804.06 441.146L1799.64 432.403L1799.64 431.121L1798.53 429.785L1798.53 428.447L1796.32 425.775L1796.32 423.769L1793.01 419.761L1793.01 418.423L1791.9 416.418L1790.8 415.082L1790.79 413.745L1788.59 411.073L1788.58 409.066L1786.1 406.005L1785.27 405.059L1785.27 404.613L1786.1 406.005L1785.27 404.39L1785.27 403.721L1784.17 402.385L1780.85 396.371L1776.43 389.689L1776.43 389.02L1774.23 386.348L1775.33 387.016L1770.91 381.114L1770.91 380.334L1768.7 377.662L1767.6 375.657L1767.6 374.989L1766.5 374.322L1764.29 371.65L1764.29 370.312L1763.18 368.976L1762.08 366.971L1757.66 361.628L1757.66 360.959L1752.14 354.279L1749.93 351.05L1749.93 350.27L1741.1 339.582L1740.83 339.415L1738.89 336.91L1739.36 337.69L1738.9 337.189L1738.89 336.91L1738.89 336.241L1722.34 316.203L1721.23 315.536L1717.92 311.528L1716.82 310.861L1711.3 304.181L1710.2 303.514L1709.1 302.178L1706.89 300.844L1705.79 298.839L1704.68 297.503L1703.58 296.836L1701.37 294.164L1700.27 293.497L1696.96 289.489L1694.75 287.487L1694.2 287.153L1693.65 286.151L1691.44 284.148L1688.13 280.809L1687.95 280.698L1682.61 275.467L1673.79 268.124L1671.58 265.452L1649.52 246.76L1645.11 244.091L1623.05 227.406L1618.64 222.731L1606.5 214.055L1605.4 213.165L1607.61 214.723L1618.64 222.731L1608.62 215.167L1610.91 216.055L1603.2 210.717L1602.09 210.049L1601.54 209.605L1601.08 209.327L1597.68 206.712L1596.58 206.045L1599.06 207.936L1597.68 206.991L1600.44 209.049L1598.78 208.048L1597.5 207.103L1597.68 207.381L1596.58 206.714L1600.99 210.051L1591.07 203.379L1587.76 202.046L1577.84 196.712L1575.63 196.715L1565.71 191.381L1551.38 186.722L1550.28 188.73L1544.77 186.733L1543.67 188.741L1537.06 186.745L1532.65 184.077L1521.63 181.419L1509.5 174.75L1506.2 174.087ZM1596.58 206.714L1592.17 203.377L1590.7 202.265L1591.89 203.043L1589.23 201.152L1589.5 201.486L1582.24 196.705L1581.14 196.038L1595.48 206.047L1596.58 206.714ZM1582.24 196.705L1587.76 200.04L1581.97 196.371L1582.24 196.705ZM1581.97 196.371L1581.14 195.369L1579.76 194.925L1581.97 196.371ZM1579.76 194.925L1578.47 194.147L1578.57 194.314L1578.66 194.369L1578.93 194.703L1579.76 194.925ZM1578.57 194.314L1577.19 193.313L1578.47 194.147L1577.83 193.367L1571.21 189.365L1571.03 189.31L1575.44 192.201L1578.57 194.314ZM1587.76 200.04L1589.13 201.041L1588.86 200.707L1587.76 200.04ZM1591.89 203.043L1593.27 204.044L1595.48 205.378L1591.89 203.043ZM1595.48 205.378L1596.85 206.435L1596.58 206.045L1595.48 205.378ZM1596.85 206.435L1593.27 204.044L1592.17 203.377L1597.5 207.103L1597.04 206.546L1596.85 206.435ZM1839.59 616.33L1838.96 621.124L1839.6 620.343L1839.59 616.33ZM1837.43 641.081L1836.61 646.099L1837.44 645.094L1837.43 641.081ZM1834.16 661.152L1835.26 659.812L1835.25 654.462L1834.16 661.152ZM1832.61 671.689L1832.16 674.755L1833.07 671.187L1833.07 669.57L1832.61 671.689ZM1818.84 724.44L1818.56 725.165L1818.84 724.719L1818.84 724.44ZM1812.26 742.12L1811.34 743.292L1811.16 743.626L1811.16 744.685L1812.26 742.12ZM1810.24 745.857L1810.06 746.415L1810.06 747.307L1811.07 744.908L1810.24 745.857ZM1810.06 747.307L1809.88 747.641L1810.06 747.474L1810.06 747.307ZM1809.88 747.641L1809.24 748.479L1808.96 749.204L1808.97 749.928L1809.88 747.641ZM1808.97 749.928L1808.78 750.43L1808.97 750.151L1808.97 749.928ZM1808.78 750.43L1808.23 751.044L1807.87 751.992L1807.87 752.494L1808.78 750.43ZM1807.87 752.494L1807.59 753.163L1807.87 752.828L1807.87 752.494ZM1807.59 753.163L1807.23 753.61L1806.77 754.725L1806.77 755.06L1807.59 753.163ZM1806.77 755.06L1806.41 755.952L1806.77 755.506L1806.77 755.06ZM1806.41 755.952L1806.22 756.231L1805.67 757.514L1805.67 757.681L1806.41 755.952ZM1805.67 757.681L1805.22 758.741L1805.67 758.183L1805.67 757.681ZM1546.96 174.69L1569.01 188.7L1570.94 189.254L1569.01 188.031L1567.72 187.085L1566.8 186.028L1565.7 185.695L1563.68 184.305L1563.49 184.027L1563.22 183.916L1562.39 183.36L1549.16 175.355L1549.07 175.355L1548.79 175.244L1546.96 174.69ZM605.109 179.565L612.825 182.897L611.729 186.243L613.926 182.226L605.109 179.565ZM1553.66 178.413L1557.52 180.804L1557.15 180.414L1559.08 181.693L1558.72 181.582L1561.01 183.028L1561.29 183.361L1561.75 183.528L1563.5 184.696L1561.29 183.361L1559.08 182.027L1558.17 181.416L1558.72 181.582L1557.52 180.804L1557.89 181.193L1553.66 178.413ZM309.886 180.714L312.089 180.71L308.786 181.384L306.582 181.388L309.886 180.714ZM297.772 182.74L298.873 182.738L295.57 183.412L293.368 184.085L291.165 184.088L297.772 182.74ZM581.982 183.616L576.482 188.307L583.093 189.633L587.495 186.951L581.982 183.616ZM279.05 186.115L280.152 186.113L276.848 186.787L274.646 187.459L271.343 188.134L270.241 188.135L272.443 187.463L279.05 186.115ZM258.127 190.162L259.228 190.16L255.925 190.834L253.723 191.507L250.419 192.181L249.318 192.183L251.52 191.51L258.127 190.162ZM588.601 189.625L584.197 190.969L585.576 192.082L588.601 189.625ZM585.576 192.082L585.301 192.305L585.76 192.249L585.576 192.082ZM585.76 192.249L587.506 193.639L589.706 191.629L585.76 192.249ZM231.698 195.556L232.799 195.554L229.496 196.228L227.294 196.9L223.99 197.575L221.788 198.247L218.484 198.921L216.282 199.594L214.079 199.597L217.383 198.923L219.585 198.251L226.192 196.902L228.394 196.23L231.698 195.556ZM533.542 201.753L489.491 209.183L483.992 215.211L474.081 217.234L487.298 215.875L508.215 207.814L521.433 207.124L524.739 207.788L517.03 209.138L521.439 210.468L547.878 211.094L566.606 211.733L574.326 217.74L587.545 217.718L589.753 220.39L578.745 225.09L621.701 221.676L636.016 218.308L611.778 216.341L612.874 212.995L594.146 212.357L553.371 202.39L550.067 202.395L533.542 201.753ZM1454.47 202.263L1458.88 204.931L1462.18 202.251L1454.47 202.263ZM1485.31 203.551L1484.21 204.89L1487.52 204.885L1485.31 203.551ZM197.568 207.65L200.873 207.645L196.471 210.328L197.568 207.65ZM1468.79 206.253L1468.8 207.591L1473.2 208.252L1468.79 206.253ZM1484.22 206.228L1482.02 209.576L1486.43 209.569L1484.22 206.228ZM654.728 208.914L643.716 211.607L652.529 211.593L654.728 208.914ZM172.243 214.38L168.941 216.392L170.045 217.728L172.243 214.38ZM502.717 213.843L501.622 217.858L509.331 216.508L507.123 213.836L502.717 213.843ZM656.948 219.612L645.937 222.305L658.056 223.623L655.859 226.971L662.475 230.974L632.732 231.022L628.33 233.705L637.147 236.366L666.884 232.973L676.807 238.308L681.208 234.956L690.014 230.929L721.961 231.546L727.464 228.193L706.528 224.882L715.338 222.861L705.424 223.546L702.114 220.208L656.948 219.612ZM771.528 228.79L745.091 229.502L746.198 232.844L764.924 232.145L771.528 228.79ZM589.778 235.774L566.648 237.818L575.466 241.148L587.582 240.459L600.799 239.1L589.778 235.774ZM839.85 243.394L834.345 245.409L837.654 248.079L844.261 246.062L839.85 243.394ZM226.298 262.45L228.504 263.784L219.692 264.468L226.298 262.45ZM230.722 273.145L238.435 274.47L239.537 274.468L232.929 275.148L231.831 277.825L230.722 273.145ZM346.391 274.963L355.21 278.293L345.295 278.309L346.391 274.963ZM1694.38 287.487L1695.85 288.822L1694.75 288.155L1694.38 287.487ZM848.744 293.544L836.628 294.232L839.939 298.24L832.231 300.259L847.652 299.565L848.744 293.544ZM1425.97 293.274L1427.08 296.617L1431.49 296.61L1425.97 293.274ZM434.556 298.23L436.764 300.902L429.051 300.246L434.556 298.23ZM441.17 300.895L455.504 308.898L441.181 307.583L441.17 300.895ZM824.526 303.616L828.947 312.973L836.659 313.629L795.361 320.273L825.644 313.647L826.741 310.97L824.526 303.616ZM769.474 320.427L782.146 322.97L794.81 320.386L782.697 323.081L782.146 322.97L781.596 323.083L769.475 321.096L756.26 323.793L736.455 337.871L743.049 328.496L756.259 323.124L769.474 320.427ZM817.946 321.686L815.757 330.385L812.44 323.032L817.946 321.686ZM1739.45 337.913L1740.46 339.193L1740 338.915L1739.45 337.913ZM1645.26 339.069L1649.68 343.075L1647.47 343.079L1645.26 339.069ZM951.282 348.892L953.491 352.902L944.679 352.916L951.282 348.892ZM1776.44 390.246L1776.99 391.026L1776.44 390.358L1776.44 390.246ZM1042.79 396.233L1030.67 396.921L1037.29 400.255L1042.79 396.233ZM1780.85 396.928L1782.23 399.434L1780.85 397.708L1780.85 396.928ZM764.094 399.361L801.548 399.3L837.918 409.943L865.485 427.288L891.924 427.914L907.334 419.863L922.759 421.844L933.765 415.807L953.594 416.443L959.106 418.441L959.11 421.116L964.618 421.107L991.044 413.707L966.821 421.104L951.4 421.798L944.809 433.179L948.093 420.465L955.805 421.122L940.38 419.14L950.294 419.124L940.376 416.465L922.76 422.513L907.335 420.532L888.623 429.926L869.893 427.95L865.488 428.626L833.554 436.035L823.634 432.707L803.819 440.766L802.712 437.423L808.217 436.076L783.973 430.096L782.874 432.104L774.049 424.093L761.927 421.437L737.694 422.814L724.492 432.868L705.765 432.899L700.264 437.59L703.571 438.922L695.866 442.279L695.498 442.001L694.764 442.281L688.147 437.609L668.318 436.973L688.146 436.94L695.498 442.001L703.571 438.922L699.164 438.26L705.764 432.23L725.591 431.529L737.694 422.814L771.84 420.752L790.584 431.423L812.625 436.738L823.634 432.707L832.451 435.368L848.969 431.997L851.165 427.311L865.486 427.957L855.569 425.967L836.817 410.613L802.652 400.636L755.284 400.713L764.094 399.361ZM1656.39 405.268L1657.49 405.266L1656.4 411.288L1657.5 413.961L1659.7 411.951L1659.71 416.633L1655.3 411.958L1656.39 405.268ZM921.637 409.138L934.859 411.123L935.966 414.465L921.637 409.138ZM1693.85 408.551L1707 424.471L1706.81 422.967L1706.81 422.911L1705.97 414.551L1708.48 429.597L1709.3 430.599L1709.31 434.556L1708.21 432.607L1708.2 429.263L1707.1 427.927L1704.89 426.593L1707.1 427.258L1701.58 425.26L1705.99 425.253L1699.37 419.913L1697.16 413.897L1690.55 411.901L1696.06 413.23L1693.85 408.551ZM1735.71 410.49L1736.82 418.514L1733.51 413.838L1735.71 410.49ZM1774.27 410.427L1775.37 410.425L1778.68 417.778L1779.78 417.107L1780.89 420.449L1785.3 424.455L1783.1 425.797L1774.27 410.427ZM1009.78 416.352L1025.2 416.996L1019.79 420.906L1023.01 423.688L1019.7 421.018L1019.79 420.906L1015.28 417.012L1013.09 421.697L1009.78 416.352ZM346.633 423.45L343.331 425.462L351.051 430.8L344.447 434.155L351.057 434.144L355.459 431.462L346.633 423.45ZM661.699 431.633L641.877 435.678L647.382 433.662L644.075 432.33L651.787 432.986L661.699 431.633ZM1702.7 431.947L1709.31 435.95L1709.31 434.779L1709.77 437.565L1710.42 437.954L1710.42 441.299L1709.77 437.565L1709.32 437.287L1702.7 431.947ZM1752.28 437.217L1756.7 445.905L1760.04 468.641L1756.7 446.574L1752.28 437.217ZM1776.6 492.693L1774.4 494.703L1776.61 497.375L1776.6 492.693ZM1785.49 540.837L1786.6 543.51L1785.5 544.181L1785.49 540.837ZM1827.37 548.795L1832.88 555.474L1836.23 577.541L1831.78 555.476L1827.37 552.139L1825.17 550.805L1822.97 554.153L1822.98 562.848L1814.19 576.239L1820.78 564.189L1822.97 552.146L1826.27 549.465L1827.37 548.795ZM700.456 555.308L705.965 555.968L722.503 564.637L718.102 567.988L714.789 563.312L711.488 565.323L698.261 560.663L700.456 555.308ZM1820.8 578.235L1823.01 578.232L1821.91 581.578L1823.02 584.251L1820.82 588.268L1820.8 578.235ZM747.868 582.655L751.192 594.02L745.675 588.678L747.868 582.655ZM1102.59 590.104L1109.21 596.782L1104.81 598.796L1099.3 598.136L1103.7 593.447L1098.19 594.125L1102.59 590.104ZM1096.02 614.194L1094.92 616.202L1100.44 620.875L1090.51 615.541L1085.01 616.887L1093.83 624.899L1088.32 621.564L1083.92 622.909L1088.32 620.226L1082.8 614.884L1096.02 614.194ZM1033.27 639.713L1043.19 639.696L1042.09 643.043L1033.27 639.713ZM1836.34 647.771L1835.34 653.625L1836.35 652.453L1836.34 647.771ZM1834.16 664.496L1833.98 665.388L1834.16 665.165L1834.16 664.496ZM889.026 678.072L928.688 680.683L881.318 680.091L870.336 700.844L870.345 706.194L869.254 712.885L868.154 713.778L868.155 714.224L865.954 715.566L852.752 726.289L856.078 738.992L851.65 725.622L862.652 717.578L862.647 714.233L863.746 712.894L863.736 706.205L868.142 706.198L869.231 698.839L872.532 696.158L880.217 680.093L889.026 678.072ZM1828.69 685.24L1826.5 691.932L1826.5 691.263L1827.59 687.248L1828.69 685.24ZM1828.69 685.909L1828.69 687.915L1827.6 689.924L1828.69 685.909ZM1822.12 709.998L1819.92 714.684L1819.92 714.015L1822.12 709.998ZM829.597 712.949L822.993 716.304L818.583 713.636L829.597 712.949ZM1819.93 720.035L1819.93 720.704L1819.02 722.321L1818.84 722.991L1818.84 722.712L1819.02 722.321L1819.48 720.816L1819.93 720.035ZM1817.1 728.567L1816.64 729.962L1816.64 729.404L1817.1 728.567ZM969.528 730.781L968.437 737.471L962.928 736.811L955.23 744.85L955.22 738.831L969.528 730.781ZM1816.55 730.24L1815.55 733.419L1814.45 735.762L1814.45 734.09L1815.55 733.419L1815.55 732.081L1816.55 730.24ZM928.771 732.185L918.862 735.545L921.069 737.548L910.051 736.229L908.949 736.23L928.771 732.185ZM1814.27 736.208L1813.35 738.105L1812.26 740.782L1813.35 737.436L1813.35 736.767L1814.27 736.208ZM1796.87 760.204L1797.97 762.208L1796.87 761.541L1791.37 768.239L1796.87 760.204ZM708.594 818.157L716.311 821.489L709.702 822.168L708.594 818.157ZM694.278 820.856L698.687 822.855L694.283 824.2L694.278 820.856ZM681.073 829.572L681.097 844.287L686.606 844.947L692.11 842.262L687.683 829.561L681.073 829.572ZM700.941 853.619L696.539 856.301L702.05 858.299L700.941 853.619ZM1727.61 851.95L1724.32 855.3L1725.41 852.622L1723.21 855.97L1724.31 852.624L1727.61 851.95ZM687.752 872.368L692.16 873.03L689.961 875.709L687.752 872.368ZM709.785 873.001L728.512 872.971L715.294 873.661L708.692 878.354L709.785 873.001ZM692.187 889.751L689.991 894.437L696.601 894.426L692.187 889.751ZM712.017 891.057L716.43 895.063L716.425 891.719L721.942 897.729L712.026 896.408L712.017 891.057ZM693.297 895.101L694.408 901.118L686.697 901.131L693.315 906.471L696.61 900.446L695.52 907.136L701.024 905.121L693.297 895.101ZM713.144 906.439L727.466 907.084L716.453 909.109L717.559 911.782L713.144 906.439ZM690.013 907.814L692.222 911.155L694.419 907.807L690.013 907.814ZM870.683 914.209L870.691 918.891L883.909 918.201L881.701 915.529L878.401 918.21L870.683 914.209ZM870.691 918.891L861.884 922.25L866.293 924.249L869.594 921.568L873.999 920.892L870.691 918.891ZM851.957 914.908L859.674 918.24L851.962 917.584L857.472 918.912L848.664 921.602L859.678 920.916L868.482 915.55L859.67 915.565L851.957 914.908ZM767.155 927.086L750.636 929.788L751.746 935.137L762.762 935.119L757.263 940.479L769.385 943.803L766.084 945.815L763.877 943.144L761.677 945.154L748.452 941.831L757.27 945.161L751.763 945.839L750.658 943.165L739.647 946.527L792.525 947.779L807.942 944.41L779.29 937.768L767.155 927.086ZM727.503 929.825L725.307 934.511L730.818 936.509L728.612 934.506L738.518 929.808L727.503 929.825ZM706.575 931.197L714.291 934.529L725.309 935.849L706.575 931.197ZM725.309 935.849L719.807 939.202L726.421 941.867L730.824 939.853L727.522 941.865L735.229 939.177L725.309 935.849ZM751.748 936.475L748.45 940.493L756.164 942.487L751.748 936.475ZM740.739 940.506L741.844 942.511L748.454 943.169L740.739 940.506ZM774.9 947.808L759.481 949.839L767.198 953.171L764.99 950.499L771.599 950.488L771.603 952.495L780.418 953.818L769.394 949.154L774.9 947.808ZM1075.63 947.988L1089.97 955.991L1088.86 949.973L1075.63 947.988ZM887.369 1013.84L884.067 1015.85L895.082 1015.17L887.369 1013.84ZM877.456 1014.53L856.532 1018.57L848.824 1020.59L833.415 1028.64L827.906 1027.98L830.115 1031.33L816.904 1036.03L816.91 1040.04L810.301 1040.05L812.511 1044.73L804.797 1042.74L804.804 1046.75L812.514 1046.07L808.113 1049.42L812.522 1051.42L801.519 1059.46L804.829 1062.13L800.424 1063.48L789.396 1055.47L780.587 1058.16L783.895 1060.16L778.387 1060.17L779.492 1062.18L758.564 1063.55L765.177 1065.54L772.892 1068.21L767.389 1070.89L780.609 1071.54L770.702 1076.24L788.332 1078.88L793.851 1085.56L765.203 1081.6L758.599 1084.95L765.214 1088.28L756.397 1085.62L754.194 1085.63L715.644 1089.03L712.334 1085.69L681.499 1091.76L674.889 1091.11L677.09 1089.76L668.273 1087.1L655.058 1089.8L648.452 1091.82L645.154 1095.84L656.176 1099.83L669.395 1099.81L663.889 1101.16L682.628 1108.48L668.309 1109.18L672.719 1111.84L661.695 1106.51L653.986 1107.86L656.196 1111.87L628.655 1111.25L615.442 1115.28L611.037 1115.96L591.212 1118L598.938 1127.35L598.952 1136.04L592.343 1136.05L602.263 1139.38L604.467 1140.05L606.68 1146.06L614.392 1146.72L615.503 1152.74L622.113 1152.73L630.93 1155.39L627.632 1159.41L640.853 1160.72L643.058 1162.06L651.876 1165.39L658.487 1166.04L670.618 1174.72L670.62 1176.06L672.83 1180.07L686.057 1184.73L694.868 1184.04L701.48 1185.37L695.974 1186.72L677.247 1186.75L671.738 1186.09L671.739 1186.76L662.926 1186.1L658.518 1185.44L654.112 1185.45L649.705 1184.79L636.483 1183.47L632.075 1182.14L614.447 1180.83L605.633 1179.51L605.637 1182.18L622.166 1185.5L622.168 1186.84L623.27 1186.84L638.696 1189.49L640.901 1190.15L670.65 1194.12L665.141 1193.46L673.956 1194.78L681.668 1195.44L676.159 1194.78L682.769 1195.44L708.11 1198.07L714.353 1198.62L714.445 1198.62L714.721 1198.73L715.455 1198.73L721.056 1199.22L721.331 1199.39L722.8 1199.38L730.145 1200.04L733.45 1200.03L738.224 1200.31L740.152 1200.47L741.162 1200.69L742.263 1200.69L750.159 1201.18L751.077 1201.34L753.28 1201.34L762.737 1201.88L763.196 1201.99L764.297 1201.99L775.314 1202.64L779.72 1202.64L792.573 1203.17L792.941 1203.28L807.261 1203.26L815.891 1203.8L815.983 1203.8L816.075 1203.91L843.614 1203.87L843.614 1203.7C857.382 1203.79 870.5 1203.67 882.812 1203.41L882.445 1203.64L882.353 1203.64L879.967 1203.81L882.17 1203.81L882.261 1203.69L882.353 1203.69L888.319 1203.29C894.367 1203.15 899.925 1202.91 905.485 1202.71L899.794 1203.11L905.302 1203.1L905.669 1202.99L918.52 1202.41L914.113 1202.42C917.315 1202.29 920.119 1202.15 923.109 1202.01L922.926 1202.07L922.008 1202.24L918.52 1202.41L921.825 1202.4L922.559 1202.18L930.085 1201.72L928.892 1201.72C930.407 1201.65 932.124 1201.57 933.573 1201.49L930.085 1201.72L933.941 1201.72L935.317 1201.43L935.501 1201.38C936.006 1201.35 936.381 1201.35 936.878 1201.32L935.042 1201.71L936.144 1201.71L939.907 1201.15L941.467 1201.03C941.529 1201.03 941.589 1201.04 941.651 1201.03L947.159 1201.03L948.443 1200.63L948.719 1200.63L953.216 1200.35L952.39 1200.35C953.837 1200.25 954.94 1200.16 956.245 1200.06L955.511 1200.23L953.216 1200.35L955.97 1200.34L958.448 1200.06L964.782 1199.66L966.985 1199.66L967.26 1199.49L969.188 1199.26L971.941 1198.98L976.898 1198.97L977.173 1198.8L981.303 1198.29L984.608 1198.29L1006.09 1196.25L1006.64 1196.25L1007.55 1196.13L1013.24 1195.57L1023.52 1194.21L1026.46 1194.21L1030.87 1193.53L1036.37 1192.85L1040.78 1192.18L1051.79 1190.82L1056.2 1190.15L1061.7 1189.47L1066.11 1188.79L1071.62 1188.11L1074.55 1187.66L1077.12 1187.44L1085.93 1186.08L1091.44 1185.41L1100.25 1184.05L1105.76 1182.71L1110.16 1182.03L1115.67 1181.35L1120.07 1180.68L1125.58 1179.33L1129.99 1178.66L1135.49 1177.98L1139.9 1176.63L1144.3 1175.96L1149.81 1175.28L1154.21 1173.93L1159.72 1173.26L1164.12 1171.91L1168.53 1171.24L1174.03 1169.89L1178.44 1169.21L1182.84 1167.87L1163.29 1167.84L1175.13 1164.54L1178.43 1163.19L1193.85 1159.15L1198.25 1158.48L1216.97 1152.43L1219.17 1149.75L1205.95 1152.45L1215.86 1149.09L1212.56 1149.09L1208.15 1150.44L1204.85 1150.44L1214.76 1147.08L1209.25 1147.76L1203.73 1143.76L1194.92 1143.77L1182.81 1145.13L1181.71 1145.13L1183.91 1144.46L1191.62 1142.44L1190.51 1141.77L1209.23 1134.38L1205.92 1134.39L1194.91 1136.41L1194.91 1135.07L1203.72 1131.72L1191.6 1132.4L1188.29 1131.07L1179.48 1128.41L1183.87 1122.38L1184.97 1121.71L1187.17 1117.7L1181.66 1115.7L1189.36 1113.01L1175.04 1113.7L1173.94 1113.7L1165.12 1107.03L1164.02 1107.03L1157.41 1107.71L1147.48 1099.7L1159.04 1093.83L1159.59 1093.66L1160.69 1092.99L1157.38 1092.33L1149.68 1096.35L1139.77 1097.04L1135.36 1097.05L1112.22 1094.41L1111.12 1091.73L1086.89 1094.45L1076.98 1097.14L1068.16 1095.82L1052.74 1097.18L1048.33 1095.18L1034.02 1099.89L1028.51 1101.23L988.866 1106.65L982.261 1110L958.032 1113.39L949.22 1113.4L937.108 1116.77L920.578 1113.45L917.275 1114.12L916.171 1112.79L904.057 1114.81L853.355 1096.84L844.539 1094.84L854.437 1084.79L854.43 1080.78L849.998 1064.74L852.198 1062.73L855.497 1059.38L862.093 1051.34L855.483 1050.68L848.856 1039.99L855.452 1031.95L867.55 1019.89L871.863 1019.05L868.653 1020.56L870.86 1023.23L878.569 1021.88L873.423 1018.77L881.866 1017.2L877.456 1014.53ZM836.707 1020.61L835.611 1023.96L841.114 1021.27L836.707 1020.61ZM831.201 1021.96L824.597 1025.31L833.409 1024.63L834.51 1024.63L831.201 1021.96ZM803.691 1040.06L795.992 1047.43L802.599 1046.08L803.691 1040.06ZM638.559 1105.21L645.174 1108.54L653.988 1109.2L649.577 1106.53L638.559 1105.21Z" fill="#D8D8D8"/>
<path d="M883.839 200.279L893.754 200.263L891.55 200.266L901.465 200.25L883.839 200.279Z" fill="#D8D8D8"/>
<path d="M1002.44 129.837C1013.41 130.179 1036.75 130.645 1042.44 129.772C1045.99 129.766 1055.76 127.592 1066.41 118.941C1077.06 110.29 1061.96 112.473 1053.08 114.646C1032.04 114.68 989.972 111.295 989.95 97.4813C977.497 90.4867 978.392 94.8021 964.164 88.8897C949.935 82.9772 948.169 89.9949 948.167 88.9157C948.165 87.8365 922.385 83.0222 906.366 69.0187C912.579 64.1524 930.361 68.9797 948.125 63.0152C965.889 57.0508 970.342 62.9791 978.341 62.9661C986.339 62.9531 1005 64.5415 1053 68.7803C1101 73.0191 1069.89 69.8321 1085.88 68.7269C1101.88 67.6217 1113.44 72.4593 1157 82.6408C1200.56 92.8223 1165.9 91.7995 1183.7 104.181C1192.59 106.865 1234.38 123.524 1234.39 129.46L1234.41 141.331L1206.88 153.247C1193.86 161.182 1148.28 183.559 1149.16 177.083C1150.03 170.606 1140.27 179.796 1129.61 179.813C1121.08 179.827 1115.38 173.721 1113.6 170.666C1109.45 170.133 1098.13 169.396 1086.05 170.711C1073.96 172.025 1081.02 177.374 1086.06 179.884C1086.67 189.056 1084.33 205.247 1070.09 196.637C1062.98 191.253 1055.87 196.66 1042.54 196.682L1022.99 196.714L1015.88 194.027C1011.43 193.315 1000.06 191.355 990.099 189.213C977.653 186.535 990.075 174.644 978.505 163.871L978.492 156.316C982.342 155.231 990.036 150.794 990.022 141.728L990.01 134.714L1002.44 129.837Z" fill="#D8D8D8"/>
<path d="M-3.95302 294.906C-3.95302 294.906 17.8431 274.098 77.9335 222.135L106.703 201.468L108.809 207.139C105.849 207.539 108.252 212.412 106.894 216.06C105.197 220.62 99.9151 219.709 92.5145 222.602L96.9452 227.689C94.6198 228.273 89.0382 230.055 85.3154 232.507L83.6184 237.067L99.2573 236.58L100.732 240.171L103.049 245.271L111.921 247.863L110.012 252.993C107.897 254.271 104.384 257.543 107.254 260.404C110.842 263.98 106.186 268.939 102.8 272.374C99.4135 275.808 96.0328 275.453 93.9274 269.782C92.2432 265.245 90.6908 267.151 90.1251 268.671L82.5204 266.449L73.4228 273.903C70.8879 273.163 65.0168 270.436 61.8116 265.455C58.6064 260.474 59.3447 266.42 60.1145 270.015L48.0738 266.498L42.996 270.702L34.9643 271.516L-3.95302 294.906Z" fill="#D8D8D8"/>
<path d="M223.236 126.973L1498.92 130.598L1495.53 1322.83L219.848 1319.2L223.236 126.973Z" fill="url(#paint0_linear_0_1698)"/>
</g>
<defs>
<linearGradient id="paint0_linear_0_1698" x1="922.368" y1="587.226" x2="925.228" y2="437.002" gradientUnits="userSpaceOnUse">
<stop stop-color="#D8D8D8"/>
<stop offset="1" stop-color="white" stop-opacity="0"/>
</linearGradient>
</defs>
</svg>
