<svg width="135" height="135" viewBox="0 0 135 135" fill="none" xmlns="http://www.w3.org/2000/svg">
<path d="M131.626 0.4375H2.69285C1.24539 0.4375 0.0722656 1.61062 0.0722656 3.05809V111.026C0.0722656 112.474 1.24539 113.647 2.69285 113.647H25.9291C27.3765 113.647 28.5497 112.474 28.5497 111.026C28.5497 109.579 27.3765 108.406 25.9291 108.406H5.31344V26.6434H129.005V108.406H121.93C121.827 108.406 121.727 108.413 121.627 108.424L107.827 94.6241L114.094 88.3562C114.751 87.7 115.011 86.747 114.779 85.8492C114.548 84.9505 113.858 84.2421 112.966 83.9851L107.321 82.3596C111.952 78.9917 114.854 73.5509 114.854 67.5246C114.854 57.4097 106.625 49.1804 96.5099 49.1804H37.8087C27.6939 49.1804 19.4646 57.4097 19.4646 67.5246C19.4646 77.6394 27.6939 85.8687 37.8087 85.8687H65.5849L72.075 108.406H49.5144C48.0669 108.406 46.8938 109.579 46.8938 111.026C46.8938 112.474 48.0669 113.647 49.5144 113.647H73.5849L75.7581 121.194C76.0151 122.085 76.7235 122.775 77.6222 123.006C78.52 123.239 79.4741 122.978 80.1292 122.323L86.3971 116.054L104.187 133.844C104.679 134.335 105.345 134.612 106.04 134.612C106.735 134.612 107.403 134.335 107.894 133.844L125.617 116.121C126.287 115.451 126.516 114.506 126.307 113.647H131.626C133.073 113.647 134.246 112.474 134.246 111.026V3.05809C134.246 1.61062 133.073 0.4375 131.626 0.4375ZM37.8087 80.6275C30.5837 80.6275 24.7058 74.7496 24.7058 67.5246C24.7058 60.2995 30.5837 54.4216 37.8087 54.4216H96.5099C103.735 54.4216 109.613 60.2995 109.613 67.5246C109.613 73.5161 105.599 78.6979 99.8287 80.2017L65.2635 70.2475C64.3473 69.9834 63.3595 70.2383 62.6859 70.9129C62.0113 71.5875 61.7564 72.5743 62.0205 73.4915L64.076 80.6275H37.8087ZM106.041 128.284L88.251 110.494C87.7596 110.003 87.0932 109.726 86.3981 109.726C85.7031 109.726 85.0356 110.003 84.5443 110.494L79.5652 115.474L68.3693 76.5953L107.247 87.7922L102.268 92.7713C101.244 93.7949 101.244 95.4543 102.268 96.478L120.058 114.268L106.041 128.284ZM5.31344 21.4022V5.67868H129.005V21.4022H5.31344Z" fill="white"/>
</svg>
