<svg width="167" height="46" viewBox="0 0 167 46" fill="none" xmlns="http://www.w3.org/2000/svg">
<path d="M0.168873 35V0.622617H7.09049L19.9647 17.6959H16.7346L29.2397 0.622617H36.1613V35H29.009V8.51327L31.8699 9.15928L18.6265 26.2326H17.7036L4.92172 9.15928L7.32121 8.51327V35H0.168873ZM43.8263 45.244C43.088 45.244 42.365 45.1825 41.6575 45.0594C40.9807 44.9364 40.3808 44.7364 39.8579 44.4595V38.7838C40.2886 38.9069 40.7961 39.0145 41.3806 39.1068C41.9651 39.1991 42.5035 39.2453 42.9957 39.2453C44.3492 39.2453 45.3183 38.9223 45.9028 38.2762C46.4873 37.6302 46.9641 36.8919 47.3332 36.0613L49.0406 32.1391L48.9483 37.9071L37.8737 9.8053H45.3029L52.6398 29.7857H49.8712L57.2081 9.8053H64.6373L53.8395 37.3534C53.1628 39.1068 52.3322 40.5681 51.3478 41.737C50.3634 42.906 49.2405 43.7828 47.9792 44.3673C46.7487 44.9518 45.3644 45.244 43.8263 45.244ZM72.4616 35L63.7865 9.8053H70.9388L77.0299 27.9861L74.5381 27.9399L81.3213 9.8053H87.32L94.057 27.9399L91.5653 27.9861L97.6563 9.8053H104.855L96.1335 35H90.1348L83.1209 15.5272H85.5204L78.4603 35H72.4616ZM112.957 35.5537C111.142 35.5537 109.573 35.2615 108.25 34.677C106.927 34.0925 105.912 33.2619 105.204 32.1852C104.497 31.0777 104.143 29.7703 104.143 28.263C104.143 26.8479 104.466 25.602 105.112 24.5253C105.758 23.4178 106.743 22.4949 108.065 21.7566C109.419 21.0183 111.096 20.4954 113.095 20.1877L120.801 18.9418V24.0177L114.341 25.1713C113.357 25.3559 112.603 25.6789 112.08 26.1403C111.557 26.571 111.295 27.2016 111.295 28.0322C111.295 28.8013 111.588 29.4012 112.172 29.8319C112.757 30.2625 113.48 30.4779 114.341 30.4779C115.479 30.4779 116.479 30.2318 117.34 29.7396C118.202 29.2474 118.863 28.586 119.325 27.7554C119.817 26.894 120.063 25.9557 120.063 24.9406V18.3881C120.063 17.4345 119.678 16.6346 118.909 15.9886C118.171 15.3426 117.156 15.0196 115.864 15.0196C114.633 15.0196 113.541 15.358 112.588 16.0348C111.665 16.7115 110.988 17.6037 110.557 18.7111L105.02 16.0809C105.512 14.6658 106.297 13.4507 107.373 12.4355C108.45 11.4203 109.742 10.6359 111.249 10.0822C112.757 9.52844 114.403 9.25157 116.187 9.25157C118.309 9.25157 120.186 9.63611 121.816 10.4052C123.447 11.1742 124.708 12.2509 125.6 13.6353C126.523 14.9888 126.984 16.5731 126.984 18.3881V35H120.524V30.9393L122.093 30.6625C121.355 31.7699 120.54 32.6928 119.648 33.4311C118.755 34.1386 117.756 34.6616 116.648 35C115.541 35.3692 114.31 35.5537 112.957 35.5537ZM142.582 35.5537C140.059 35.5537 137.783 34.9846 135.752 33.8464C133.753 32.6774 132.153 31.0931 130.953 29.0936C129.784 27.094 129.2 24.8483 129.2 22.3565C129.2 19.8647 129.784 17.6344 130.953 15.6656C132.122 13.666 133.722 12.0971 135.752 10.9589C137.783 9.82068 140.059 9.25157 142.582 9.25157C144.458 9.25157 146.196 9.57458 147.796 10.2206C149.396 10.8666 150.764 11.7741 151.903 12.9431C153.041 14.0813 153.856 15.4349 154.348 17.0038L148.35 19.5879C147.919 18.3266 147.181 17.3268 146.135 16.5885C145.119 15.8502 143.935 15.481 142.582 15.481C141.382 15.481 140.305 15.7733 139.351 16.3578C138.429 16.9423 137.69 17.7575 137.137 18.8034C136.614 19.8493 136.352 21.0491 136.352 22.4027C136.352 23.7562 136.614 24.956 137.137 26.0019C137.69 27.0478 138.429 27.863 139.351 28.4475C140.305 29.032 141.382 29.3243 142.582 29.3243C143.966 29.3243 145.166 28.9551 146.181 28.2168C147.196 27.4785 147.919 26.4787 148.35 25.2174L154.348 27.8477C153.887 29.3243 153.087 30.6471 151.949 31.8161C150.811 32.985 149.442 33.9079 147.842 34.5847C146.242 35.2307 144.489 35.5537 142.582 35.5537ZM159.993 35V28.0784H166.915V35H159.993Z" fill="#04DC5C"/>
</svg>
