<svg width="40" height="40" viewBox="0 0 40 40" fill="none" xmlns="http://www.w3.org/2000/svg">
<path d="M20.2797 0.629639C30.9923 0.629639 39.6764 9.31374 39.6764 20.0263C39.6764 30.737 30.9923 39.4211 20.2797 39.4211C9.56716 39.4211 0.883057 30.737 0.883057 20.0263C0.883057 9.31374 9.56716 0.629639 20.2797 0.629639ZM20.2797 3.53856C18.0996 3.51492 15.9365 3.9239 13.9155 4.74183C11.8944 5.55977 10.0557 6.77041 8.50571 8.3037C6.95571 9.83699 5.72519 11.6625 4.88539 13.6745C4.04558 15.6865 3.61317 17.8451 3.61317 20.0254C3.61317 22.2056 4.04558 24.3642 4.88539 26.3762C5.72519 28.3883 6.95571 30.2137 8.50571 31.747C10.0557 33.2803 11.8944 34.491 13.9155 35.3089C15.9365 36.1268 18.0996 36.5358 20.2797 36.5122C24.6083 36.4458 28.737 34.6797 31.7746 31.5952C34.8121 28.5107 36.5146 24.3554 36.5146 20.0263C36.5146 15.6973 34.8121 11.5419 31.7746 8.45747C28.737 5.373 24.6083 3.60689 20.2797 3.5405V3.53856ZM13.4186 25.4234C14.2345 26.4628 15.2763 27.303 16.465 27.8802C17.6538 28.4575 18.9583 28.7566 20.2797 28.755C21.5996 28.7565 22.9025 28.4581 24.0901 27.8822C25.2777 27.3064 26.3189 26.4683 27.1351 25.4311C27.3743 25.1284 27.7239 24.9332 28.107 24.8882C28.4902 24.8433 28.8755 24.9524 29.1781 25.1916C29.4808 25.4308 29.6761 25.7804 29.721 26.1635C29.7659 26.5467 29.6568 26.932 29.4176 27.2346C28.3292 28.6165 26.9412 29.7332 25.3582 30.5005C23.7753 31.2678 22.0388 31.6656 20.2797 31.664C18.5184 31.6654 16.7798 31.2663 15.1954 30.497C13.6109 29.7276 12.2222 28.6081 11.1341 27.223C10.9056 26.9192 10.8052 26.5381 10.8542 26.1612C10.9033 25.7842 11.0979 25.4415 11.3965 25.2063C11.695 24.9711 12.0738 24.8621 12.4518 24.9027C12.8297 24.9432 13.1767 25.1301 13.4186 25.4234ZM14.4619 13.7217C14.7859 13.7126 15.1084 13.7685 15.4104 13.8861C15.7124 14.0038 15.9877 14.1808 16.2201 14.4067C16.4525 14.6326 16.6373 14.9028 16.7634 15.2014C16.8896 15.4999 16.9546 15.8208 16.9546 16.1449C16.9546 16.469 16.8896 16.7898 16.7634 17.0883C16.6373 17.3869 16.4525 17.6571 16.2201 17.883C15.9877 18.1089 15.7124 18.286 15.4104 18.4036C15.1084 18.5213 14.7859 18.5772 14.4619 18.568C13.8311 18.5501 13.2322 18.287 12.7923 17.8345C12.3524 17.3821 12.1064 16.7759 12.1064 16.1449C12.1064 15.5138 12.3524 14.9077 12.7923 14.4552C13.2322 14.0027 13.8311 13.7396 14.4619 13.7217ZM26.0976 13.7217C26.4216 13.7126 26.7441 13.7685 27.0461 13.8861C27.3481 14.0038 27.6234 14.1808 27.8558 14.4067C28.0882 14.6326 28.273 14.9028 28.3991 15.2014C28.5253 15.4999 28.5903 15.8208 28.5903 16.1449C28.5903 16.469 28.5253 16.7898 28.3991 17.0883C28.273 17.3869 28.0882 17.6571 27.8558 17.883C27.6234 18.1089 27.3481 18.286 27.0461 18.4036C26.7441 18.5213 26.4216 18.5772 26.0976 18.568C25.4668 18.5501 24.8678 18.287 24.428 17.8345C23.9881 17.3821 23.742 16.7759 23.742 16.1449C23.742 15.5138 23.9881 14.9077 24.428 14.4552C24.8678 14.0027 25.4668 13.7396 26.0976 13.7217Z" fill="#828282"/>
</svg>
