<svg width="6" height="16" viewBox="0 0 6 16" fill="none" xmlns="http://www.w3.org/2000/svg">
<path d="M2.96295 4.59141C4.15107 4.59141 5.12317 3.76571 5.12317 2.75652C5.12317 1.74733 4.15107 0.921631 2.96295 0.921631C1.77483 0.921631 0.802734 1.74733 0.802734 2.75652C0.802734 3.76571 1.77483 4.59141 2.96295 4.59141ZM2.96295 6.4263C1.77483 6.4263 0.802734 7.252 0.802734 8.26119C0.802734 9.27037 1.77483 10.0961 2.96295 10.0961C4.15107 10.0961 5.12317 9.27037 5.12317 8.26119C5.12317 7.252 4.15107 6.4263 2.96295 6.4263ZM2.96295 11.931C1.77483 11.931 0.802734 12.7567 0.802734 13.7659C0.802734 14.775 1.77483 15.6007 2.96295 15.6007C4.15107 15.6007 5.12317 14.775 5.12317 13.7659C5.12317 12.7567 4.15107 11.931 2.96295 11.931Z" fill="white"/>
</svg>
