<svg width="119" height="120" viewBox="0 0 119 120" fill="none" xmlns="http://www.w3.org/2000/svg">
<g filter="url(#filter0_d_207_4)">
<path d="M13.7637 103.137L20.2326 79.4182C16.2437 72.4617 14.1456 64.5821 14.1471 56.5632C14.1471 31.3502 34.5606 10.8115 59.6197 10.8115C71.7906 10.8115 83.1946 15.5849 91.818 24.2136C96.0559 28.4654 99.4138 33.5111 101.7 39.062C103.985 44.6129 105.154 50.5601 105.139 56.5632C105.139 81.7788 84.7283 102.317 59.6666 102.317C52.0501 102.317 44.5743 100.387 37.9124 96.725L13.7637 103.137Z" fill="url(#paint0_linear_207_4)"/>
</g>
<path d="M12.1338 104.776L18.8426 80.2364C14.718 73.029 12.5542 64.8665 12.5668 56.5624C12.5172 30.3843 33.648 9.12305 59.6201 9.12305C72.2213 9.12305 84.0557 14.0399 92.9687 23.0077C101.882 31.9754 106.767 43.8828 106.767 56.5624C106.767 82.6935 85.639 103.957 59.667 103.957C51.792 103.968 44.0434 101.977 37.1485 98.1719L12.1338 104.776ZM38.2519 89.6371L39.6891 90.5057C45.7183 94.0975 52.6048 95.9961 59.6227 96.0017C81.1839 96.0017 98.7698 78.3062 98.7698 56.6119C98.7698 46.1 94.6981 36.1698 87.3189 28.7436C79.9344 21.3226 70.0642 17.1752 59.6175 17.1752C38.0067 17.1752 20.4207 34.8708 20.4207 56.565C20.4207 63.9912 22.4814 71.2713 26.4123 77.5367L27.3226 79.0339L23.3448 93.5941L38.2467 89.6397L38.2519 89.6371Z" fill="url(#paint1_linear_207_4)"/>
<path fill-rule="evenodd" clip-rule="evenodd" d="M47.879 36.7C47.0183 34.7229 46.0584 34.6759 45.2445 34.6759C44.5246 34.6263 43.7577 34.6263 42.9439 34.6263C42.177 34.6263 40.8832 34.9159 39.7825 36.121C38.6791 37.3261 35.6612 40.1718 35.6612 46.0069C35.6612 51.8393 39.879 57.4813 40.4529 58.2508C41.0267 59.0229 48.599 71.3659 60.5768 76.1393C70.5436 80.0911 72.5573 79.3216 74.7145 79.079C76.869 78.839 81.6607 76.2358 82.6675 73.437C83.6248 70.6903 83.6248 68.2802 83.3379 67.7976C83.051 67.3151 82.2345 67.0255 81.0842 66.3995C79.887 65.8204 74.138 62.9303 73.0346 62.5416C71.9339 62.1556 71.167 61.9626 70.4001 63.1207C69.6333 64.3258 67.3822 66.9786 66.6623 67.748C65.9919 68.5201 65.2746 68.6166 64.1243 68.0376C62.9244 67.4611 59.1422 66.2065 54.6348 62.1556C51.1396 59.0229 48.792 55.1181 48.0721 53.9599C47.4017 52.7549 47.9755 52.1288 48.599 51.5498C49.1259 51.0203 49.7988 50.1517 50.3727 49.4761C50.9465 48.8005 51.1369 48.271 51.5699 47.4989C51.9534 46.7294 51.7604 46.0043 51.4734 45.4278C51.1865 44.8957 48.9328 39.0633 47.879 36.7Z" fill="white"/>
<path d="M12.1338 104.776L18.8426 80.2364C14.718 73.029 12.5542 64.8665 12.5668 56.5624C12.5172 30.3843 33.648 9.12305 59.6201 9.12305C72.2213 9.12305 84.0557 14.0399 92.9687 23.0077C101.882 31.9754 106.767 43.8828 106.767 56.5624C106.767 82.6935 85.639 103.957 59.667 103.957C51.792 103.968 44.0434 101.977 37.1485 98.1719L12.1338 104.776ZM38.2519 89.6371L39.6891 90.5057C45.7183 94.0975 52.6048 95.9961 59.6227 96.0017C81.1839 96.0017 98.7698 78.3062 98.7698 56.6119C98.7698 46.1 94.6981 36.1698 87.3189 28.7436C79.9344 21.3226 70.0642 17.1752 59.6175 17.1752C38.0067 17.1752 20.4207 34.8708 20.4207 56.565C20.4207 63.9912 22.4814 71.2713 26.4123 77.5367L27.3226 79.0339L23.3448 93.5941L38.2467 89.6397L38.2519 89.6371Z" fill="white"/>
<defs>
<filter id="filter0_d_207_4" x="0.504695" y="0.204342" width="117.894" height="118.843" filterUnits="userSpaceOnUse" color-interpolation-filters="sRGB">
<feFlood flood-opacity="0" result="BackgroundImageFix"/>
<feColorMatrix in="SourceAlpha" type="matrix" values="0 0 0 0 0 0 0 0 0 0 0 0 0 0 0 0 0 0 127 0" result="hardAlpha"/>
<feOffset dy="2.6518"/>
<feGaussianBlur stdDeviation="6.62949"/>
<feComposite in2="hardAlpha" operator="out"/>
<feColorMatrix type="matrix" values="0 0 0 0 0 0 0 0 0 0 0 0 0 0 0 0 0 0 0.25 0"/>
<feBlend mode="normal" in2="BackgroundImageFix" result="effect1_dropShadow_207_4"/>
<feBlend mode="normal" in="SourceGraphic" in2="effect1_dropShadow_207_4" result="shape"/>
</filter>
<linearGradient id="paint0_linear_207_4" x1="59.4423" y1="103.131" x2="59.4423" y2="10.7933" gradientUnits="userSpaceOnUse">
<stop stop-color="#20B038"/>
<stop offset="1" stop-color="#60D66A"/>
</linearGradient>
<linearGradient id="paint1_linear_207_4" x1="59.4427" y1="104.787" x2="59.4427" y2="9.13609" gradientUnits="userSpaceOnUse">
<stop stop-color="#F9F9F9"/>
<stop offset="1" stop-color="white"/>
</linearGradient>
</defs>
</svg>
